<svg xmlns="http://www.w3.org/2000/svg" width="30" height="23" fill="none" viewBox="0 0 30 23"><path stroke="#318A92" stroke-miterlimit="10" stroke-width=".875" d="M23.7853 4.85333C25.0307 6.09867 26.3333 11.1773 23.7787 14.2093M26.508 1.92C27.984 3.116 32.024 10.9787 26.508 17.3307M14.2547 6.00933H11.1827V9.97333V13.9387H14.2547C17.3267 13.9387 20.8987 18.5107 20.8987 18.5107V9.97333V1.436C20.8987 1.436 17.3267 6.00933 14.2547 6.00933ZM3.71333 13.932L6.37733 22H9.548L7.17067 13.932H3.71333ZM9.16267 13.3173V13.9333C9.16267 13.9333 8.70933 13.932 8.548 13.932H1.616C1.27733 13.932 1 13.6547 1 13.3173V6.66133C1 6.324 1.27733 6.04533 1.616 6.04533H8.548H9.16267V6.66133V13.3173Z"/></svg>