<svg width="18" height="25" viewBox="0 0 18 25" fill="none" xmlns="http://www.w3.org/2000/svg">
<path d="M2.9679 12.2448L9.91335 19.2403M2.9679 10.2358L9.34633 3.80184M4.88243 23.9853C5.42721 21.357 7.76089 19.2063 10.4982 19.2063C13.3021 19.2063 15.6325 21.2764 16.1017 24L4.88243 23.9853ZM1 11.3248C1 11.9238 1.4425 12.4127 1.98395 12.4127C2.5254 12.4127 2.9679 11.9238 2.9679 11.3248C2.9679 10.7259 2.5254 10.2358 1.98395 10.2358C1.4425 10.2358 1 10.7259 1 11.3248ZM9.55423 3.761C9.28851 3.4672 9.1273 3.07472 9.1273 2.6448C9.1273 1.73619 9.84886 0.999999 10.7394 0.999999C11.1719 0.999999 11.5655 1.17356 11.8546 1.45828L9.55423 3.761ZM10.954 9.17069C10.0779 8.37665 9.5231 7.20374 9.52422 5.8947C9.52422 3.50577 11.3709 1.56944 13.649 1.56944C15.0288 1.56944 16.2506 2.27841 17 3.36965L10.954 9.17069ZM16.1239 6.09548C16.1239 7.31831 15.1522 8.30859 13.9537 8.30859C13.3822 8.30859 12.8607 8.08399 12.4727 7.7142L15.6258 4.68662C15.9705 5.07797 16.1239 5.52831 16.1239 6.09548Z" stroke="#318A92" stroke-width="0.874667" stroke-miterlimit="10"/>
</svg>
