<svg width="27" height="21" viewBox="0 0 27 21" fill="none" xmlns="http://www.w3.org/2000/svg">
<path d="M2.87867 1.896H6.37333M19.92 3.676H25.7213V20H1V3.676H6.708H7.112L9.06 1.02267H17.456L19.7427 3.676H19.92ZM18.3373 11.8373C18.3373 14.7573 15.9707 17.1227 13.052 17.1227C10.1333 17.1227 7.76667 14.7573 7.76667 11.8373C7.76667 8.91867 10.1333 6.55333 13.052 6.55333C15.9707 6.55333 18.3373 8.91867 18.3373 11.8373ZM22.216 7.50267C22.216 8.044 21.7773 8.48267 21.236 8.48267C20.6933 8.48267 20.2533 8.044 20.2533 7.50267C20.2533 6.96 20.6933 6.52 21.236 6.52C21.7773 6.52 22.216 6.96 22.216 7.50267Z" stroke="#318A92" stroke-width="0.874667" stroke-miterlimit="10"/>
</svg>
