<svg width="33" height="25" viewBox="0 0 33 25" fill="none" xmlns="http://www.w3.org/2000/svg">
<path d="M22.0787 2.65467C23.0907 1.488 24.6467 0.741332 26.3947 0.741332C29.444 0.741332 31.916 3.016 31.916 5.82133C31.916 8.16267 30.192 10.1347 27.8493 10.7213M4.98 10.7013C2.68133 10.0867 1 8.13467 1 5.82133C1 3.016 3.472 0.741332 6.52 0.741332C8.20933 0.741332 9.71867 1.44 10.732 2.53867M22.7107 2.04C22.4373 2.208 22.124 2.30267 21.792 2.30267C21.5307 2.30267 21.284 2.24533 21.056 2.14M10.1667 2.02533C10.44 2.19333 10.7533 2.28933 11.0867 2.28933C11.348 2.28933 11.5947 2.22933 11.8213 2.12533M12.652 17.3453C12.652 17.3453 12.752 19.084 14.4347 19.084C15.8773 19.084 16.1453 17.912 16.1453 17.912L15.7947 17.588L13.9373 15.9573C13.9373 15.9573 15.0387 15.1107 16.4147 15.1107M20.1613 17.316C20.1613 17.316 20.0613 19.056 18.38 19.056C16.936 19.056 16.668 17.884 16.668 17.884L17.0373 17.588L18.8947 15.9573C18.8947 15.9573 17.7933 15.1107 16.4147 15.1107M27.8507 12.58C27.8507 18.888 22.732 24 16.4147 24C10.1 24 4.98133 18.888 4.98133 12.58C4.98133 6.272 10.1 1.15867 16.4147 1.15867C22.732 1.15867 27.8507 6.272 27.8507 12.58ZM9.944 10.412C9.168 12.104 9.664 13.992 11.0533 14.6253C12.44 15.2613 14.1947 14.4013 14.9707 12.7093C15.7453 11.016 15.2493 9.12933 13.8613 8.49467C12.4733 7.86133 10.7187 8.72 9.944 10.412ZM22.7973 10.412C23.5733 12.104 23.076 13.992 21.6893 14.6253C20.3 15.2613 18.5467 14.4013 17.7707 12.7093C16.9947 11.016 17.492 9.12933 18.8813 8.49467C20.2693 7.86133 22.0213 8.72 22.7973 10.412Z" stroke="#318A92" stroke-width="0.874667" stroke-miterlimit="10"/>
</svg>
