<svg width="115" height="67" viewBox="0 0 115 67" fill="none" xmlns="http://www.w3.org/2000/svg">
<path d="M41.4403 15.0248H41.7549C41.9029 15.0248 42.0176 15.0035 42.1016 14.9608C42.1843 14.9168 42.2483 14.8582 42.2909 14.7822C42.3336 14.7048 42.3603 14.6155 42.3696 14.5102C42.3789 14.4048 42.3843 14.2902 42.3843 14.1675C42.3843 14.0382 42.3763 13.9262 42.3629 13.8302C42.3483 13.7355 42.3189 13.6555 42.2736 13.5915C42.2269 13.5275 42.1643 13.4782 42.0843 13.4448C42.0029 13.4115 41.8949 13.3955 41.7616 13.3955H41.4403V15.0248ZM41.4403 12.7515H41.7696C42.0123 12.7515 42.1749 12.6915 42.2589 12.5688C42.3416 12.4475 42.3843 12.2702 42.3843 12.0368C42.3843 11.8075 42.3376 11.6368 42.2443 11.5222C42.1509 11.4075 41.9829 11.3502 41.7403 11.3502H41.4403V12.7515ZM40.7109 10.6635H41.7763C42.0096 10.6635 42.2083 10.6995 42.3736 10.7715C42.5376 10.8435 42.6723 10.9382 42.7763 11.0568C42.8816 11.1768 42.9563 11.3142 43.0016 11.4688C43.0469 11.6235 43.0696 11.7835 43.0696 11.9515V12.1368C43.0696 12.2755 43.0589 12.3915 43.0376 12.4875C43.0163 12.5822 42.9843 12.6662 42.9416 12.7368C42.8976 12.8088 42.8456 12.8715 42.7843 12.9262C42.7216 12.9808 42.6509 13.0328 42.5696 13.0808C42.7416 13.1608 42.8669 13.2822 42.9483 13.4408C43.0296 13.6008 43.0696 13.8142 43.0696 14.0808V14.3675C43.0696 14.8155 42.9616 15.1582 42.7443 15.3968C42.5283 15.6355 42.1816 15.7542 41.7043 15.7542H40.7109V10.6635Z" fill="#121617"/>
<path d="M46.209 10.664H46.9383V15.7533H46.209V10.664Z" fill="#121617"/>
<path d="M46.209 9.14803H46.9383V10.0094H46.209V9.14803Z" fill="#121617"/>
<path d="M50.0762 10.664H50.8055V15.0254H52.2495V15.7534H50.0762V10.664Z" fill="#121617"/>
<path d="M55.1514 10.664H55.8807V12.988H55.8954L56.9594 10.664H57.6887L56.6954 12.7014L57.8754 15.7534H57.1034L56.274 13.4947L55.8807 14.2307V15.7534H55.1514V10.664Z" fill="#121617"/>
<path d="M60.627 10.664H62.8003V11.3507H61.3563V12.844H62.6136V13.5307H61.3563V15.0254H62.8003V15.7534H60.627V10.664Z" fill="#121617"/>
<path d="M65.6738 10.664H66.3752L67.4752 13.7307H67.4898V10.664H68.2192V15.7534H67.5325L66.4178 12.6947H66.4032V15.7534H65.6738V10.664Z" fill="#121617"/>
<path d="M71.7854 11.3504H70.9414V10.6637H73.3587V11.3504H72.5147V15.7544H71.7854V11.3504Z" fill="#121617"/>
<path d="M40.7109 52.304H41.4403V54.484H42.3403V52.304H43.0696V57.3934H42.3403V55.128H41.4403V57.3934H40.7109V52.304Z" fill="#121617"/>
<path d="M46.8739 56.1928C46.8739 56.3688 46.9219 56.4995 47.0205 56.5822C47.1179 56.6662 47.2339 56.7075 47.3672 56.7075C47.5005 56.7075 47.6165 56.6662 47.7139 56.5822C47.8112 56.4995 47.8605 56.3688 47.8605 56.1928V53.5048C47.8605 53.3288 47.8112 53.1995 47.7139 53.1155C47.6165 53.0315 47.5005 52.9902 47.3672 52.9902C47.2339 52.9902 47.1179 53.0315 47.0205 53.1155C46.9219 53.1995 46.8739 53.3288 46.8739 53.5048V56.1928ZM46.1445 53.5048C46.1445 53.3008 46.1805 53.1195 46.2512 52.9622C46.3232 52.8048 46.4179 52.6742 46.5339 52.5728C46.6512 52.4702 46.7819 52.3928 46.9272 52.3395C47.0725 52.2875 47.2192 52.2608 47.3672 52.2608C47.5152 52.2608 47.6605 52.2875 47.8072 52.3395C47.9525 52.3928 48.0832 52.4702 48.1992 52.5728C48.3165 52.6742 48.4112 52.8048 48.4819 52.9622C48.5539 53.1195 48.5899 53.3008 48.5899 53.5048V56.1928C48.5899 56.4022 48.5539 56.5848 48.4819 56.7395C48.4112 56.8942 48.3165 57.0235 48.1992 57.1262C48.0832 57.2288 47.9525 57.3062 47.8072 57.3582C47.6605 57.4102 47.5152 57.4368 47.3672 57.4368C47.2192 57.4368 47.0725 57.4102 46.9272 57.3582C46.7819 57.3062 46.6512 57.2288 46.5339 57.1262C46.4179 57.0235 46.3232 56.8942 46.2512 56.7395C46.1805 56.5848 46.1445 56.4022 46.1445 56.1928V53.5048Z" fill="#121617"/>
<path d="M51.6631 52.304H52.3924V56.6654H53.8364V57.3934H51.6631V52.304Z" fill="#121617"/>
<path d="M57.4676 56.7078H57.8036C58.0089 56.7078 58.1543 56.6571 58.2396 56.5544C58.3249 56.4518 58.3676 56.2904 58.3676 56.0718V53.6198C58.3676 53.4198 58.3276 53.2651 58.2463 53.1544C58.1663 53.0451 58.0183 52.9904 57.8036 52.9904H57.4676V56.7078ZM56.7383 52.3038H57.8183C58.2329 52.3038 58.5489 52.4198 58.7689 52.6504C58.9876 52.8824 59.0969 53.2051 59.0969 53.6198V55.9998C59.0969 56.4758 58.9823 56.8278 58.7503 57.0544C58.5196 57.2811 58.1876 57.3944 57.7529 57.3944H56.7383V52.3038Z" fill="#121617"/>
<path d="M62.2354 52.304H62.9647V57.3933H62.2354V52.304Z" fill="#121617"/>
<path d="M62.2354 51.056H62.9647V51.8654H62.2354V51.056Z" fill="#121617"/>
<path d="M66.0742 52.304H66.7756L67.8756 55.3707H67.8902V52.304H68.6196V57.3934H67.9329L66.8182 54.3347H66.8036V57.3934H66.0742V52.304Z" fill="#121617"/>
<path d="M71.6641 53.5053C71.6641 53.2999 71.7001 53.1186 71.7721 52.9626C71.8427 52.8039 71.9374 52.6746 72.0534 52.5719C72.1707 52.4693 72.3014 52.3919 72.4467 52.3399C72.5921 52.2879 72.7387 52.2613 72.8867 52.2613C73.0347 52.2613 73.1801 52.2879 73.3267 52.3399C73.4721 52.3919 73.6027 52.4693 73.7201 52.5719C73.8361 52.6746 73.9307 52.8039 74.0014 52.9626C74.0734 53.1186 74.1094 53.2999 74.1094 53.5053V53.7626H73.3801V53.5053C73.3801 53.3293 73.3307 53.1986 73.2334 53.1159C73.1347 53.0319 73.0201 52.9906 72.8867 52.9906C72.7534 52.9906 72.6374 53.0319 72.5401 53.1159C72.4414 53.1986 72.3934 53.3293 72.3934 53.5053V56.1933C72.3934 56.3693 72.4414 56.4999 72.5401 56.5826C72.6374 56.6653 72.7534 56.7079 72.8867 56.7079C73.0201 56.7079 73.1347 56.6653 73.2334 56.5826C73.3307 56.4999 73.3801 56.3693 73.3801 56.1933V55.2346H72.8001V54.5919H74.1094V56.1933C74.1094 56.4026 74.0734 56.5853 74.0014 56.7399C73.9307 56.8946 73.8361 57.0226 73.7201 57.1266C73.6027 57.2279 73.4721 57.3053 73.3267 57.3586C73.1801 57.4106 73.0347 57.4373 72.8867 57.4373C72.7387 57.4373 72.5921 57.4106 72.4467 57.3586C72.3014 57.3053 72.1707 57.2279 72.0534 57.1266C71.9374 57.0226 71.8427 56.8946 71.7721 56.7399C71.7001 56.5853 71.6641 56.4026 71.6641 56.1933V53.5053Z" fill="#121617"/>
<path d="M58.6478 34.7394H51.7012V49.0274H58.6478C62.3785 49.0274 65.4025 46.0047 65.4025 42.274V41.494C65.4025 37.7634 62.3785 34.7394 58.6478 34.7394Z" fill="#9F1C20"/>
<path d="M58.6478 18.7403H51.7012V33.0283H58.6478C62.3785 33.0283 65.4025 30.0057 65.4025 26.275V25.495C65.4025 21.7643 62.3785 18.7403 58.6478 18.7403Z" fill="#9F1C20"/>
<path d="M40.3682 18.754V49.014C43.9708 48.87 46.8495 45.9114 46.8495 42.274V25.4954C46.8495 21.8567 43.9708 18.898 40.3682 18.754Z" fill="#9F1C20"/>
<path d="M74.4227 49.0143V18.7543C70.8201 18.8983 67.9414 21.8569 67.9414 25.4943V42.2729C67.9414 45.9116 70.8201 48.8703 74.4227 49.0143Z" fill="#9F1C20"/>
</svg>
