<svg width="115" height="67" viewBox="0 0 115 67" fill="none" xmlns="http://www.w3.org/2000/svg">
<path d="M56.3165 36.5673H55.7525H55.1885V25.326H56.0418H56.9031L61.0165 35.046H61.0098L65.1231 25.326H65.9765H66.8378V36.5673H66.2738H65.7098V26.6393H65.7125L61.5111 36.5673H61.0125H60.5165L56.3138 26.6393H56.3165V36.5673Z" fill="#19171C"/>
<path d="M78.0161 34.3596C78.9441 33.433 79.4067 32.2956 79.4067 30.9503C79.4067 29.6036 78.9441 28.4676 78.0161 27.537C77.0881 26.6063 75.9494 26.1423 74.5987 26.1423C73.2534 26.1423 72.1161 26.6063 71.1854 27.537C70.2561 28.4676 69.7907 29.6036 69.7907 30.9503C69.7907 32.2956 70.2561 33.433 71.1854 34.3596C72.1161 35.2876 73.2534 35.7503 74.5987 35.7503C75.9494 35.7503 77.0881 35.2876 78.0161 34.3596ZM70.3774 35.0756C69.2254 33.953 68.6494 32.5783 68.6494 30.9503C68.6494 29.3236 69.2254 27.9463 70.3774 26.821C71.5294 25.6956 72.9374 25.133 74.5987 25.133C76.2667 25.133 77.6747 25.6956 78.8254 26.821C79.9747 27.9463 80.5507 29.3236 80.5507 30.9503C80.5507 32.5783 79.9747 33.953 78.8254 35.0756C77.6747 36.1983 76.2667 36.7596 74.5987 36.7596C72.9374 36.7596 71.5294 36.1983 70.3774 35.0756Z" fill="#19171C"/>
<path d="M83.4591 35.5584H85.7964C86.5924 35.5584 87.2151 35.3651 87.6617 34.9798C88.1097 34.5931 88.3337 34.0571 88.3337 33.3691C88.3337 32.6811 88.0871 32.1438 87.5951 31.7558C87.1031 31.3664 86.4217 31.1718 85.5511 31.1718H83.4591V35.5584ZM83.4591 30.1638H85.4404C86.1417 30.1638 86.6924 29.9958 87.0911 29.6598C87.4884 29.3238 87.6884 28.8558 87.6884 28.2571C87.6884 27.6531 87.4751 27.1824 87.0497 26.8438C86.6244 26.5051 86.0337 26.3358 85.2764 26.3358H83.4591V30.1638ZM82.3311 25.3251H82.8951H85.2764C86.3897 25.3251 87.2604 25.5798 87.8884 26.0864C88.5164 26.5931 88.8311 27.2944 88.8311 28.1904C88.8311 29.0851 88.5164 29.7851 87.8884 30.2904C87.7791 30.3784 87.6577 30.4611 87.5244 30.5344C87.8711 30.6784 88.1751 30.8531 88.4377 31.0611C89.1297 31.6198 89.4764 32.3998 89.4764 33.3984C89.4764 34.3931 89.1511 35.1691 88.5004 35.7291C87.8497 36.2878 86.9484 36.5678 85.7964 36.5678H82.8951H82.3311V25.3251Z" fill="#19171C"/>
<path d="M91.0859 25.3258H91.6499H92.2139V36.5671H91.6499H91.0859V25.3258Z" fill="#19171C"/>
<path d="M25.6419 27.7432H21.3726V36.5579H18.6766V27.7432H14.4072V25.3232H25.6419V27.7432Z" fill="#DB262F"/>
<path d="M29.2187 31.2859H31.5C32.416 31.2859 33.176 30.6819 33.176 29.7472C33.176 28.8312 32.4334 28.0886 31.5174 28.0886H29.2187V31.2859ZM33.0387 36.5566L31.1894 33.7579H29.2187V36.5566H26.4707V25.3232H31.932C34.2307 25.3232 35.9587 27.2926 35.9587 29.7472C35.9587 31.3726 35.1467 32.5299 33.9547 33.1699L36.4254 36.5566H33.0387Z" fill="#DB262F"/>
<path d="M40.4743 36.5573H37.7783V25.3227H40.4743V36.5573Z" fill="#DB262F"/>
<path d="M50.7887 30.9578C50.7887 29.1258 49.302 27.6218 47.47 27.6218C45.6207 27.6218 44.1353 29.1258 44.1353 30.9578C44.1353 32.7898 45.6207 34.2751 47.47 34.2751C49.302 34.2751 50.7887 32.7898 50.7887 30.9578ZM53.3807 30.9578C53.3807 34.2244 50.7367 36.8684 47.47 36.8684C44.186 36.8684 41.542 34.2244 41.542 30.9578C41.542 27.6911 44.186 25.0298 47.47 25.0298C50.7367 25.0298 53.3807 27.6911 53.3807 30.9578Z" fill="#DB262F"/>
<path d="M94.6104 36.5674V25.326H95.1744H95.7384V35.55H100.384V36.0554V36.5674H94.6104Z" fill="#19171C"/>
</svg>
