<svg width="115" height="67" viewBox="0 0 115 67" fill="none" xmlns="http://www.w3.org/2000/svg">
<path d="M18.6768 30.0669C18.6768 28.8376 18.8821 27.7376 19.2914 26.7669C19.7021 25.7936 20.2541 24.9709 20.9488 24.2963C21.6448 23.6216 22.4608 23.1043 23.4008 22.7483C24.3394 22.3909 25.3354 22.2123 26.3928 22.2123C27.4488 22.2123 28.4461 22.3909 29.3848 22.7483C30.3234 23.1043 31.1408 23.6216 31.8354 24.2963C32.5301 24.9709 33.0834 25.7936 33.4928 26.7669C33.9034 27.7376 34.1074 28.8376 34.1074 30.0669C34.1074 31.2963 33.9034 32.3963 33.4928 33.3669C33.0834 34.3376 32.5301 35.1616 31.8354 35.8363C31.1408 36.5123 30.3234 37.0283 29.3848 37.3856C28.4461 37.7416 27.4488 37.9203 26.3928 37.9203C25.3354 37.9203 24.3394 37.7416 23.4008 37.3856C22.4608 37.0283 21.6448 36.5123 20.9488 35.8363C20.2541 35.1616 19.7021 34.3376 19.2914 33.3669C18.8821 32.3963 18.6768 31.2963 18.6768 30.0669ZM20.8874 30.0669C20.8874 30.9923 21.0114 31.8789 21.2621 32.7296C21.5114 33.5803 21.8741 34.3269 22.3461 34.9723C22.8181 35.6176 23.3954 36.1336 24.0781 36.5203C24.7594 36.9069 25.5301 37.1016 26.3928 37.1016C27.2541 37.1016 28.0248 36.9069 28.7088 36.5203C29.3874 36.1336 29.9648 35.6176 30.4381 34.9723C30.9114 34.3269 31.2728 33.5803 31.5221 32.7296C31.7728 31.8789 31.8981 30.9923 31.8981 30.0669C31.8981 29.1403 31.7728 28.2523 31.5221 27.4029C31.2728 26.5536 30.9114 25.8069 30.4381 25.1603C29.9648 24.5163 29.3874 24.0003 28.7088 23.6136C28.0248 23.2256 27.2541 23.0323 26.3928 23.0323C25.5301 23.0323 24.7594 23.2256 24.0781 23.6136C23.3954 24.0003 22.8181 24.5163 22.3461 25.1603C21.8741 25.8069 21.5114 26.5536 21.2621 27.4029C21.0114 28.2523 20.8874 29.1403 20.8874 30.0669Z" fill="#19171C"/>
<path d="M26.3925 38.3829C25.2859 38.3829 24.2232 38.1922 23.2352 37.8176C22.2432 37.4402 21.3645 36.8856 20.6272 36.1682C19.8912 35.4536 19.2992 34.5722 18.8659 33.5469C18.4339 32.5242 18.2139 31.3522 18.2139 30.0669C18.2139 28.7802 18.4339 27.6096 18.8659 26.5856C19.2992 25.5616 19.8912 24.6789 20.6272 23.9642C21.3645 23.2482 22.2432 22.6936 23.2352 22.3162C24.2232 21.9416 25.2859 21.7496 26.3925 21.7496C27.5005 21.7496 28.5619 21.9416 29.5499 22.3162C30.5432 22.6936 31.4192 23.2482 32.1579 23.9642C32.8952 24.6789 33.4872 25.5616 33.9192 26.5856C34.3525 27.6109 34.5712 28.7816 34.5712 30.0669C34.5712 31.3522 34.3525 32.5229 33.9192 33.5469C33.4872 34.5722 32.8952 35.4536 32.1579 36.1682C31.4192 36.8856 30.5432 37.4402 29.5499 37.8176C28.5619 38.1922 27.5005 38.3829 26.3925 38.3829ZM28.2032 22.8736C28.4579 22.9656 28.7019 23.0776 28.9365 23.2109C29.6712 23.6296 30.3019 24.1922 30.8112 24.8882C31.3125 25.5736 31.7019 26.3762 31.9659 27.2722C32.2285 28.1616 32.3605 29.1016 32.3605 30.0669C32.3605 31.0322 32.2285 31.9722 31.9659 32.8602C31.7019 33.7576 31.3125 34.5602 30.8112 35.2456C30.3019 35.9402 29.6712 36.5042 28.9365 36.9229C28.7019 37.0549 28.4579 37.1669 28.2032 37.2589C28.5512 37.1802 28.8912 37.0776 29.2219 36.9536C30.0952 36.6202 30.8672 36.1336 31.5125 35.5056C32.1605 34.8776 32.6832 34.0976 33.0685 33.1882C33.4525 32.2776 33.6459 31.2269 33.6459 30.0669C33.6459 28.9069 33.4525 27.8562 33.0672 26.9456C32.6832 26.0362 32.1605 25.2562 31.5125 24.6282C30.8672 24.0002 30.0952 23.5122 29.2219 23.1802C28.8912 23.0549 28.5512 22.9522 28.2032 22.8736ZM24.5805 22.8736C24.2339 22.9522 23.8925 23.0549 23.5645 23.1802C22.6899 23.5122 21.9179 24.0002 21.2725 24.6282C20.6245 25.2562 20.1019 26.0362 19.7179 26.9456C19.3339 27.8549 19.1392 28.9042 19.1392 30.0669C19.1392 31.2282 19.3339 32.2789 19.7179 33.1882C20.1019 34.0976 20.6245 34.8776 21.2725 35.5056C21.9179 36.1336 22.6899 36.6202 23.5645 36.9536C23.8925 37.0776 24.2339 37.1802 24.5805 37.2589C24.3272 37.1669 24.0832 37.0549 23.8485 36.9229C23.1139 36.5042 22.4832 35.9402 21.9739 35.2456C21.4712 34.5616 21.0832 33.7576 20.8192 32.8602C20.5579 31.9722 20.4245 31.0322 20.4245 30.0669C20.4245 29.1016 20.5579 28.1616 20.8192 27.2722C21.0832 26.3762 21.4712 25.5722 21.9739 24.8882C22.4832 24.1922 23.1139 23.6296 23.8485 23.2109C24.0832 23.0776 24.3272 22.9656 24.5805 22.8736ZM26.3925 23.4949C25.6152 23.4949 24.9139 23.6696 24.3072 24.0149C23.6845 24.3669 23.1512 24.8456 22.7205 25.4349C22.2805 26.0322 21.9405 26.7389 21.7059 27.5336C21.4699 28.3376 21.3499 29.1896 21.3499 30.0669C21.3499 30.9442 21.4699 31.7962 21.7059 32.5989C21.9405 33.3936 22.2805 34.1002 22.7205 34.6989C23.1512 35.2882 23.6845 35.7642 24.3059 36.1176C24.9139 36.4642 25.6152 36.6376 26.3925 36.6376C27.1699 36.6376 27.8725 36.4642 28.4792 36.1176C29.1005 35.7642 29.6339 35.2882 30.0645 34.6989C30.5045 34.1002 30.8459 33.3936 31.0792 32.5989C31.3165 31.7962 31.4365 30.9442 31.4365 30.0669C31.4365 29.1896 31.3165 28.3376 31.0792 27.5336C30.8459 26.7402 30.5045 26.0336 30.0645 25.4349C29.6339 24.8456 29.1005 24.3669 28.4792 24.0149C27.8725 23.6696 27.1699 23.4949 26.3925 23.4949Z" fill="#19171C"/>
<path d="M49.8535 22.8501C48.9775 23.9581 48.0815 25.1235 47.1628 26.3448C46.2455 27.5661 45.3495 28.7888 44.4735 30.0101C43.5975 31.2315 42.7562 32.4155 41.9508 33.5608C41.1442 34.7061 40.4068 35.7648 39.7388 36.7368C39.9482 36.7968 40.2335 36.8355 40.5935 36.8515C40.9548 36.8661 41.4495 36.8728 42.0748 36.8728C42.8815 36.8728 43.6668 36.8128 44.4308 36.6915C45.1948 36.5701 45.9042 36.3461 46.5588 36.0195C47.2108 35.6928 47.7882 35.2421 48.2882 34.6661C48.7908 34.0888 49.1855 33.3515 49.4775 32.4568H49.8948L48.3108 37.5568C47.0855 37.5248 45.8668 37.5021 44.6508 37.4875C43.4335 37.4715 42.2135 37.4648 40.9895 37.4648C40.3508 37.4648 39.7135 37.4715 39.0828 37.4875C38.4495 37.5021 37.8135 37.5248 37.1748 37.5568L37.0068 37.2821L47.1628 23.2608H44.3695C43.7575 23.2608 43.1455 23.3181 42.5335 23.4315C41.9215 23.5448 41.3588 23.7461 40.8442 24.0341C40.3295 24.3221 39.8922 24.7128 39.5308 25.2061C39.1682 25.6995 38.9255 26.3261 38.8002 27.0848H38.5095C38.4948 26.8115 38.4975 26.5381 38.5202 26.2648C38.5402 25.9915 38.5508 25.7275 38.5508 25.4688C38.5508 24.9821 38.5722 24.5008 38.6135 24.0221C38.6548 23.5448 38.7095 23.0621 38.7802 22.5768C39.2108 22.5928 39.6668 22.6075 40.1455 22.6235C40.6255 22.6381 41.0988 22.6501 41.5642 22.6568C42.0295 22.6648 42.4788 22.6688 42.9082 22.6688H44.0975C45.0562 22.6688 45.9922 22.6621 46.9015 22.6461C47.8135 22.6315 48.7482 22.6075 49.7068 22.5768L49.8535 22.8501Z" fill="#19171C"/>
<path d="M37.1741 38.0181C37.0141 38.0181 36.8648 37.9341 36.7794 37.7968L36.6128 37.5235C36.5154 37.3635 36.5234 37.1635 36.6328 37.0115L46.2568 23.7221H44.3688C43.7874 23.7221 43.1994 23.7768 42.6181 23.8861C42.0608 23.9888 41.5394 24.1755 41.0701 24.4381C40.6168 24.6915 40.2248 25.0421 39.9034 25.4795C39.5874 25.9115 39.3701 26.4768 39.2568 27.1595C39.2194 27.3835 39.0274 27.5461 38.8008 27.5461H38.5088C38.2634 27.5461 38.0594 27.3541 38.0474 27.1075C38.0328 26.8168 38.0354 26.5208 38.0581 26.2301C38.0781 25.9701 38.0874 25.7141 38.0874 25.4675C38.0874 24.9715 38.1101 24.4715 38.1528 23.9821C38.1954 23.4928 38.2528 22.9995 38.3221 22.5115C38.3554 22.2768 38.5541 22.1035 38.7968 22.1141C39.2261 22.1301 39.6821 22.1461 40.1594 22.1595C40.6381 22.1755 41.1074 22.1861 41.5714 22.1941C42.0354 22.2021 42.4808 22.2061 42.9088 22.2061H44.0981C45.0581 22.2061 45.9994 22.1981 46.8941 22.1835C47.7981 22.1688 48.7368 22.1461 49.6928 22.1141C49.8648 22.1088 50.0314 22.2035 50.1154 22.3595L50.2608 22.6328C50.3488 22.7941 50.3314 22.9928 50.2168 23.1368C49.3488 24.2355 48.4448 25.4088 47.5328 26.6221C46.6248 27.8315 45.7208 29.0621 44.8488 30.2795C43.9608 31.5181 43.1128 32.7115 42.3274 33.8275C41.6968 34.7235 41.0981 35.5808 40.5421 36.3848L40.6128 36.3888C40.9634 36.4035 41.4554 36.4115 42.0741 36.4115C42.8541 36.4115 43.6221 36.3515 44.3594 36.2341C45.0728 36.1221 45.7434 35.9101 46.3514 35.6048C46.9488 35.3088 47.4821 34.8888 47.9408 34.3621C48.3968 33.8341 48.7661 33.1448 49.0381 32.3141C49.0994 32.1235 49.2768 31.9941 49.4781 31.9941H49.8954C50.0434 31.9941 50.1808 32.0635 50.2674 32.1821C50.3541 32.3008 50.3808 32.4541 50.3368 32.5941L48.7514 37.6941C48.6901 37.8901 48.5061 38.0261 48.2994 38.0181C47.0794 37.9875 45.8501 37.9648 44.6448 37.9501C43.4474 37.9341 42.2181 37.9261 40.9901 37.9261C40.3514 37.9261 39.7141 37.9341 39.0941 37.9501C38.4688 37.9648 37.8301 37.9875 37.1968 38.0168L37.1741 38.0181ZM45.0981 37.0301C46.0488 37.0435 47.0141 37.0621 47.9728 37.0848L48.6248 34.9821C48.0901 35.5955 47.4648 36.0835 46.7661 36.4328C46.2448 36.6928 45.6861 36.8928 45.0981 37.0301ZM47.5954 23.0955C47.6501 23.2408 47.6288 23.4035 47.5368 23.5315L37.7341 37.0688C38.1821 37.0501 38.6301 37.0355 39.0701 37.0248C39.1714 37.0235 39.2714 37.0208 39.3728 37.0181C39.3448 36.9808 39.3208 36.9368 39.3034 36.8915C39.2541 36.7515 39.2741 36.5968 39.3581 36.4741C40.0301 35.4968 40.7754 34.4261 41.5714 33.2955C42.3568 32.1768 43.2074 30.9808 44.0968 29.7395C44.9728 28.5195 45.8808 27.2835 46.7928 26.0661C47.5754 25.0261 48.3501 24.0168 49.1008 23.0581C48.5928 23.0728 48.0888 23.0848 47.5954 23.0955ZM39.1821 23.0528C39.1394 23.3901 39.1034 23.7275 39.0741 24.0635C39.0434 24.4181 39.0234 24.7795 39.0154 25.1395C39.0621 25.0688 39.1088 25.0008 39.1581 24.9328C39.5581 24.3888 40.0488 23.9501 40.6181 23.6301C40.9968 23.4181 41.4034 23.2488 41.8314 23.1235C41.7394 23.1221 41.6488 23.1208 41.5554 23.1195C41.0874 23.1115 40.6128 23.1008 40.1301 23.0848C39.8034 23.0741 39.4874 23.0635 39.1821 23.0528Z" fill="#19171C"/>
<path d="M61.9888 26.2107C61.8288 26.076 61.5301 25.7 61.3754 25.456C61.0781 24.9867 60.7608 24.5547 60.3848 24.1814C60.0088 23.8107 59.5928 23.5107 59.1341 23.2827C58.6754 23.0547 58.1754 22.9414 57.6328 22.9414C56.8408 22.9414 56.1901 23.1014 55.6821 23.42C55.1741 23.7387 54.9208 24.308 54.9208 25.1267C54.9208 25.6134 55.0368 26.0334 55.2648 26.3907C55.4941 26.7467 55.8008 27.0614 56.1821 27.3347C56.5661 27.608 56.9994 27.8587 57.4861 28.0867C57.9728 28.3134 58.4701 28.5454 58.9768 28.78C59.4848 29.016 59.9821 29.2707 60.4688 29.544C60.9554 29.8174 61.3888 30.1427 61.7728 30.5227C62.1541 30.9014 62.4594 31.3414 62.6888 31.8427C62.9181 32.3427 63.0328 32.9427 63.0328 33.6414C63.0328 34.384 62.9074 35.0254 62.6581 35.564C62.4088 36.1027 62.0701 36.5467 61.6461 36.896C61.2221 37.2454 60.7288 37.5027 60.1661 37.6694C59.6034 37.836 59.0008 37.92 58.3621 37.92C58.0141 37.92 57.6528 37.884 57.2768 37.8147C56.9034 37.744 56.5408 37.6654 56.1928 37.5787C55.8461 37.492 55.5288 37.4134 55.2434 37.344C54.9594 37.2734 54.7341 37.2374 54.5674 37.2374C54.4141 37.2374 54.2674 37.264 54.1288 37.3174C53.9901 37.3694 53.8434 37.4267 53.6901 37.488C53.5661 36.6254 53.4194 35.7827 53.2528 34.9587C53.0861 34.1374 52.9128 33.2947 52.7314 32.4334L53.0021 32.2747C53.2528 32.804 53.5554 33.3547 53.9101 33.9294C54.2648 34.504 54.6634 35.028 55.1088 35.5027C55.5528 35.98 56.0434 36.376 56.5794 36.6934C57.1141 37.0107 57.6941 37.1694 58.3194 37.1694C58.7234 37.1694 59.1128 37.12 59.4888 37.0214C59.8634 36.9227 60.1941 36.7667 60.4794 36.556C60.7634 36.344 60.9901 36.0667 61.1568 35.7254C61.3234 35.3854 61.4074 34.964 61.4074 34.464C61.4074 33.752 61.2048 33.1574 60.8021 32.68C60.3981 32.2027 59.8981 31.7854 59.3008 31.4294C58.7034 31.0734 58.0528 30.744 57.3501 30.4414C56.6474 30.1387 55.9981 29.796 55.4008 29.4174C54.8021 29.0387 54.3021 28.5934 53.8994 28.0774C53.4954 27.5627 53.2941 26.9107 53.2941 26.1227C53.2941 25.532 53.3981 24.9934 53.6074 24.508C53.8154 24.024 54.0981 23.612 54.4514 23.2694C54.8061 22.9294 55.2168 22.668 55.6821 22.4854C56.1474 22.3054 56.6448 22.2134 57.1741 22.2134C57.6874 22.2134 58.1501 22.2507 58.5608 22.3267C58.9701 22.4027 59.3701 22.4867 59.7594 22.5774C60.1608 22.668 60.5594 22.756 60.9474 22.8387C61.3368 22.9227 61.7528 22.964 62.1994 22.964C62.1994 23.6467 62.2101 24.3107 62.2314 24.956C62.2514 25.6014 62.2701 25.7374 62.2794 26.2107H61.9888Z" fill="#19171C"/>
<path d="M58.3618 38.3829C57.9885 38.3829 57.5938 38.3456 57.1925 38.2682C56.8098 38.1962 56.4365 38.1149 56.0818 38.0282L55.1325 37.7922C54.8232 37.7149 54.6538 37.7002 54.5672 37.7002C54.4698 37.7002 54.3805 37.7149 54.2938 37.7482C54.1565 37.8016 54.0112 37.8576 53.8605 37.9176C53.7298 37.9696 53.5818 37.9589 53.4592 37.8869C53.3365 37.8176 53.2525 37.6949 53.2325 37.5536C53.1098 36.7029 52.9632 35.8616 52.7992 35.0522C52.6325 34.2296 52.4592 33.3882 52.2792 32.5282C52.2392 32.3336 52.3258 32.1349 52.4978 32.0349L52.7698 31.8762C52.8818 31.8109 53.0152 31.7949 53.1392 31.8322C53.2632 31.8709 53.3645 31.9602 53.4205 32.0762C53.6618 32.5869 53.9592 33.1282 54.3032 33.6856C54.6405 34.2309 55.0245 34.7376 55.4458 35.1869C55.8578 35.6282 56.3178 36.0016 56.8138 36.2949C57.2818 36.5722 57.7738 36.7069 58.3192 36.7069C58.6818 36.7069 59.0352 36.6629 59.3698 36.5749C59.6858 36.4909 59.9672 36.3602 60.2018 36.1842C60.4298 36.0149 60.6058 35.7989 60.7418 35.5216C60.8765 35.2469 60.9432 34.8909 60.9432 34.4642C60.9432 33.8589 60.7832 33.3736 60.4472 32.9776C60.0805 32.5429 59.6138 32.1562 59.0632 31.8269C58.4845 31.4829 57.8472 31.1589 57.1672 30.8656C56.4458 30.5536 55.7672 30.1989 55.1525 29.8096C54.5125 29.4029 53.9685 28.9162 53.5338 28.3616C53.0685 27.7669 52.8325 27.0136 52.8325 26.1229C52.8325 25.4709 52.9498 24.8669 53.1818 24.3269C53.4152 23.7856 53.7338 23.3189 54.1312 22.9362C54.5285 22.5562 54.9938 22.2576 55.5138 22.0549C56.0312 21.8536 56.5898 21.7496 57.1738 21.7496C57.7125 21.7496 58.2085 21.7922 58.6445 21.8722C59.0632 21.9496 59.4725 22.0362 59.8645 22.1269C60.2618 22.2162 60.6565 22.3042 61.0445 22.3869C61.3992 22.4629 61.7872 22.5016 62.1992 22.5016C62.4552 22.5016 62.6605 22.7096 62.6605 22.9642C62.6605 23.6362 62.6725 24.3016 62.6912 24.9402C62.7018 25.2416 62.7125 25.4296 62.7192 25.5949C62.7298 25.7856 62.7365 25.9456 62.7432 26.2016C62.7445 26.3256 62.6978 26.4469 62.6098 26.5349C62.5232 26.6242 62.4032 26.6736 62.2792 26.6736H61.9885C61.8778 26.6736 61.7725 26.6349 61.6872 26.5629C61.4832 26.3882 61.1525 25.9696 60.9845 25.7042C60.6645 25.1976 60.3698 24.8189 60.0592 24.5109C59.7218 24.1749 59.3392 23.9016 58.9272 23.6962C58.5352 23.5016 58.1005 23.4042 57.6325 23.4042C56.9325 23.4042 56.3592 23.5402 55.9285 23.8109C55.5605 24.0416 55.3832 24.4709 55.3832 25.1256C55.3832 25.5256 55.4725 25.8562 55.6538 26.1402C55.8498 26.4456 56.1192 26.7216 56.4512 26.9589C56.8085 27.2149 57.2232 27.4522 57.6818 27.6669C58.1672 27.8949 58.6645 28.1256 59.1712 28.3602C59.6885 28.6016 60.2018 28.8629 60.6952 29.1389C61.2138 29.4309 61.6858 29.7856 62.0965 30.1936C62.5178 30.6109 62.8578 31.1016 63.1098 31.6496C63.3658 32.2082 63.4952 32.8789 63.4952 33.6402C63.4952 34.4496 63.3552 35.1616 63.0778 35.7589C62.7978 36.3589 62.4165 36.8616 61.9405 37.2522C61.4712 37.6389 60.9165 37.9296 60.2978 38.1136C59.6938 38.2922 59.0418 38.3829 58.3618 38.3829ZM54.5672 36.7749C54.7712 36.7749 55.0285 36.8136 55.3552 36.8936L56.3045 37.1309C56.3672 37.1456 56.4298 37.1616 56.4925 37.1749C56.4432 37.1482 56.3925 37.1202 56.3432 37.0909C55.7712 36.7522 55.2432 36.3242 54.7712 35.8189C54.3365 35.3549 53.9392 34.8402 53.5872 34.2856C53.6272 34.4816 53.6672 34.6749 53.7058 34.8682C53.8365 35.5136 53.9565 36.1789 54.0618 36.8509C54.2232 36.8002 54.3938 36.7749 54.5672 36.7749ZM54.9898 23.4122C54.9152 23.4722 54.8418 23.5376 54.7725 23.6029C54.4645 23.9002 54.2152 24.2656 54.0325 24.6922C53.8498 25.1162 53.7565 25.5976 53.7565 26.1229C53.7565 26.8109 53.9218 27.3562 54.2632 27.7922C54.6312 28.2629 55.0978 28.6802 55.6485 29.0282C56.2218 29.3909 56.8565 29.7242 57.5325 30.0162C58.2512 30.3269 58.9245 30.6682 59.5378 31.0336C60.1765 31.4136 60.7192 31.8682 61.1552 32.3816C61.6285 32.9416 61.8685 33.6442 61.8685 34.4642C61.8685 35.0336 61.7685 35.5256 61.5725 35.9296C61.3725 36.3349 61.0978 36.6709 60.7552 36.9269L60.7138 36.9576C60.9432 36.8389 61.1578 36.6989 61.3525 36.5376C61.7205 36.2349 62.0192 35.8429 62.2378 35.3696C62.4592 34.8949 62.5698 34.3136 62.5698 33.6402C62.5698 33.0122 62.4698 32.4722 62.2685 32.0349C62.0632 31.5869 61.7872 31.1882 61.4445 30.8496C61.0938 30.5016 60.6885 30.1976 60.2418 29.9469C59.7698 29.6816 59.2792 29.4296 58.7832 29.2002C58.2738 28.9642 57.7765 28.7336 57.2898 28.5056C56.7805 28.2669 56.3165 28.0002 55.9138 27.7109C55.4858 27.4042 55.1352 27.0456 54.8765 26.6402C54.5992 26.2096 54.4592 25.7002 54.4592 25.1256C54.4592 24.4016 54.6378 23.8269 54.9898 23.4122ZM59.6205 23.0202C60.0138 23.2456 60.3792 23.5256 60.7098 23.8522C61.0725 24.2122 61.4072 24.6429 61.7658 25.2096L61.7765 25.2269C61.7738 25.1509 61.7712 25.0656 61.7672 24.9709C61.7512 24.4642 61.7418 23.9416 61.7378 23.4109C61.4285 23.3922 61.1325 23.3509 60.8498 23.2922C60.4592 23.2069 60.0618 23.1202 59.6565 23.0282L59.6205 23.0202Z" fill="#19171C"/>
<path d="M67.9135 24.8761C67.9135 24.4521 67.8735 24.1215 67.7988 23.8868C67.7215 23.6508 67.6081 23.4641 67.4548 23.3281C67.3015 23.1921 67.1135 23.0935 66.8921 23.0321C66.6681 22.9721 66.4121 22.9121 66.1201 22.8495V22.5761C66.7041 22.6081 67.2775 22.6308 67.8401 22.6455C68.4028 22.6615 68.9761 22.6695 69.5601 22.6695C69.9788 22.6695 70.3908 22.6615 70.8015 22.6455C71.2108 22.6308 71.6241 22.6081 72.0428 22.5761V22.8495C71.5975 22.8961 71.2281 22.9721 70.9361 23.0775C70.6455 23.1841 70.4161 23.3361 70.2495 23.5335C70.0828 23.7295 69.9641 23.9841 69.8935 24.2961C69.8255 24.6068 69.7908 24.9908 69.7908 25.4441V32.8655C69.7908 33.5801 69.8975 34.1828 70.1135 34.6761C70.3281 35.1695 70.6241 35.5721 70.9988 35.8828C71.3748 36.1935 71.8095 36.4215 72.3028 36.5655C72.7961 36.7095 73.3215 36.7828 73.8775 36.7828C74.7668 36.7828 75.4975 36.6375 76.0668 36.3495C76.6375 36.0615 77.0895 35.7081 77.4228 35.2908C77.7575 34.8735 77.9855 34.4255 78.1108 33.9481C78.2361 33.4695 78.2975 33.0495 78.2975 32.6855V26.3095C78.2975 25.7041 78.2748 25.1921 78.2241 24.7735C78.1761 24.3575 78.0801 24.0148 77.9335 23.7495C77.7881 23.4841 77.5815 23.2828 77.3188 23.1468C77.0535 23.0095 76.7135 22.9121 76.2961 22.8495V22.5761C76.7281 22.6081 77.1548 22.6308 77.5788 22.6455C78.0028 22.6615 78.4308 22.6695 78.8601 22.6695C79.2228 22.6695 79.5761 22.6615 79.9241 22.6455C80.2721 22.6308 80.6268 22.6081 80.9895 22.5761V22.8495C80.6961 22.8961 80.4295 22.9575 80.1868 23.0321C79.9428 23.1095 79.7375 23.2455 79.5708 23.4415C79.4041 23.6388 79.2761 23.9241 79.1855 24.2961C79.0948 24.6681 79.0495 25.1721 79.0495 25.8095V32.6161C79.0495 33.5268 78.9001 34.3121 78.6001 34.9721C78.3028 35.6321 77.8948 36.1828 77.3815 36.6228C76.8668 37.0628 76.2641 37.3895 75.5775 37.6015C74.8895 37.8135 74.1548 37.9201 73.3775 37.9201C72.6681 37.9201 71.9868 37.8175 71.3321 37.6121C70.6788 37.4081 70.0988 37.0961 69.5908 36.6801C69.0841 36.2615 68.6775 35.7428 68.3721 35.1201C68.0655 34.4988 67.9135 33.7775 67.9135 32.9588V24.8761Z" fill="#19171C"/>
<path d="M73.3766 38.3829C72.6233 38.3829 71.8899 38.2722 71.1939 38.0536C70.4859 37.8322 69.8473 37.4896 69.2966 37.0362C68.7393 36.5789 68.2899 36.0029 67.9566 35.3229C67.6206 34.6429 67.4513 33.8456 67.4513 32.9562V24.8762C67.4513 24.4109 67.3993 24.1589 67.3579 24.0282C67.3073 23.8736 67.2353 23.7536 67.1446 23.6736C67.0459 23.5842 66.9233 23.5216 66.7673 23.4789C66.5539 23.4202 66.3033 23.3616 66.0246 23.3029C65.8099 23.2576 65.6553 23.0696 65.6553 22.8496V22.5762C65.6553 22.4496 65.7086 22.3282 65.8006 22.2416C65.8926 22.1549 66.0166 22.1096 66.1433 22.1162C66.7206 22.1456 67.2966 22.1696 67.8513 22.1829C68.7939 22.2096 69.8233 22.2189 70.7833 22.1829C71.1859 22.1696 71.5979 22.1469 72.0086 22.1162C72.1339 22.1056 72.2633 22.1509 72.3566 22.2389C72.4499 22.3256 72.5033 22.4482 72.5033 22.5762V22.8496C72.5033 23.0882 72.3246 23.2856 72.0886 23.3109C71.6859 23.3509 71.3499 23.4202 71.0926 23.5122C70.8806 23.5909 70.7139 23.6976 70.6006 23.8322C70.4833 23.9709 70.3979 24.1616 70.3446 24.3962C70.2833 24.6736 70.2513 25.0256 70.2513 25.4442V32.8656C70.2513 33.5122 70.3473 34.0602 70.5366 34.4909C70.7219 34.9162 70.9766 35.2629 71.2939 35.5269C71.6179 35.7949 72.0006 35.9962 72.4326 36.1216C72.8793 36.2536 73.3659 36.3202 73.8766 36.3202C74.6886 36.3202 75.3553 36.1909 75.8566 35.9362C76.3659 35.6802 76.7713 35.3656 77.0606 35.0029C77.3513 34.6376 77.5539 34.2442 77.6619 33.8309C77.7779 33.3936 77.8353 33.0069 77.8353 32.6856V26.3096C77.8353 25.7269 77.8113 25.2269 77.7659 24.8269C77.7233 24.4709 77.6433 24.1842 77.5273 23.9722C77.4259 23.7869 77.2873 23.6509 77.1033 23.5562C76.8873 23.4456 76.5939 23.3616 76.2286 23.3082C76.0019 23.2749 75.8339 23.0802 75.8339 22.8496V22.5762C75.8339 22.4482 75.8859 22.3269 75.9793 22.2389C76.0739 22.1509 76.2006 22.1069 76.3273 22.1162C76.7526 22.1469 77.1779 22.1696 77.5939 22.1829C78.3513 22.2109 79.1646 22.2162 79.9033 22.1829C80.2446 22.1696 80.5953 22.1469 80.9486 22.1162C81.0779 22.1042 81.2059 22.1496 81.3006 22.2362C81.3953 22.3242 81.4499 22.4482 81.4499 22.5762V22.8496C81.4499 23.0789 81.2833 23.2722 81.0579 23.3069C80.7926 23.3482 80.5433 23.4042 80.3233 23.4749C80.1633 23.5229 80.0326 23.6109 79.9219 23.7416C79.8046 23.8816 79.7059 24.1056 79.6326 24.4056C79.5526 24.7389 79.5113 25.2122 79.5113 25.8096V32.6162C79.5113 33.5882 79.3459 34.4442 79.0219 35.1629C78.6939 35.8829 78.2446 36.4922 77.6819 36.9736C77.1206 37.4536 76.4579 37.8122 75.7126 38.0442C74.9833 38.2682 74.1966 38.3829 73.3766 38.3829ZM67.8859 23.1096C68.0379 23.2829 68.1566 23.4936 68.2366 23.7429C68.3299 24.0296 68.3739 24.4002 68.3739 24.8762V32.9562C68.3739 33.7016 68.5126 34.3616 68.7859 34.9162C69.0593 35.4762 69.4299 35.9496 69.8846 36.3216C70.3433 36.7002 70.8766 36.9856 71.4699 37.1709C72.0766 37.3616 72.7166 37.4576 73.3766 37.4576C74.1046 37.4576 74.7993 37.3562 75.4393 37.1589C76.0646 36.9669 76.6153 36.6682 77.0793 36.2709C77.1126 36.2429 77.1433 36.2149 77.1753 36.1856C76.9113 36.4002 76.6099 36.5922 76.2753 36.7616C75.6419 37.0816 74.8353 37.2442 73.8766 37.2442C73.2779 37.2442 72.7046 37.1656 72.1726 37.0096C71.6193 36.8482 71.1273 36.5896 70.7033 36.2389C70.2726 35.8829 69.9326 35.4202 69.6886 34.8616C69.4486 34.3122 69.3259 33.6402 69.3259 32.8656V25.4442C69.3259 24.9509 69.3646 24.5416 69.4433 24.1949C69.5273 23.8122 69.6793 23.4882 69.8939 23.2349C69.9259 23.1976 69.9593 23.1629 69.9926 23.1282C69.2833 23.1362 68.5646 23.1282 67.8859 23.1096ZM78.0446 23.1216C78.1566 23.2416 78.2539 23.3762 78.3379 23.5269C78.4939 23.8109 78.6006 24.1509 78.6619 24.5602C78.6819 24.4269 78.7059 24.3016 78.7353 24.1856C78.8419 23.7402 78.9993 23.3989 79.2166 23.1442L79.2313 23.1282C78.8379 23.1336 78.4353 23.1309 78.0446 23.1216Z" fill="#19171C"/>
<path d="M86.5562 37.2822C87.0562 37.2369 87.4456 37.1529 87.7229 37.0316C88.0016 36.9102 88.2136 36.7209 88.3602 36.4636C88.5042 36.2049 88.5949 35.8676 88.6309 35.4502C88.6656 35.0329 88.6829 34.5049 88.6829 33.8689V23.3062C87.9442 23.3062 87.3309 23.3369 86.8362 23.3969C86.3429 23.4582 85.9162 23.6129 85.5549 23.8636C85.1922 24.1129 84.8762 24.4969 84.6056 25.0129C84.3336 25.5289 84.0669 26.2342 83.8029 27.1302L83.5322 27.0382L83.8242 22.5769C84.4069 22.6076 84.9842 22.6302 85.5549 22.6449C86.1242 22.6609 86.7029 22.6676 87.2856 22.6676H92.1856C92.7429 22.6676 93.2922 22.6609 93.8336 22.6449C94.3762 22.6302 94.9242 22.6076 95.4816 22.5769L95.7722 27.0382L95.5016 27.1302C95.2376 26.2342 94.9696 25.5289 94.6989 25.0129C94.4282 24.4969 94.1122 24.1129 93.7509 23.8636C93.3882 23.6129 92.9549 23.4582 92.4469 23.3969C91.9376 23.3369 91.3096 23.3062 90.5602 23.3062V33.8689C90.5602 34.5049 90.5776 35.0329 90.6122 35.4502C90.6456 35.8676 90.7362 36.2049 90.8829 36.4636C91.0296 36.7209 91.2469 36.9102 91.5389 37.0316C91.8309 37.1529 92.2349 37.2369 92.7496 37.2822V37.5556C92.2202 37.5249 91.6922 37.5022 91.1656 37.4889C90.6362 37.4716 90.1082 37.4649 89.5789 37.4649C89.0642 37.4649 88.5576 37.4716 88.0576 37.4889C87.5562 37.5022 87.0562 37.5249 86.5562 37.5556V37.2822Z" fill="#19171C"/>
<path d="M86.5569 38.0181C86.4383 38.0181 86.3263 37.9741 86.2396 37.8928C86.1463 37.8061 86.0929 37.6835 86.0929 37.5555V37.2821C86.0929 37.0435 86.2756 36.8435 86.5143 36.8221C86.9636 36.7808 87.3076 36.7088 87.5396 36.6088C87.7249 36.5275 87.8623 36.4048 87.9569 36.2355C88.0703 36.0368 88.1409 35.7608 88.1703 35.4115C88.2036 35.0061 88.2209 34.4875 88.2209 33.8688V23.7728C87.7076 23.7821 87.2609 23.8101 86.8943 23.8555C86.4783 23.9075 86.1169 24.0381 85.8183 24.2435C85.5223 24.4488 85.2516 24.7808 85.0169 25.2288C84.7596 25.7155 84.5009 26.3995 84.2476 27.2608C84.2116 27.3808 84.1289 27.4821 84.0169 27.5408C83.9049 27.5981 83.7769 27.6075 83.6569 27.5675L83.3849 27.4768C83.1863 27.4101 83.0569 27.2181 83.0703 27.0088L83.3636 22.5461C83.3796 22.2941 83.5983 22.1021 83.8476 22.1168C84.4289 22.1461 85.0063 22.1688 85.5676 22.1835C86.1249 22.1981 86.7049 22.2061 87.2863 22.2061H92.1863C92.7409 22.2061 93.2916 22.1981 93.8209 22.1835C94.3556 22.1688 94.9063 22.1461 95.4556 22.1168C95.7063 22.1008 95.9263 22.2941 95.9423 22.5461L96.2356 27.0088C96.2503 27.2181 96.1196 27.4101 95.9209 27.4768L95.6489 27.5675C95.5303 27.6075 95.4009 27.5981 95.2889 27.5408C95.1769 27.4821 95.0956 27.3808 95.0583 27.2608C94.8036 26.3981 94.5449 25.7141 94.2916 25.2275C94.0556 24.7808 93.7849 24.4488 93.4876 24.2435C93.1903 24.0381 92.8223 23.9075 92.3916 23.8555C92.0103 23.8101 91.5516 23.7821 91.0223 23.7728V33.8688C91.0223 34.4928 91.0396 35.0115 91.0743 35.4115C91.1036 35.7595 91.1729 36.0368 91.2863 36.2355C91.3809 36.4021 91.5223 36.5235 91.7183 36.6061C91.9636 36.7075 92.3249 36.7808 92.7916 36.8221C93.0303 36.8435 93.2129 37.0435 93.2129 37.2821V37.5555C93.2129 37.6821 93.1596 37.8061 93.0676 37.8915C92.9756 37.9795 92.8476 38.0248 92.7236 38.0168C92.2009 37.9861 91.6716 37.9648 91.1516 37.9488C90.1343 37.9208 89.0636 37.9195 88.0716 37.9488C87.5796 37.9648 87.0796 37.9861 86.5849 38.0168L86.5569 38.0181ZM89.5796 37.0035C89.9596 37.0035 90.3396 37.0061 90.7156 37.0141C90.6263 36.9168 90.5476 36.8088 90.4823 36.6901C90.3023 36.3741 90.1903 35.9715 90.1516 35.4888C90.1156 35.0635 90.0969 34.5181 90.0969 33.8688V23.3061C90.0969 23.2435 90.1103 23.1848 90.1329 23.1301H89.1116C89.1343 23.1848 89.1463 23.2435 89.1463 23.3061V33.8688C89.1463 34.5128 89.1276 35.0568 89.0916 35.4888C89.0503 35.9781 88.9436 36.3715 88.7623 36.6915C88.6956 36.8088 88.6196 36.9155 88.5316 37.0128C88.8756 37.0061 89.2276 37.0035 89.5796 37.0035ZM93.2996 23.1208C93.5583 23.2128 93.7983 23.3341 94.0143 23.4835C94.4356 23.7755 94.8036 24.2168 95.1103 24.7981C95.1303 24.8381 95.1503 24.8781 95.1729 24.9208L95.0503 23.0621C94.6449 23.0821 94.2409 23.0968 93.8463 23.1075C93.6663 23.1128 93.4849 23.1181 93.2996 23.1208ZM84.2556 23.0608L84.1343 24.9195C84.1556 24.8781 84.1769 24.8381 84.1969 24.7981C84.5036 24.2168 84.8716 23.7755 85.2929 23.4835C85.5089 23.3328 85.7489 23.2115 86.0049 23.1195C85.8503 23.1155 85.6956 23.1115 85.5423 23.1075C85.1209 23.0968 84.6903 23.0808 84.2556 23.0608Z" fill="#19171C"/>
<path d="M51.1405 43.9347C51.1165 44.4147 51.1005 44.9093 51.0912 45.4173C51.0818 45.9267 51.0778 46.6053 51.0778 47.4547C51.0778 47.552 51.0765 47.6813 51.0712 47.84C51.0685 48 51.0672 48.1093 51.0672 48.172C51.0672 48.628 51.1085 48.9213 51.1912 49.0493C51.2752 49.1773 51.4325 49.2427 51.6658 49.2427C51.6792 49.2427 51.7045 49.2413 51.7365 49.2373C51.7698 49.236 51.7952 49.2347 51.8112 49.2347V49.504C51.5992 49.4933 51.4005 49.4867 51.2138 49.4813C51.0258 49.476 50.8565 49.4733 50.7058 49.4733C50.5845 49.4733 50.4325 49.476 50.2525 49.4813C50.0725 49.4867 49.8752 49.4933 49.6592 49.504V49.2427H49.7672C50.0178 49.2427 50.1858 49.2147 50.2725 49.1613C50.3592 49.1067 50.4192 49.0013 50.4538 48.8413C50.4738 48.744 50.4912 48.408 50.5045 47.832C50.5192 47.2573 50.5258 46.54 50.5258 45.6787C50.5258 45.5467 50.5232 45.344 50.5178 45.0733C50.5112 44.8027 50.5085 44.6107 50.5045 44.4973C50.3685 44.5 50.2245 44.508 50.0712 44.5227C49.9178 44.5373 49.7552 44.556 49.5805 44.5813L49.5352 44.288C49.7912 44.2427 50.0538 44.1907 50.3218 44.1307C50.5885 44.072 50.8618 44.0067 51.1405 43.9347Z" fill="#19171C"/>
<path d="M55.913 46.8932C55.7103 47.0652 55.5156 47.1932 55.3263 47.2772C55.1383 47.3626 54.953 47.4052 54.769 47.4052C54.3903 47.4052 54.073 47.2466 53.817 46.9319C53.561 46.6159 53.4316 46.2172 53.4316 45.7412C53.4316 45.2172 53.5783 44.7852 53.869 44.4452C54.161 44.1052 54.5343 43.9346 54.9876 43.9346C55.4863 43.9346 55.877 44.1399 56.1596 44.5506C56.441 44.9626 56.5836 45.5319 56.5836 46.2612C56.5836 47.2292 56.3516 48.0292 55.8876 48.6599C55.425 49.2919 54.849 49.6079 54.1623 49.6079C53.9876 49.6079 53.8543 49.5759 53.761 49.5119C53.669 49.4479 53.6223 49.3546 53.6223 49.2346C53.6223 49.1519 53.6423 49.0892 53.6863 49.0439C53.7276 48.9986 53.789 48.9759 53.865 48.9759C53.8943 48.9759 53.977 48.9986 54.1143 49.0439C54.253 49.0892 54.3783 49.1106 54.4943 49.1106C54.917 49.1106 55.2476 48.9266 55.4823 48.5572C55.717 48.1866 55.861 47.6319 55.913 46.8932ZM55.933 46.4772C55.933 45.7532 55.8516 45.2132 55.685 44.8612C55.5183 44.5079 55.2663 44.3319 54.9276 44.3319C54.657 44.3319 54.4423 44.4359 54.2836 44.6452C54.125 44.8546 54.0463 45.1412 54.0463 45.5066C54.0463 45.9199 54.137 46.2506 54.3196 46.4986C54.5023 46.7452 54.7463 46.8692 55.0516 46.8692C55.1903 46.8692 55.333 46.8359 55.4783 46.7719C55.6236 46.7066 55.7756 46.6079 55.933 46.4772Z" fill="#19171C"/>
<path d="M59.4788 46.4504L59.5415 46.4437C59.5655 46.4424 59.5988 46.4424 59.6415 46.4424C60.0255 46.4424 60.3295 46.5624 60.5522 46.8024C60.7748 47.0424 60.8868 47.3704 60.8868 47.7864C60.8868 48.2771 60.6948 48.7051 60.3122 49.0691C59.9308 49.4344 59.4828 49.6157 58.9695 49.6157C58.6495 49.6157 58.3722 49.5464 58.1375 49.4104C57.9015 49.2731 57.7842 49.1157 57.7842 48.9371C57.7842 48.8611 57.8162 48.7864 57.8828 48.7144C57.9468 48.6424 58.0122 48.6064 58.0815 48.6064C58.1682 48.6064 58.2642 48.6677 58.3708 48.7917C58.3988 48.8264 58.4202 48.8491 58.4335 48.8651C58.5415 48.9904 58.6508 49.0811 58.7642 49.1357C58.8748 49.1917 59.0002 49.2184 59.1428 49.2184C59.4415 49.2184 59.6935 49.0997 59.8988 48.8597C60.1028 48.6184 60.2055 48.3197 60.2055 47.9597C60.2055 47.6237 60.1175 47.3504 59.9442 47.1384C59.7695 46.9291 59.5442 46.8237 59.2668 46.8237C59.1668 46.8237 59.0615 46.8371 58.9508 46.8637C58.8388 46.8904 58.7188 46.9331 58.5908 46.9877L58.4935 46.7197C58.9615 46.4971 59.3135 46.2597 59.5482 46.0131C59.7828 45.7651 59.9015 45.5064 59.9015 45.2371C59.9015 44.9984 59.8282 44.7984 59.6815 44.6397C59.5375 44.4811 59.3535 44.4011 59.1282 44.4011C58.9615 44.4011 58.8002 44.4557 58.6468 44.5624C58.4935 44.6704 58.3402 44.8357 58.1895 45.0557L57.9295 44.8904C58.0922 44.5744 58.2855 44.3371 58.5162 44.1757C58.7428 44.0144 59.0015 43.9357 59.2948 43.9357C59.6495 43.9357 59.9468 44.0517 60.1855 44.2837C60.4242 44.5171 60.5442 44.7984 60.5442 45.1331C60.5442 45.4184 60.4548 45.6691 60.2788 45.8877C60.1028 46.1051 59.8362 46.2944 59.4788 46.4504Z" fill="#19171C"/>
<path d="M64.2176 46.5155C64.6136 46.7008 64.9016 46.9142 65.0843 47.1568C65.2669 47.3995 65.3576 47.6902 65.3576 48.0288C65.3576 48.4662 65.2016 48.8408 64.8869 49.1528C64.5723 49.4675 64.1963 49.6235 63.7563 49.6235C63.3429 49.6235 62.9963 49.4835 62.7109 49.2022C62.4243 48.9208 62.2803 48.5835 62.2803 48.1875C62.2803 47.8795 62.3723 47.5995 62.5589 47.3475C62.7429 47.0955 63.0189 46.8742 63.3843 46.6808C63.0629 46.5222 62.8229 46.3315 62.6669 46.1088C62.5109 45.8875 62.4336 45.6262 62.4336 45.3262C62.4336 44.9475 62.5749 44.6208 62.8603 44.3422C63.1443 44.0662 63.4803 43.9275 63.8683 43.9275C64.2336 43.9275 64.5403 44.0475 64.7896 44.2888C65.0389 44.5315 65.1643 44.8288 65.1643 45.1835C65.1643 45.4595 65.0843 45.7088 64.9269 45.9302C64.7709 46.1502 64.5336 46.3448 64.2176 46.5155ZM63.6109 46.8968C63.3669 47.0688 63.1856 47.2542 63.0683 47.4528C62.9536 47.6515 62.8949 47.8728 62.8949 48.1142C62.8949 48.4528 62.9856 48.7275 63.1629 48.9382C63.3416 49.1488 63.5749 49.2542 63.8629 49.2542C64.1109 49.2542 64.3229 49.1502 64.5003 48.9448C64.6763 48.7368 64.7656 48.4862 64.7656 48.1915C64.7656 47.8955 64.6776 47.6488 64.5056 47.4528C64.3336 47.2568 64.0349 47.0715 63.6109 46.8968ZM64.0003 46.3275C64.2109 46.1835 64.3683 46.0182 64.4723 45.8315C64.5763 45.6462 64.6269 45.4368 64.6269 45.2062C64.6269 44.9422 64.5509 44.7222 64.3976 44.5488C64.2456 44.3755 64.0496 44.2888 63.8123 44.2888C63.5909 44.2888 63.4029 44.3755 63.2496 44.5488C63.0949 44.7222 63.0189 44.9315 63.0189 45.1755C63.0189 45.4142 63.0989 45.6288 63.2616 45.8208C63.4243 46.0115 63.6709 46.1795 64.0003 46.3275Z" fill="#19171C"/>
<path d="M25.1777 18.7849C25.1777 19.7929 24.3604 20.6103 23.3524 20.6103C22.3431 20.6103 21.5244 19.7929 21.5244 18.7849C21.5244 17.7756 22.3431 16.9583 23.3524 16.9583C24.3604 16.9583 25.1777 17.7756 25.1777 18.7849Z" fill="#19171C"/>
<path d="M30.1817 18.7849C30.1817 19.7929 29.363 20.6103 28.355 20.6103C27.3457 20.6103 26.5283 19.7929 26.5283 18.7849C26.5283 17.7756 27.3457 16.9583 28.355 16.9583C29.363 16.9583 30.1817 17.7756 30.1817 18.7849Z" fill="#19171C"/>
<path d="M73.0908 18.7849C73.0908 19.7929 72.2735 20.6103 71.2655 20.6103C70.2562 20.6103 69.4375 19.7929 69.4375 18.7849C69.4375 17.7756 70.2562 16.9583 71.2655 16.9583C72.2735 16.9583 73.0908 17.7756 73.0908 18.7849Z" fill="#19171C"/>
<path d="M78.0938 18.7849C78.0938 19.7929 77.2751 20.6103 76.2684 20.6103C75.2578 20.6103 74.4404 19.7929 74.4404 18.7849C74.4404 17.7756 75.2578 16.9583 76.2684 16.9583C77.2751 16.9583 78.0938 17.7756 78.0938 18.7849Z" fill="#19171C"/>
<path d="M18.582 47.3653H43.9794V46.672H18.582V47.3653Z" fill="#19171C"/>
<path d="M71.1768 47.3653H96.5754V46.672H71.1768V47.3653Z" fill="#19171C"/>
</svg>
