<svg width="115" height="67" viewBox="0 0 115 67" fill="none" xmlns="http://www.w3.org/2000/svg">
<path d="M68.3027 26.5354H64.2307L59.7973 31.6487V26.5354H56.5693V39.9594H59.7973V34.9354L64.5013 39.9594H69.0213L62.4213 33.3287L68.3027 26.5354Z" fill="#2A2C2F"/>
<path d="M83.8184 39.9587H87.0464V31.6894H83.8184V39.9587Z" fill="#2A2C2F"/>
<path d="M83.8184 29.7641H87.0464V26.5347H83.8184V29.7641Z" fill="#0959A3"/>
<path d="M76.9527 26.5354H73.7301H69.6221V29.758H73.7301V39.9594H76.9527V29.758H81.0594V26.5354H76.9527Z" fill="#2A2C2F"/>
<path d="M100.224 29.7584V26.5358H93.8724H90.6484V29.7584V31.6971V34.9198V39.9598H93.8724V34.9198H98.8484V31.6971H93.8724V29.7584H100.224Z" fill="#2A2C2F"/>
<path d="M48.6886 35.8336C47.9779 36.535 47.1259 36.8843 46.1326 36.8843C45.1499 36.8843 44.3019 36.535 43.5912 35.8336C42.8992 35.123 42.5539 34.2763 42.5539 33.2923C42.5539 32.3083 42.8992 31.4616 43.5912 30.751C44.3019 30.0496 45.1499 29.699 46.1326 29.699C47.1259 29.699 47.9779 30.0496 48.6886 30.751C49.3899 31.4616 49.7406 32.3083 49.7406 33.2923C49.7406 34.2763 49.3899 35.123 48.6886 35.8336ZM49.7846 26.535V27.0016V27.471V27.6416C49.6019 27.3816 49.2752 27.1816 49.0739 27.0763C49.0339 27.0563 48.9952 27.035 48.9539 27.0163L48.9499 27.0136C48.0899 26.6243 47.1512 26.4283 46.1326 26.4283C44.2432 26.4283 42.6326 27.1043 41.2979 28.4576C39.9446 29.7923 39.2686 31.403 39.2686 33.2923C39.2686 35.1803 39.9446 36.7976 41.2979 38.1416C42.6326 39.4856 44.2432 40.1563 46.1326 40.1563C47.1406 40.1563 48.0712 39.967 48.9286 39.5896C49.0552 39.5323 49.5432 39.295 49.7846 38.9523V39.1336V39.591V39.959H53.0126V33.2923V33.291V26.535H49.7846Z" fill="#2A2C2F"/>
<path d="M31.1524 30.2603C31.5777 30.475 32.0337 30.0336 31.8377 29.599C30.4257 26.455 27.267 24.2643 23.5964 24.2643C22.9244 24.2643 22.2697 24.3376 21.6404 24.4776C21.175 24.5803 21.095 25.2083 21.5204 25.4216L31.1524 30.2603Z" fill="#0959A3"/>
<path d="M17.4662 27.7747C17.4636 27.2987 16.8649 27.092 16.5662 27.4627C14.4036 30.148 13.8836 33.9574 15.5476 37.228C15.8529 37.8267 16.2142 38.3774 16.6236 38.8747C16.9262 39.2427 17.5222 39.0294 17.5196 38.5534L17.4662 27.7747Z" fill="#0959A3"/>
<path d="M21.3885 41.13C20.9592 41.3367 21.0312 41.966 21.4952 42.0767C24.8485 42.8727 28.5099 41.702 30.7472 38.7914C31.1565 38.2594 31.4965 37.6954 31.7699 37.1114C31.9712 36.6794 31.5232 36.234 31.0939 36.4407L21.3885 41.13Z" fill="#0959A3"/>
<path d="M21.8608 36.9271L28.0328 33.9551C28.5781 33.6804 28.5781 32.9031 28.0328 32.6298L21.8608 29.6564C21.3675 29.4098 20.7861 29.7684 20.7861 30.3191V36.2644C20.7861 36.8164 21.3675 37.1751 21.8608 36.9271Z" fill="#0959A3"/>
</svg>
