<svg width="117" height="68" viewBox="0 0 117 68" fill="none" xmlns="http://www.w3.org/2000/svg">
<path fill-rule="evenodd" clip-rule="evenodd" d="M70.8372 27.0387H68.3199V20.2627C68.2772 20.2587 68.2332 20.2533 68.1892 20.248C67.7546 22.504 67.3186 24.76 66.8759 27.052C66.3399 27.052 65.8066 27.0573 65.2732 27.0427C65.2199 27.0413 65.1399 26.9213 65.1239 26.8467C64.8719 25.5973 64.6279 24.3467 64.3826 23.0947C64.2092 22.212 64.0372 21.328 63.8626 20.4467C63.8479 20.3787 63.8066 20.3173 63.7772 20.252L63.7066 20.2587V27.0333H61.2959V15.1573H64.8439C65.2666 17.168 65.6906 19.1813 66.1132 21.1933C66.1439 21.1973 66.1732 21.2013 66.2026 21.2053C66.2319 21.12 66.2706 21.036 66.2879 20.948C66.6346 19.0973 66.9826 17.2467 67.3226 15.3947C67.3519 15.2387 67.3812 15.132 67.5746 15.132C68.6119 15.1387 69.6492 15.136 70.6866 15.1373C70.7319 15.1373 70.7772 15.1507 70.8372 15.16V27.0387Z" fill="#5F6464"/>
<path fill-rule="evenodd" clip-rule="evenodd" d="M53.4402 33.8683V39.9936H50.8789V28.1149C50.9629 28.1069 51.0522 28.0936 51.1429 28.0936C51.8029 28.0923 52.4629 28.0989 53.1229 28.0883C53.3216 28.0856 53.4189 28.1509 53.4962 28.3389C54.1842 29.9963 54.8842 31.6483 55.5829 33.3003C55.6242 33.4003 55.6762 33.4949 55.7229 33.5936C55.7509 33.5883 55.7802 33.5829 55.8082 33.5789V28.1149H58.3296V40.0109C57.6842 40.0109 57.0469 40.0189 56.4096 40.0016C56.3336 39.9989 56.2309 39.8776 56.1909 39.7883C55.4696 38.1856 54.7562 36.5803 54.0416 34.9749C53.9029 34.6656 53.7656 34.3563 53.6256 34.0496C53.5936 33.9789 53.5496 33.9163 53.5109 33.8496L53.4402 33.8683Z" fill="#5F6464"/>
<path fill-rule="evenodd" clip-rule="evenodd" d="M45.7806 27.0539C45.1286 27.0539 44.4992 27.0605 43.8699 27.0445C43.7952 27.0432 43.6966 26.9219 43.6579 26.8352C42.8059 24.9419 41.9606 23.0445 41.1139 21.1499C41.0739 21.0605 41.0232 20.9765 40.9766 20.8899C40.9512 20.8952 40.9246 20.9005 40.8979 20.9059V27.0312H38.3579C38.3526 26.9165 38.3432 26.8059 38.3432 26.6965C38.3432 22.9632 38.3459 19.2299 38.3379 15.4979C38.3366 15.2245 38.3899 15.1165 38.6912 15.1272C39.3219 15.1525 39.9539 15.1419 40.5846 15.1312C40.7846 15.1272 40.8792 15.1939 40.9566 15.3819C41.6486 17.0459 42.3526 18.7072 43.0526 20.3685C43.0912 20.4565 43.1379 20.5419 43.1819 20.6272C43.2072 20.6232 43.2312 20.6165 43.2566 20.6112V15.1712C43.3659 15.1565 43.4379 15.1365 43.5086 15.1365C44.1872 15.1339 44.8659 15.1405 45.5446 15.1325C45.7392 15.1299 45.8059 15.1899 45.8059 15.3885C45.8019 19.2072 45.8032 23.0245 45.8019 26.8419C45.8019 26.8979 45.7912 26.9539 45.7806 27.0539Z" fill="#5F6464"/>
<path fill-rule="evenodd" clip-rule="evenodd" d="M41.887 35.1048V39.9928H39.155C39.147 39.8875 39.135 39.7795 39.135 39.6702C39.1336 35.9275 39.1376 32.1848 39.127 28.4422C39.1256 28.1462 39.2176 28.0808 39.495 28.0862C40.2763 28.1035 41.0576 28.0928 41.8776 28.0928V32.8542C42.527 32.8542 43.1363 32.8555 43.7456 32.8528C43.9416 32.8528 43.899 32.6982 43.899 32.5848C43.9016 31.6795 43.9003 30.7755 43.9003 29.8702V28.1195H46.623V39.9902H43.9096V35.1048H41.887Z" fill="#5F6464"/>
<path fill-rule="evenodd" clip-rule="evenodd" d="M49.298 21.0813C49.298 22.268 49.2954 23.4547 49.3034 24.64C49.3034 24.7347 49.3527 24.888 49.4167 24.912C49.8874 25.088 50.7327 24.8147 50.9727 24.372C51.1207 24.1 51.2354 23.772 51.242 23.4653C51.2767 21.988 51.2754 20.5107 51.274 19.032C51.274 18.5973 51.2154 18.1627 50.962 17.7893C50.6274 17.2987 50.118 17.2547 49.582 17.26C49.358 17.2627 49.2914 17.328 49.294 17.5493C49.3034 18.7267 49.298 19.904 49.298 21.0813ZM46.5674 27.036V15.168C46.6434 15.1573 46.7154 15.136 46.786 15.136C48.0394 15.1387 49.2927 15.124 50.546 15.1493C52.0994 15.1813 53.1727 16.0867 53.658 17.42C53.9714 18.28 54.0674 19.1707 54.0634 20.0773C54.0594 20.992 54.0874 21.908 54.0407 22.82C53.9874 23.88 53.7674 24.9053 53.1074 25.7827C52.4927 26.5973 51.6407 27 50.654 27.0387C49.346 27.0907 48.0354 27.0533 46.7247 27.0533C46.6807 27.0533 46.6354 27.044 46.5674 27.036Z" fill="#5F6464"/>
<path fill-rule="evenodd" clip-rule="evenodd" d="M42.1138 43.2315C42.1138 44.1688 42.1111 45.0875 42.1218 46.0075C42.1231 46.0541 42.2431 46.1368 42.3111 46.1408C42.5538 46.1581 42.7991 46.1488 43.0444 46.1488C43.5151 46.1461 43.8711 45.9088 43.9671 45.4475C44.0458 45.0661 44.0711 44.6661 44.0591 44.2768C44.0458 43.8701 43.8978 43.4901 43.4698 43.3328C43.0404 43.1755 42.5911 43.1781 42.1138 43.2315ZM45.3231 47.0541C45.5164 47.1421 45.6978 47.2168 45.8711 47.3048C46.3764 47.5621 46.5858 48.0221 46.6298 48.5448C46.6898 49.2368 46.6844 49.9341 46.7258 50.6275C46.7564 51.1221 46.7978 51.6181 46.8738 52.1075C46.9044 52.3075 47.0391 52.4901 47.1404 52.7128C47.0511 52.7208 46.9618 52.7328 46.8738 52.7341C46.0818 52.7355 45.2898 52.7275 44.4978 52.7395C44.3031 52.7421 44.1924 52.6888 44.1604 52.4941C44.1324 52.3195 44.0791 52.1461 44.0738 51.9715C44.0484 51.1355 44.0458 50.2968 44.0151 49.4621C44.0071 49.2395 43.9564 49.0115 43.8818 48.8021C43.7124 48.3288 43.4471 48.1608 42.9364 48.1581C42.6751 48.1568 42.4138 48.1568 42.1178 48.1568V52.7181C41.9831 52.7248 41.8831 52.7341 41.7818 52.7341C41.1218 52.7355 40.4618 52.7221 39.8018 52.7408C39.5258 52.7488 39.4538 52.6595 39.4551 52.3901C39.4631 49.2688 39.4591 46.1475 39.4591 43.0261C39.4591 42.5181 39.4671 42.0088 39.4564 41.4995C39.4524 41.2861 39.5164 41.1981 39.7458 41.1995C41.0004 41.2075 42.2538 41.1835 43.5071 41.2128C43.9978 41.2248 44.4991 41.3061 44.9724 41.4368C45.7458 41.6501 46.2711 42.1581 46.5124 42.9448C46.7724 43.7901 46.7938 44.6381 46.5884 45.4981C46.4418 46.1115 46.0884 46.5595 45.5471 46.8688C45.4818 46.9061 45.4178 46.9448 45.3551 46.9861C45.3418 46.9941 45.3391 47.0168 45.3231 47.0541Z" fill="#5F6464"/>
<path fill-rule="evenodd" clip-rule="evenodd" d="M76.2628 21.1187C76.2628 20.2987 76.2828 19.4773 76.2534 18.6587C76.2414 18.3173 76.1574 17.9693 76.0454 17.6453C75.9294 17.3053 75.6188 17.1733 75.2774 17.1733C74.9494 17.1733 74.6068 17.2333 74.4774 17.584C74.3601 17.9053 74.2534 18.252 74.2494 18.5893C74.2241 20.2187 74.2294 21.8507 74.2388 23.48C74.2414 23.7787 74.2828 24.084 74.3641 24.3707C74.4854 24.8067 74.7974 25.004 75.2534 25.0067C75.6908 25.008 75.9908 24.8147 76.1214 24.3827C76.2041 24.1067 76.2508 23.8107 76.2574 23.5227C76.2748 22.7213 76.2628 21.92 76.2628 21.1187ZM71.4014 21.0827C71.3788 20.028 71.3748 18.9747 71.6254 17.94C71.8468 17.0267 72.2134 16.1947 72.9988 15.6107C73.4801 15.2533 74.0281 15.068 74.6161 15.008C75.5681 14.9093 76.4974 14.9747 77.3348 15.5053C78.1748 16.0373 78.6134 16.8573 78.8148 17.788C78.9748 18.5267 79.0734 19.2893 79.1014 20.0453C79.1374 21.04 79.1148 22.0427 79.0481 23.036C78.9788 24.0747 78.7574 25.084 78.1161 25.948C77.5694 26.6867 76.8161 27.0507 75.9174 27.172C75.1161 27.28 74.3361 27.2253 73.5934 26.912C72.5121 26.456 71.9814 25.5467 71.6828 24.4693C71.3748 23.3587 71.3774 22.2213 71.4014 21.0827Z" fill="#5F6464"/>
<path fill-rule="evenodd" clip-rule="evenodd" d="M51.8154 46.9237C51.8154 46.2357 51.8207 45.5477 51.8127 44.8597C51.8087 44.5037 51.802 44.1464 51.7567 43.7944C51.69 43.2704 51.3634 42.9677 50.894 42.9451C50.4074 42.9211 50.0474 43.1957 49.9247 43.7064C49.8767 43.9051 49.838 44.1131 49.8367 44.3157C49.83 46.0504 49.8234 47.7851 49.8434 49.5184C49.8474 49.8371 49.9447 50.1651 50.054 50.4691C50.1834 50.8264 50.514 51.0077 50.8754 50.9917C51.2407 50.9771 51.538 50.7731 51.6474 50.3997C51.7327 50.1064 51.8007 49.7984 51.8074 49.4957C51.8287 48.6384 51.8154 47.7811 51.8154 46.9237ZM54.4527 46.7984C54.4527 47.6557 54.466 48.5144 54.4474 49.3717C54.434 49.9891 54.3634 50.6051 54.138 51.1904C53.8527 51.9371 53.3434 52.4797 52.5887 52.7224C51.37 53.1117 50.1434 53.1251 48.9354 52.6477C48.0154 52.2864 47.538 51.5571 47.358 50.6344C47.2447 50.0504 47.198 49.4464 47.19 48.8491C47.166 47.3037 47.1687 45.7571 47.1887 44.2117C47.1954 43.6011 47.326 43.0024 47.6314 42.4584C48.118 41.5931 48.9207 41.1957 49.846 41.0211C50.7087 40.8584 51.57 40.8984 52.4167 41.1757C53.5447 41.5437 54.3447 42.5091 54.394 43.6944C54.438 44.7264 54.4034 45.7624 54.4034 46.7984H54.4527Z" fill="#5F6464"/>
<path fill-rule="evenodd" clip-rule="evenodd" d="M35.135 48.5093V46.5187H38.6964V52.732C38.143 52.732 37.5977 52.7413 37.055 52.72C36.995 52.7173 36.9137 52.548 36.8924 52.4453C36.8457 52.2227 36.8297 51.992 36.7897 51.676C36.643 51.8813 36.555 52.0187 36.4537 52.1453C36.099 52.5907 35.6377 52.8587 35.075 52.9493C34.475 53.0467 33.8817 53.0133 33.303 52.832C32.3137 52.5227 31.7724 51.7987 31.575 50.8253C31.4577 50.2427 31.4137 49.636 31.4044 49.04C31.3817 47.4853 31.367 45.9267 31.4124 44.3733C31.4284 43.804 31.559 43.2173 31.7484 42.6787C32.0764 41.7453 32.835 41.2707 33.771 41.0667C34.1257 40.9893 34.4924 40.896 34.8484 40.9107C35.8244 40.9493 36.8057 41.016 37.623 41.6533C38.211 42.1107 38.5137 42.7387 38.6057 43.46C38.6644 43.924 38.655 44.3987 38.6604 44.868C38.6604 44.9427 38.5724 45.0813 38.5244 45.0827C37.707 45.096 36.8884 45.092 36.031 45.092C36.031 44.772 36.0444 44.4827 36.0257 44.1947C36.011 43.964 35.9657 43.7347 35.9204 43.508C35.8484 43.1507 35.5897 42.9867 35.2577 42.9533C34.8644 42.9133 34.4604 42.9413 34.2444 43.3387C34.1324 43.544 34.059 43.8 34.0577 44.0333C34.043 46.004 34.0457 47.9747 34.051 49.9453C34.0537 50.904 34.807 51.1293 35.491 50.92C35.963 50.7747 36.0324 50.324 36.0697 49.9107C36.1044 49.5187 36.0737 49.1187 36.079 48.7227C36.0817 48.564 36.0097 48.504 35.8564 48.5067C35.623 48.512 35.391 48.5093 35.135 48.5093Z" fill="#5F6464"/>
<path fill-rule="evenodd" clip-rule="evenodd" d="M54.9741 45.6822C54.9741 44.2969 54.9794 42.9116 54.9688 41.5249C54.9674 41.2822 55.0301 41.1916 55.2848 41.1969C55.9634 41.2116 56.6421 41.2116 57.3208 41.1982C57.5568 41.1942 57.6221 41.2716 57.6221 41.5049C57.6141 44.3329 57.6154 47.1596 57.6181 49.9876C57.6181 50.7409 58.1594 51.1569 58.8768 50.9396C59.2914 50.8129 59.4688 50.4729 59.5274 50.0662C59.5448 49.9369 59.5434 49.8036 59.5434 49.6716C59.5448 46.9756 59.5434 44.2809 59.5448 41.5849C59.5448 41.2049 59.5461 41.2036 59.9154 41.2022C60.5741 41.2009 61.2341 41.2089 61.8941 41.1982C62.1168 41.1956 62.2034 41.2502 62.2034 41.4969C62.1941 44.2396 62.2168 46.9822 62.1874 49.7249C62.1768 50.6262 61.9728 51.4942 61.2541 52.1502C60.7754 52.5876 60.1994 52.7929 59.5834 52.9076C58.7741 53.0569 57.9714 53.0196 57.1701 52.8129C55.8474 52.4689 55.0954 51.5142 55.0274 50.2316C54.9461 48.7182 55.0088 47.1982 55.0088 45.6822H54.9741Z" fill="#5F6464"/>
<path fill-rule="evenodd" clip-rule="evenodd" d="M38.3534 32.0728H35.9334C35.9094 31.7448 35.8908 31.4288 35.8641 31.1128C35.8001 30.3861 35.2721 29.9901 34.6054 30.1648C34.2334 30.2635 33.9961 30.6061 33.9628 31.0621C33.9188 31.6488 34.1588 32.0955 34.6494 32.3888C35.2388 32.7408 35.8534 33.0501 36.4481 33.3941C37.1801 33.8208 37.8468 34.3208 38.2188 35.1221C38.8041 36.3821 38.5828 38.4328 37.4921 39.3581C37.0161 39.7595 36.4708 39.9941 35.8734 40.1048C35.1241 40.2448 34.3721 40.2181 33.6428 39.9861C32.3521 39.5755 31.7028 38.6275 31.5134 37.3328C31.4521 36.9181 31.4548 36.4928 31.4268 36.0488H33.8174C33.8481 36.3808 33.8494 36.7195 33.9148 37.0461C34.0481 37.7221 34.5668 38.0595 35.2041 37.9661C35.8268 37.8755 36.0521 37.3528 36.0081 36.8075C35.9694 36.3235 35.6588 36.0301 35.2694 35.8075C34.6894 35.4755 34.1014 35.1595 33.5214 34.8261C32.6041 34.2981 31.8588 33.6155 31.6001 32.5368C31.3068 31.3101 31.4108 30.1408 32.2041 29.1088C32.7921 28.3421 33.6241 27.9928 34.5588 27.9515C35.1028 27.9288 35.6761 27.9795 36.1988 28.1301C37.3801 28.4688 37.9868 29.3581 38.1988 30.5248C38.2894 31.0208 38.3028 31.5315 38.3534 32.0728Z" fill="#5F6464"/>
<path fill-rule="evenodd" clip-rule="evenodd" d="M65.3576 44.6776V45.6096C65.3576 46.2389 65.3589 46.2509 65.9949 46.1883C66.4256 46.1456 66.8922 46.0976 67.0909 45.6323C67.3629 44.9949 67.3456 44.3309 67.1002 43.6869C67.0069 43.4403 66.7896 43.2803 66.5162 43.2536C66.2176 43.2243 65.9162 43.2243 65.6162 43.2043C65.4256 43.1923 65.3469 43.2603 65.3536 43.4616C65.3669 43.8669 65.3576 44.2723 65.3576 44.6776ZM65.3576 48.2456V49.1509C65.3576 50.2443 65.3522 51.3389 65.3629 52.4323C65.3642 52.6616 65.3016 52.7443 65.0616 52.7403C64.3642 52.7256 63.6669 52.7296 62.9682 52.7389C62.7696 52.7403 62.6842 52.6963 62.6856 52.4736C62.6909 48.8056 62.6909 45.1389 62.6856 41.4709C62.6856 41.2536 62.7616 41.1976 62.9642 41.2003C64.2549 41.2163 65.5482 41.1843 66.8349 41.2523C67.6269 41.2949 68.4229 41.4483 69.0496 42.0269C69.5536 42.4909 69.7709 43.0976 69.8776 43.7429C70.0176 44.5949 69.9442 45.4363 69.6962 46.2683C69.3669 47.3696 68.6069 47.9523 67.5056 48.0949C66.8109 48.1843 66.1056 48.1949 65.3576 48.2456Z" fill="#5F6464"/>
<path fill-rule="evenodd" clip-rule="evenodd" d="M59.8057 19.8877V22.1264H57.3337V22.5144C57.3337 23.1944 57.3404 23.8731 57.3297 24.5517C57.3271 24.7637 57.4044 24.8277 57.6097 24.8251C58.5151 24.8171 59.4204 24.8224 60.3244 24.8224H60.6524V27.0317H54.6777V15.1584H60.6484V17.3757H60.3417C59.4364 17.3757 58.5324 17.3824 57.6271 17.3731C57.4164 17.3704 57.3231 17.4157 57.3284 17.6517C57.3444 18.3011 57.3431 18.9517 57.3297 19.6024C57.3244 19.8317 57.4084 19.8944 57.6257 19.8917C58.3417 19.8811 59.0564 19.8877 59.8057 19.8877Z" fill="#5F6464"/>
<path fill-rule="evenodd" clip-rule="evenodd" d="M59.1387 28.1109H65.1227V30.3269H61.8013V30.6869C61.8013 31.2989 61.8133 31.9123 61.796 32.5243C61.7893 32.7776 61.8533 32.8696 62.1227 32.8629C62.8293 32.8443 63.536 32.8563 64.2667 32.8563V35.0829H61.8013V35.4936V37.3616C61.8013 37.7789 61.8013 37.7789 62.2053 37.7789C63.0733 37.7789 63.9413 37.7789 64.808 37.7789H65.124V39.9936H59.1387V28.1109Z" fill="#5F6464"/>
<path fill-rule="evenodd" clip-rule="evenodd" d="M37.7118 17.3748H34.4158V17.7561C34.4158 18.3508 34.4345 18.9455 34.4092 19.5375C34.3945 19.8415 34.5052 19.9015 34.7785 19.8935C35.3812 19.8761 35.9852 19.8948 36.5878 19.8841C36.7932 19.8815 36.8718 19.9361 36.8678 20.1535C36.8545 20.8015 36.8625 21.4495 36.8625 22.1228H34.4385V24.8148H37.6878V27.0308H31.7398C31.7332 26.9215 31.7225 26.8121 31.7225 26.7015C31.7212 22.9681 31.7238 19.2335 31.7158 15.4988C31.7158 15.2295 31.7638 15.1241 32.0678 15.1268C33.8398 15.1428 35.6132 15.1401 37.3865 15.1295C37.6478 15.1281 37.7252 15.2055 37.7172 15.4628C37.7012 16.0855 37.7118 16.7068 37.7118 17.3748Z" fill="#5F6464"/>
<path fill-rule="evenodd" clip-rule="evenodd" d="M85.6074 24.8213V27.0373H79.6768V15.164H82.3968V15.5C82.3968 18.488 82.4008 21.476 82.3901 24.4653C82.3901 24.748 82.4568 24.8347 82.7488 24.8293C83.6901 24.8093 84.6328 24.8213 85.6074 24.8213Z" fill="#5F6464"/>
<path fill-rule="evenodd" clip-rule="evenodd" d="M50.1367 28.0925V39.9885H47.4127C47.406 39.8832 47.3967 39.7832 47.3967 39.6819C47.3953 35.9312 47.398 32.1805 47.3887 28.4285C47.3887 28.1512 47.4713 28.0805 47.7407 28.0872C48.5287 28.1032 49.3193 28.0925 50.1367 28.0925Z" fill="#5F6464"/>
<path d="M1.09961 67.2814H115.89V0.698682H1.09961V67.2814Z" stroke="#BCBEC0" stroke-width="0.609333" stroke-miterlimit="10"/>
</svg>
