<svg width="115" height="67" viewBox="0 0 115 67" fill="none" xmlns="http://www.w3.org/2000/svg">
<path d="M84.4444 37.4032C84.4417 37.0592 84.7177 36.7765 85.0644 36.7738L86.5017 36.7658C86.847 36.7605 87.131 37.0365 87.1337 37.3845L87.1444 38.8205C87.1444 39.1672 86.8684 39.4512 86.523 39.4512L85.0844 39.4618C84.7377 39.4645 84.4577 39.1858 84.4524 38.8405L84.4444 37.4032Z" fill="#EE3536"/>
<path d="M75.96 29.0525C75.9573 28.7058 76.236 28.4245 76.5813 28.4245L78.0186 28.4111C78.3626 28.4085 78.6453 28.6885 78.6493 29.0325L78.66 30.4711C78.6626 30.8165 78.3853 31.0978 78.036 31.1005L76.6 31.1111C76.2546 31.1125 75.9746 30.8365 75.9693 30.4885L75.96 29.0525Z" fill="#EE3536"/>
<path d="M96.8828 24.6118C96.8802 24.2651 97.1588 23.9838 97.5068 23.9811L98.9415 23.9691C99.2908 23.9665 99.5695 24.2451 99.5735 24.5931L99.5842 26.0291C99.5882 26.3758 99.3055 26.6571 98.9615 26.6585L97.5268 26.6705C97.1802 26.6745 96.8948 26.3918 96.8922 26.0451L96.8828 24.6118Z" fill="#EE3536"/>
<path d="M88.4834 16.3076C88.4834 15.9583 88.7607 15.6796 89.1074 15.677L90.5421 15.6663C90.8901 15.665 91.1727 15.9423 91.1727 16.2863L91.1847 17.725C91.1887 18.0703 90.9061 18.353 90.5634 18.3543L89.1274 18.3663C88.7781 18.369 88.4967 18.0903 88.4941 17.7436L88.4834 16.3076Z" fill="#EE3536"/>
<path fill-rule="evenodd" clip-rule="evenodd" d="M84.3881 27.2462L86.4295 27.2315C86.4295 27.2315 87.4375 26.9475 87.4455 26.1729C87.4521 25.3995 87.4268 24.0915 87.4268 24.0915C87.4268 24.0915 87.2575 23.1782 86.3041 23.1582C85.3495 23.1382 84.4268 23.2155 84.4268 23.2155C84.4268 23.2155 83.4081 23.4275 83.4161 24.3569C83.4215 25.2795 83.4121 26.3022 83.4121 26.3022C83.4121 26.3022 83.3935 27.0742 84.3028 27.2489L84.3881 27.2462Z" fill="#65777E"/>
<path fill-rule="evenodd" clip-rule="evenodd" d="M91.2446 27.1965L89.1979 27.2112C89.1979 27.2112 88.1899 26.9432 88.1713 26.1685C88.1526 25.3965 88.1566 24.0845 88.1566 24.0845C88.1566 24.0845 88.3153 23.1738 89.2646 23.1392C90.2193 23.1045 91.1459 23.1645 91.1459 23.1645C91.1459 23.1645 92.1686 23.3632 92.1766 24.2912C92.1806 25.2152 92.2033 26.2365 92.2033 26.2365C92.2033 26.2365 92.2353 27.0098 91.3259 27.1938L91.2446 27.1965Z" fill="#65777E"/>
<path fill-rule="evenodd" clip-rule="evenodd" d="M84.3918 27.9169L86.4318 27.8995C86.4318 27.8995 87.4451 28.1702 87.4638 28.9435C87.4851 29.7142 87.4784 31.0262 87.4784 31.0262C87.4784 31.0262 87.3224 31.9395 86.3704 31.9755C85.4184 32.0102 84.4904 31.9475 84.4904 31.9475C84.4904 31.9475 83.4678 31.7489 83.4611 30.8249C83.4544 29.8969 83.4318 28.8782 83.4318 28.8782C83.4318 28.8782 83.4011 28.1062 84.3091 27.9182L84.3918 27.9169Z" fill="#65777E"/>
<path fill-rule="evenodd" clip-rule="evenodd" d="M91.2488 27.8662L89.2048 27.8795C89.2048 27.8795 88.1981 28.1649 88.1941 28.9395C88.1835 29.7115 88.2075 31.0235 88.2075 31.0235C88.2075 31.0235 88.3781 31.9302 89.3301 31.9542C90.2835 31.9742 91.2088 31.8982 91.2088 31.8982C91.2088 31.8982 92.2301 31.6835 92.2221 30.7582C92.2155 29.8342 92.2221 28.8129 92.2221 28.8129C92.2221 28.8129 92.2421 28.0395 91.3301 27.8649L91.2488 27.8662Z" fill="#65777E"/>
<path fill-rule="evenodd" clip-rule="evenodd" d="M80.084 26.8634L81.8027 26.8101C81.8027 26.8101 82.312 26.6741 82.308 26.1781C82.304 25.6821 82.3347 24.2927 82.3347 24.2927C82.3347 24.2927 82.3307 23.7674 81.66 23.8274C80.9934 23.8887 80.2894 23.9487 80.2894 23.9487C80.2894 23.9487 79.8014 24.0514 79.7854 24.6647C79.768 25.2794 79.7627 26.4741 79.7627 26.4741C79.7627 26.4741 79.764 26.7621 80.044 26.8501L80.084 26.8634Z" fill="#65777E"/>
<path fill-rule="evenodd" clip-rule="evenodd" d="M82.0745 31.3641L80.3518 31.3361C80.3518 31.3361 79.8398 31.2067 79.8358 30.7107C79.8345 30.2161 79.7852 28.8254 79.7852 28.8254C79.7852 28.8254 79.7798 28.3041 80.4492 28.3521C81.1185 28.4014 81.8212 28.4494 81.8212 28.4494C81.8212 28.4494 82.3145 28.5454 82.3385 29.1601C82.3652 29.7721 82.3865 30.9667 82.3865 30.9667C82.3865 30.9667 82.3892 31.2547 82.1132 31.3507L82.0745 31.3641Z" fill="#65777E"/>
<path fill-rule="evenodd" clip-rule="evenodd" d="M95.5702 26.7477L93.8529 26.7197C93.8529 26.7197 93.3422 26.5917 93.3356 26.0943C93.3342 25.5983 93.2822 24.213 93.2822 24.213C93.2822 24.213 93.2769 23.6877 93.9476 23.7383C94.6156 23.7903 95.3222 23.837 95.3222 23.837C95.3222 23.837 95.8102 23.933 95.8369 24.5463C95.8662 25.1583 95.8836 26.3543 95.8836 26.3543C95.8836 26.3543 95.8876 26.6437 95.6142 26.7343L95.5702 26.7477Z" fill="#65777E"/>
<path fill-rule="evenodd" clip-rule="evenodd" d="M93.6468 31.2773L95.3668 31.2266C95.3668 31.2266 95.8775 31.0893 95.8748 30.5919C95.8708 30.0959 95.9015 28.7079 95.9015 28.7079C95.9015 28.7079 95.8948 28.1853 95.2268 28.2426C94.5588 28.3039 93.8575 28.3639 93.8575 28.3639C93.8575 28.3639 93.3641 28.4626 93.3495 29.0786C93.3335 29.6933 93.3281 30.8879 93.3281 30.8879C93.3281 30.8879 93.3281 31.1773 93.6055 31.2653L93.6468 31.2773Z" fill="#65777E"/>
<path fill-rule="evenodd" clip-rule="evenodd" d="M80.3523 22.0412C80.3523 22.0412 80.3283 22.3132 80.547 22.2839C80.767 22.2546 82.0083 22.0866 82.0083 22.0866C82.0083 22.0866 82.2563 22.0666 82.2803 21.6226C82.3057 21.1826 82.3817 20.3839 82.3817 20.3839C82.3817 20.3839 82.3857 20.1586 81.9123 20.1812C81.4363 20.2066 80.6163 20.2346 80.6163 20.2346C80.6163 20.2346 80.4003 20.2546 80.391 20.5866C80.379 20.9186 80.3523 22.0412 80.3523 22.0412Z" fill="#65777E"/>
<path fill-rule="evenodd" clip-rule="evenodd" d="M95.1467 21.9302C95.1467 21.9302 95.1801 22.1982 94.9561 22.1729C94.7347 22.1462 93.4907 21.9982 93.4907 21.9982C93.4907 21.9982 93.2427 21.9795 93.2094 21.5369C93.1814 21.0942 93.0947 20.3022 93.0947 20.3022C93.0947 20.3022 93.0854 20.0742 93.5627 20.0929C94.0361 20.1075 94.8574 20.1249 94.8574 20.1249C94.8574 20.1249 95.0707 20.1435 95.0881 20.4742C95.1067 20.8049 95.1467 21.9302 95.1467 21.9302Z" fill="#65777E"/>
<path fill-rule="evenodd" clip-rule="evenodd" d="M95.2859 33.1026C95.2859 33.1026 95.3126 32.8346 95.0886 32.8653C94.8712 32.8933 93.6272 33.0613 93.6272 33.0613C93.6272 33.0613 93.3806 33.0813 93.3566 33.5253C93.3339 33.9653 93.2539 34.7613 93.2539 34.7613C93.2539 34.7613 93.2499 34.9906 93.7259 34.9653C94.2032 34.9399 95.0232 34.9119 95.0232 34.9119C95.0232 34.9119 95.2379 34.8906 95.2472 34.5599C95.2606 34.2279 95.2859 33.1026 95.2859 33.1026Z" fill="#65777E"/>
<path fill-rule="evenodd" clip-rule="evenodd" d="M80.4638 34.4537C80.4638 34.4537 80.5238 33.8857 80.4425 33.4377C80.3652 32.991 80.4772 32.9977 80.6812 33.0177C80.8905 33.0377 81.9612 33.1537 81.9612 33.1537C81.9612 33.1537 82.3118 33.151 82.3625 33.695C82.4172 34.2377 82.4852 34.9084 82.4852 34.9084C82.4852 34.9084 82.5465 35.067 82.1265 35.0644C81.7078 35.059 81.3585 34.9497 81.0225 35.0857C80.6838 35.219 80.3105 35.2217 80.3732 34.8804L80.4638 34.4537Z" fill="#65777E"/>
<path fill-rule="evenodd" clip-rule="evenodd" d="M84.1316 33.9326L84.1183 33.5339C84.1183 33.5339 84.0316 33.0153 84.7823 33.0379C85.5343 33.0593 86.4343 33.1113 86.4343 33.1113C86.4343 33.1113 87.0236 33.1273 87.0556 33.7393C87.085 34.3486 87.0903 35.1406 87.0903 35.1406C87.0903 35.1406 87.085 35.6139 86.5436 35.6339C86.0023 35.6526 84.8116 35.5766 84.8116 35.5766C84.8116 35.5766 84.241 35.5499 84.1823 34.7993C84.1223 34.0513 84.1316 33.9953 84.1316 33.9953V33.9326Z" fill="#65777E"/>
<path fill-rule="evenodd" clip-rule="evenodd" d="M88.635 34.7229L88.6284 35.1269C88.6284 35.1269 88.5497 35.6442 89.2977 35.6149C90.0484 35.5802 90.9524 35.5162 90.9524 35.5162C90.9524 35.5162 91.539 35.4882 91.5564 34.8802C91.5817 34.2682 91.575 33.4775 91.575 33.4775C91.575 33.4775 91.5644 33.0055 91.0204 32.9909C90.4777 32.9802 89.2897 33.0762 89.2897 33.0762C89.2897 33.0762 88.7177 33.1109 88.671 33.8602C88.6257 34.6109 88.635 34.6669 88.635 34.6669V34.7229Z" fill="#65777E"/>
<path fill-rule="evenodd" clip-rule="evenodd" d="M84.0372 21.2674L84.0319 21.6687C84.0319 21.6687 83.9505 22.1861 84.7012 22.1567C85.4545 22.1234 86.3545 22.0554 86.3545 22.0554C86.3545 22.0554 86.9452 22.0287 86.9625 21.4181C86.9839 20.8087 86.9799 20.0194 86.9799 20.0194C86.9799 20.0194 86.9679 19.5461 86.4239 19.5341C85.8799 19.5207 84.6945 19.6167 84.6945 19.6167C84.6945 19.6167 84.1225 19.6527 84.0772 20.3994C84.0292 21.1514 84.0372 21.2061 84.0372 21.2061V21.2674Z" fill="#65777E"/>
<path fill-rule="evenodd" clip-rule="evenodd" d="M88.5325 20.4104L88.5178 20.0077C88.5178 20.0077 88.4298 19.4917 89.1805 19.513C89.9298 19.5317 90.8325 19.5864 90.8325 19.5864C90.8325 19.5864 91.4218 19.6037 91.4512 20.213C91.4832 20.8264 91.4872 21.613 91.4872 21.613C91.4872 21.613 91.4845 22.0864 90.9405 22.1064C90.3938 22.129 89.2058 22.049 89.2058 22.049C89.2058 22.049 88.6352 22.0237 88.5805 21.273C88.5218 20.525 88.5325 20.4704 88.5325 20.4704V20.4104Z" fill="#65777E"/>
<path fill-rule="evenodd" clip-rule="evenodd" d="M95.7822 18.4909C95.7889 17.6202 95.7676 16.4629 95.7676 16.4629C95.7676 16.4629 95.8836 15.6349 97.0036 15.4869C98.1209 15.3415 98.6942 15.0615 98.6942 15.0615C98.6942 15.0615 100.652 14.7015 100.252 16.3749C99.8516 18.0482 99.8262 18.3669 99.8262 18.3669C99.8262 18.3669 99.7102 19.4589 98.4382 19.4815C97.1676 19.5042 96.6596 19.4775 96.6596 19.4775C96.6596 19.4775 95.7729 19.3615 95.7822 18.4909Z" fill="#EE3536"/>
<path fill-rule="evenodd" clip-rule="evenodd" d="M37.8031 41.5206L40.3151 41.5019L40.3164 41.9032C40.3164 41.9032 40.3364 42.4406 41.3151 42.4326C42.2951 42.4246 45.2111 42.4032 45.2111 42.4032C45.2111 42.4032 45.6657 42.2246 45.6631 41.6806L45.6551 41.5046C45.6551 41.5046 45.6937 40.8672 44.9777 40.8739C44.2604 40.8779 40.1724 40.8112 40.1724 40.8112L39.3977 40.8059C39.3977 40.8059 37.8524 40.7326 37.7871 39.2832C37.7191 37.8352 37.7871 37.3792 37.7871 37.3792C37.7871 37.3792 37.7191 35.8472 40.1351 35.6766C42.5484 35.5086 44.7017 35.5192 45.8217 35.6192C46.9391 35.7232 47.5791 36.0486 47.7964 37.1672C47.7964 37.1672 47.9097 37.9939 47.8697 38.1872L45.3711 38.2046C45.3711 38.2046 45.3937 37.4472 44.5511 37.4259C43.7084 37.4032 40.9897 37.5352 40.9897 37.5352C40.9897 37.5352 40.3004 37.5659 40.3057 38.2299C40.3097 38.8926 41.1524 38.8979 41.1524 38.8979L45.0044 38.9112C45.0044 38.9112 45.8751 38.9059 46.1791 38.9592C46.4817 39.0112 47.9457 39.0979 48.1217 40.3539C48.2977 41.6072 48.2191 42.2699 48.0151 42.9219C47.8124 43.5726 47.3471 44.0566 45.5111 44.1419C43.6777 44.2232 43.6217 44.2512 43.6217 44.2512L43.9724 45.0472L41.7151 45.8112L41.3231 45.0139L42.3777 44.1939L39.8511 44.2099C39.8511 44.2099 37.9764 44.2659 37.8524 42.8046L37.8031 41.5206Z" fill="#EE3536"/>
<path fill-rule="evenodd" clip-rule="evenodd" d="M60.7256 35.5641L60.7909 44.0574L63.3429 44.0401L63.3189 40.8441L64.6216 40.8361L68.3216 43.9814L72.1536 43.9534L66.7843 39.7374L71.5269 35.4441L68.0189 35.4707L64.6483 38.7081L63.3203 38.7161L63.2989 35.5254L60.7283 35.5441L60.7256 35.5641Z" fill="#EE3536"/>
<path fill-rule="evenodd" clip-rule="evenodd" d="M69.2275 39.783L73.9129 35.427L77.4502 35.4003L72.7315 39.619L78.1742 43.9283L74.3929 43.9537L69.2275 39.783Z" fill="#EE3536"/>
<path fill-rule="evenodd" clip-rule="evenodd" d="M50.9918 44.115L48.0918 44.1363L52.7118 35.5857L56.1611 35.5577L60.7945 44.027L57.9638 44.0483L57.1531 42.5337L51.7798 42.575L50.9918 44.115ZM52.6931 40.7883L56.2025 40.763L54.4078 37.4203L52.6931 40.7883Z" fill="#EE3536"/>
<path fill-rule="evenodd" clip-rule="evenodd" d="M28.1321 44.2833L25.2334 44.3059L29.8494 35.7526L33.3001 35.7273L37.9334 44.1979L35.1067 44.2179L34.2921 42.7046L28.9201 42.7446L28.1321 44.2833ZM29.8321 40.9593L33.3387 40.9286L31.5507 37.5899L29.8321 40.9593Z" fill="#EE3536"/>
<path fill-rule="evenodd" clip-rule="evenodd" d="M14.5494 44.4139L14.4854 35.8526L22.8774 35.7899C22.8774 35.7899 25.0587 35.7873 25.0187 37.8579C24.9827 39.9313 24.0814 39.8806 23.656 39.9433C23.656 39.9433 25.436 39.9113 25.3947 42.0139C25.3547 44.1099 24.0174 44.3139 23.16 44.3299C22.3067 44.3539 14.5494 44.4139 14.5494 44.4139ZM17.064 39.2019L21.6734 39.1673C21.6734 39.1673 22.4187 39.1766 22.4427 38.5966V38.3899C22.4427 38.3899 22.6014 37.6686 21.6494 37.6793C20.6974 37.6833 17.0547 37.7179 17.0547 37.7179L17.064 39.2019ZM17.0854 42.4326C17.0854 42.4326 21.476 42.3993 22.196 42.3793C22.9147 42.3633 22.7987 41.6859 22.7987 41.6859C22.82 40.9246 22.1294 40.8366 22.1294 40.8366L17.076 40.8739L17.0854 42.4326Z" fill="#EE3536"/>
<path fill-rule="evenodd" clip-rule="evenodd" d="M22.3974 49.4535L25.1014 49.4309C25.1054 49.8869 25.0987 50.1815 25.0894 50.3175C25.06 50.7229 24.9814 51.0042 24.8507 51.1549C24.7534 51.2695 24.6174 51.3549 24.4347 51.4175C24.1854 51.4989 23.616 51.5442 22.7227 51.5509C21.9814 51.5589 21.548 51.5562 21.4294 51.5469C20.8294 51.4935 20.4494 51.3429 20.2907 51.0975C20.1414 50.8589 20.06 50.3309 20.052 49.5082C20.0494 48.9722 20.0667 48.6015 20.1067 48.3989C20.2 47.9549 20.404 47.6789 20.728 47.5722C21.024 47.4749 21.6014 47.4229 22.46 47.4189C22.568 47.4189 22.7267 47.4189 22.9374 47.4229C23.1507 47.4269 23.3094 47.4295 23.4147 47.4295C23.7307 47.4269 23.9734 47.4402 24.1427 47.4735C24.4214 47.5189 24.64 47.6202 24.7854 47.7722C24.8854 47.8722 24.952 47.9895 24.996 48.1269C25.04 48.2695 25.064 48.4575 25.0654 48.6975L24.5014 48.7002C24.4974 48.3842 24.4534 48.1815 24.3614 48.0949C24.3107 48.0482 24.2347 48.0095 24.1307 47.9802C23.9854 47.9442 23.828 47.9229 23.6627 47.9229C23.5707 47.9255 23.4494 47.9229 23.304 47.9175C22.9507 47.9095 22.7067 47.9042 22.556 47.9069C21.5374 47.9149 20.9534 47.9882 20.8094 48.1269C20.6747 48.2562 20.6134 48.6882 20.6174 49.4255C20.6214 50.0402 20.6494 50.4495 20.7 50.6375C20.7547 50.8442 20.9107 50.9669 21.164 51.0042C21.4227 51.0469 22.0147 51.0642 22.9334 51.0562C23.3547 51.0509 23.628 51.0469 23.748 51.0335C24.1494 50.9922 24.3854 50.8989 24.4587 50.7482C24.524 50.6149 24.556 50.3415 24.5507 49.9269L22.4027 49.9442L22.3974 49.4535Z" fill="#65777E"/>
<path fill-rule="evenodd" clip-rule="evenodd" d="M32.8412 49.4008L34.8666 49.3861C35.3706 49.3794 35.6093 49.3794 35.5786 49.3794C35.9146 49.3634 36.1466 49.3154 36.2666 49.2354C36.4079 49.1448 36.4759 48.9168 36.4719 48.5554C36.4693 48.2448 36.4026 48.0434 36.2706 47.9554C36.1613 47.8768 35.9279 47.8328 35.5773 47.8154C35.5186 47.8154 35.2786 47.8154 34.8559 47.8181L32.8319 47.8328L32.8412 49.4008ZM32.3132 51.4754L32.2812 47.3501L34.8519 47.3341C35.4826 47.3261 35.9293 47.3408 36.1893 47.3728C36.5066 47.4114 36.7346 47.5461 36.8679 47.7728C36.9799 47.9581 37.0346 48.2181 37.0346 48.5608C37.0399 48.9874 36.9813 49.2701 36.8639 49.4034C36.7626 49.5168 36.5919 49.6021 36.3599 49.6554C36.6879 49.7101 36.8826 49.8781 36.9413 50.1594C36.9653 50.2728 36.9759 50.5061 36.9799 50.8528L36.9813 51.4408L36.4386 51.4448L36.4359 51.0488C36.4319 50.6874 36.4253 50.4554 36.4106 50.3568C36.3706 50.0968 36.2199 49.9461 35.9599 49.8981L35.6879 49.8781L34.8706 49.8754L32.8452 49.8901L32.8586 51.4714L32.3132 51.4754Z" fill="#65777E"/>
<path fill-rule="evenodd" clip-rule="evenodd" d="M44.1758 47.2639L44.7211 47.2573L44.7344 49.2919C44.7411 49.9466 44.7411 50.1879 44.7344 50.0199C44.7518 50.3959 44.8064 50.6226 44.9038 50.7133C45.0024 50.8106 45.2611 50.8706 45.6811 50.8879C45.8038 50.8959 46.0784 50.8986 46.5104 50.8933C47.2438 50.8879 47.7491 50.8653 48.0304 50.8133C48.1918 50.7879 48.3118 50.7373 48.3838 50.6533C48.4491 50.5746 48.4864 50.4519 48.4904 50.2906C48.5064 49.6759 48.5118 49.3373 48.5118 49.2639L48.4984 47.2306H49.0411L49.0571 49.2573C49.0611 49.8066 49.0558 50.1879 49.0344 50.3986C48.9878 50.9439 48.6878 51.2546 48.1344 51.3173C47.7651 51.3599 47.2691 51.3826 46.6464 51.3866C46.3811 51.3906 46.1571 51.3906 45.9718 51.3853L45.3984 51.3733C45.2838 51.3733 45.1344 51.3506 44.9478 51.3146C44.6758 51.2573 44.4731 51.1066 44.3464 50.8559C44.2891 50.7399 44.2478 50.5946 44.2291 50.4266C44.2291 50.3013 44.2211 50.1119 44.2091 49.8613C44.1984 49.6079 44.1904 49.4226 44.1904 49.2946L44.1758 47.2639Z" fill="#65777E"/>
<path fill-rule="evenodd" clip-rule="evenodd" d="M56.8734 50.813L59.0654 50.7943C59.4134 50.7943 59.6374 50.7876 59.7321 50.7823C60.0521 50.757 60.2641 50.7023 60.3681 50.6143C60.4747 50.5316 60.5241 50.3556 60.5241 50.0916C60.5174 49.8156 60.4601 49.6276 60.3427 49.5423C60.2521 49.4823 60.1347 49.4423 59.9921 49.4303C59.9801 49.429 59.8561 49.425 59.6174 49.4223C59.3867 49.417 59.1987 49.4143 59.0534 49.417L56.8641 49.4343L56.8734 50.813ZM56.8587 48.945L59.0481 48.9303C59.6401 48.9236 59.9947 48.8903 60.1147 48.817C60.2694 48.729 60.3467 48.5463 60.3441 48.2743C60.3427 48.017 60.2854 47.845 60.1787 47.7623C60.1121 47.7156 60.0294 47.6823 59.9201 47.6676C59.8881 47.665 59.8254 47.6583 59.7267 47.6556C59.5067 47.645 59.2761 47.6383 59.0387 47.6396L56.8494 47.6583L56.8587 48.945ZM56.3347 51.2983L56.3027 47.173L59.0334 47.153C59.4867 47.1503 59.7947 47.1583 59.9747 47.1756C60.3467 47.173 60.6174 47.3236 60.7867 47.6236C60.8654 47.765 60.9001 47.9596 60.9054 48.1996C60.9081 48.4436 60.8801 48.629 60.8227 48.7543C60.7494 48.9103 60.6094 49.025 60.4014 49.1036C60.6694 49.1436 60.8534 49.2543 60.9614 49.4343C61.0401 49.5756 61.0841 49.7983 61.0854 50.0916C61.0907 50.5036 61.0161 50.7876 60.8654 50.9476C60.7361 51.0863 60.5214 51.1743 60.2281 51.2263C60.1281 51.2396 60.0307 51.245 59.9347 51.245C59.8841 51.2476 59.7201 51.2543 59.4387 51.269C59.3014 51.2756 59.1787 51.2756 59.0681 51.2756L56.3347 51.2983Z" fill="#65777E"/>
<path fill-rule="evenodd" clip-rule="evenodd" d="M68.2217 47.0845L68.7657 47.0831L68.7857 49.1151C68.7857 49.7658 68.7883 50.0111 68.7857 49.8431C68.799 50.2165 68.8563 50.4471 68.951 50.5351C69.051 50.6311 69.3123 50.6871 69.7297 50.7111C69.8537 50.7138 70.127 50.7165 70.559 50.7138C71.2897 50.7111 71.799 50.6858 72.0777 50.6405C72.2417 50.6151 72.359 50.5578 72.4297 50.4791C72.5003 50.3965 72.5377 50.2725 72.5377 50.1138C72.5537 49.4991 72.563 49.1578 72.5617 49.0831L72.547 47.0525L73.0937 47.0471L73.1083 49.0818C73.1097 49.6271 73.103 50.0098 73.0843 50.2231C73.0363 50.7671 72.735 51.0751 72.1857 51.1418C71.8123 51.1831 71.319 51.2071 70.695 51.2138C70.4297 51.2138 70.2057 51.2138 70.0203 51.2098L69.4483 51.1978C69.331 51.1951 69.1817 51.1751 68.9977 51.1351C68.7217 51.0778 68.5217 50.9285 68.395 50.6805C68.3337 50.5631 68.2937 50.4205 68.2763 50.2471C68.2763 50.1245 68.271 49.9351 68.259 49.6805C68.247 49.4311 68.2403 49.2405 68.2403 49.1151L68.2217 47.0845Z" fill="#65777E"/>
</svg>
