<svg width="115" height="67" viewBox="0 0 115 67" fill="none" xmlns="http://www.w3.org/2000/svg">
<path fill-rule="evenodd" clip-rule="evenodd" d="M45.5391 30.3725C45.5645 28.1271 43.7618 26.2178 41.4085 26.2111C39.1671 26.2058 37.2591 27.9458 37.2565 30.3525C37.2538 32.7071 39.0898 34.5018 41.4031 34.4991C43.8258 34.4951 45.5445 32.5471 45.5391 30.3725ZM45.1698 24.5991C45.0938 24.8938 45.0351 25.1418 44.9645 25.3858C44.9165 25.5498 44.9525 25.6618 45.0911 25.7711C45.3045 25.9405 45.5071 26.1271 45.6951 26.3245C45.8165 26.4525 45.9285 26.4765 46.0898 26.4151C46.3031 26.3338 46.5205 26.2578 46.7431 26.2138C46.8258 26.1965 46.9658 26.2458 47.0138 26.3125C47.1845 26.5471 47.3378 26.7951 47.4711 27.0525C47.5098 27.1271 47.4885 27.2765 47.4351 27.3445C47.2925 27.5231 47.1045 27.6645 46.9645 27.8431C46.9005 27.9231 46.8631 28.0658 46.8858 28.1631C46.9605 28.4685 47.0578 28.7711 47.1698 29.0671C47.2031 29.1538 47.2951 29.2498 47.3818 29.2805C47.5791 29.3498 47.7885 29.4005 47.9965 29.4231C48.2005 29.4458 48.2751 29.5605 48.2831 29.7351C48.2951 30.0165 48.2991 30.3005 48.2831 30.5805C48.2791 30.6485 48.1898 30.7418 48.1178 30.7685C47.8405 30.8751 47.4751 30.8831 47.2938 31.0725C47.1218 31.2525 47.1778 31.6298 47.0645 31.8911C46.9191 32.2245 47.0338 32.4125 47.2778 32.6285C47.7525 33.0458 47.7391 33.0605 47.4445 33.6018C47.1538 34.1338 47.1458 34.1591 46.5485 33.9751C46.2031 33.8671 45.9738 33.9205 45.7725 34.2165C45.6685 34.3685 45.5271 34.4978 45.3831 34.6125C45.2178 34.7445 45.1911 34.8831 45.2671 35.0738C45.3445 35.2698 45.3871 35.4778 45.4618 35.6751C45.5151 35.8151 45.4925 35.8991 45.3551 35.9751C45.1031 36.1178 44.8551 36.2711 44.6138 36.4325C44.4938 36.5125 44.4125 36.4951 44.3178 36.3938C44.1565 36.2191 43.9751 36.0631 43.8165 35.8871C43.7031 35.7618 43.5911 35.7538 43.4405 35.8045C43.1658 35.8951 42.8791 35.9525 42.6111 36.0565C42.5111 36.0951 42.4151 36.2191 42.3791 36.3245C42.3018 36.5578 42.2765 36.8058 42.2058 37.0405C42.1845 37.1098 42.0871 37.1938 42.0178 37.2018C41.7111 37.2351 41.4031 37.2538 41.0965 37.2485C41.0258 37.2471 40.9231 37.1431 40.8938 37.0631C40.8058 36.8245 40.7645 36.5685 40.6698 36.3338C40.6311 36.2365 40.5111 36.1405 40.4058 36.1045C40.1578 36.0205 39.8938 35.9845 39.6431 35.9071C39.4711 35.8538 39.3498 35.8658 39.2311 36.0178C39.0791 36.2125 38.9085 36.3938 38.7285 36.5605C38.6711 36.6125 38.5351 36.6351 38.4671 36.6031C38.2125 36.4858 37.9725 36.3365 37.7218 36.2071C37.5831 36.1365 37.5311 36.0525 37.5791 35.8898C37.6618 35.6045 37.8285 35.2805 37.7591 35.0285C37.6898 34.7805 37.3511 34.6165 37.1671 34.3871C36.9818 34.1591 36.7898 34.0951 36.5311 34.2351C36.5098 34.2471 36.4805 34.2485 36.4565 34.2565C35.7885 34.4685 35.7858 34.4698 35.4218 33.8591C35.1151 33.3458 35.0378 33.4658 35.5258 33.0285C35.8645 32.7245 35.9111 32.4618 35.7925 32.0111C35.6551 31.4925 35.4205 31.2778 34.9098 31.2191C34.4258 31.1645 34.4311 31.1285 34.4311 30.6298C34.4311 30.6031 34.4298 30.5765 34.4311 30.5498C34.4498 29.7178 34.2938 29.9551 35.0711 29.7018C35.1125 29.6871 35.1551 29.6751 35.1991 29.6711C35.5031 29.6431 35.6365 29.4671 35.6485 29.1725C35.6525 29.0951 35.6658 29.0098 35.7018 28.9431C35.9365 28.5111 35.7498 28.2338 35.4098 27.9511C34.9565 27.5765 34.9751 27.5538 35.2631 27.0338C35.5685 26.4791 35.5791 26.4485 36.1751 26.6405C36.5925 26.7751 36.8298 26.6738 37.1471 26.3685C37.5298 26.0005 37.5445 25.6911 37.3658 25.2485C37.1671 24.7578 37.1938 24.7471 37.6471 24.4685L37.6698 24.4551C38.2645 24.0871 38.2805 24.0738 38.7671 24.5951C39.0191 24.8658 39.2285 24.8991 39.6018 24.8071C40.1458 24.6738 40.3725 24.4178 40.4458 23.8751C40.5245 23.3018 40.4525 23.4151 41.0165 23.4018C41.1405 23.3978 41.2631 23.4005 41.3871 23.3978C41.7818 23.3885 41.8098 23.3831 41.8871 23.7858C41.9845 24.2991 42.1778 24.6138 42.7738 24.6711C43.1511 24.7071 43.4045 24.7311 43.6738 24.4058C44.0845 23.9071 44.1125 23.9325 44.6978 24.2445C44.8138 24.3071 44.9351 24.3631 45.0418 24.4391C45.1045 24.4831 45.1405 24.5605 45.1698 24.5991Z" fill="#106AB4"/>
<path fill-rule="evenodd" clip-rule="evenodd" d="M93.3209 30.2591C94.1489 30.2591 94.9516 30.2991 95.7463 30.2471C96.4236 30.2031 96.6863 29.9431 96.7583 29.2885C96.8143 28.7858 96.8076 28.2645 96.7489 27.7618C96.6769 27.1631 96.3756 26.8885 95.7689 26.8631C94.9689 26.8311 94.1676 26.8591 93.3663 26.8631L93.3209 26.9031V30.2591ZM100.366 36.0018H99.4463C99.0836 36.0018 98.7236 36.0031 98.3609 36.0005C98.0356 35.9978 97.6583 36.0911 97.4009 35.9551C97.1423 35.8205 97.0009 35.4578 96.8116 35.1925C96.2156 34.3538 95.6156 33.5151 95.0263 32.6698C94.9196 32.5165 94.8089 32.4458 94.6169 32.4525C94.1956 32.4671 93.7743 32.4578 93.3116 32.4578V35.9885H90.8223V24.6218C90.9116 24.6178 91.0036 24.6098 91.0969 24.6098C92.6049 24.6085 94.1129 24.5938 95.6196 24.6151C96.3303 24.6258 97.0409 24.6951 97.7089 24.9765C98.6476 25.3711 99.1449 26.1058 99.2329 27.0858C99.3049 27.8991 99.3196 28.7231 99.2849 29.5391C99.2383 30.6431 98.8209 31.5565 97.7396 32.0418C97.7103 32.0538 97.6876 32.0831 97.6356 32.1258C98.5383 33.4071 99.4369 34.6818 100.366 36.0018Z" fill="#EC6630"/>
<path fill-rule="evenodd" clip-rule="evenodd" d="M27.0306 28.5581C27.0306 29.0527 27.0319 29.5461 27.0279 30.0394C27.0279 30.1981 27.0746 30.2821 27.2546 30.2807C27.9866 30.2727 28.7186 30.2994 29.4506 30.2701C29.9866 30.2487 30.4759 30.0527 30.5239 29.3434C30.5559 28.8434 30.5932 28.3367 30.5452 27.8407C30.4772 27.1354 30.1066 26.8447 29.3972 26.8407C28.7106 26.8394 28.0226 26.8527 27.3359 26.8354C27.0786 26.8287 27.0199 26.9261 27.0266 27.1567C27.0386 27.6234 27.0292 28.0914 27.0306 28.5581ZM34.0812 35.9927H32.9172C32.4226 35.9927 31.9292 35.9794 31.4372 35.9981C31.2159 36.0074 31.0999 35.9061 30.9866 35.7461C30.2546 34.7114 29.5159 33.6807 28.7879 32.6421C28.6826 32.4927 28.5706 32.4394 28.3946 32.4461C28.0332 32.4554 27.6706 32.4594 27.3106 32.4434C27.0852 32.4341 27.0239 32.5221 27.0266 32.7354C27.0332 33.7127 27.0212 34.6914 27.0346 35.6701C27.0386 35.9247 26.9612 36.0047 26.7066 35.9981C26.0892 35.9807 25.4719 35.9861 24.8559 35.9954C24.6546 35.9994 24.5732 35.9407 24.5732 35.7274C24.5786 32.1127 24.5786 28.4981 24.5732 24.8847C24.5732 24.6714 24.6519 24.6141 24.8546 24.6141C26.3439 24.6207 27.8332 24.6007 29.3239 24.6261C29.9799 24.6381 30.6386 24.6927 31.2706 24.9194C32.3266 25.3007 32.9612 26.1487 33.0026 27.2741C33.0266 27.8981 33.0652 28.5234 33.0466 29.1474C33.0332 29.5821 32.9746 30.0247 32.8679 30.4474C32.6946 31.1301 32.2599 31.6274 31.6319 31.9527C31.3492 32.0994 31.3492 32.1007 31.5426 32.3741C32.3452 33.5101 33.1492 34.6461 33.9506 35.7834C33.9906 35.8367 34.0226 35.8967 34.0812 35.9927Z" fill="#106AB4"/>
<path fill-rule="evenodd" clip-rule="evenodd" d="M64.8434 31.6665C64.4021 30.0531 63.9714 28.4705 63.5407 26.8878C63.5127 26.8905 63.4847 26.8931 63.4581 26.8958C63.0221 28.4758 62.5874 30.0545 62.1421 31.6665H64.8434ZM68.6781 36.0011H68.1314C67.5221 36.0011 66.9141 35.9931 66.3061 36.0065C66.1194 36.0118 66.0447 35.9465 66.0007 35.7758C65.8461 35.1811 65.6767 34.5918 65.5194 33.9985C65.4781 33.8438 65.4114 33.7731 65.2327 33.7745C64.0861 33.7838 62.9407 33.7825 61.7941 33.7771C61.6274 33.7758 61.5487 33.8185 61.5047 33.9945C61.3487 34.6065 61.1741 35.2131 60.9927 35.8171C60.9714 35.8918 60.8634 35.9918 60.7941 35.9931C59.9927 36.0051 59.1914 36.0011 58.3447 36.0011C58.4247 35.7278 58.4967 35.4811 58.5714 35.2345C59.6207 31.7878 60.6727 28.3425 61.7154 24.8945C61.7834 24.6718 61.8781 24.5985 62.1154 24.6025C63.0594 24.6185 64.0021 24.6131 64.9461 24.6051C65.1207 24.6038 65.2074 24.6438 65.2634 24.8265C66.3781 28.4905 67.5007 32.1518 68.6221 35.8145C68.6367 35.8625 68.6501 35.9118 68.6781 36.0011Z" fill="#EC6630"/>
<path fill-rule="evenodd" clip-rule="evenodd" d="M82.8888 31.655H85.5861C85.1461 30.0403 84.7154 28.4643 84.2861 26.8883C84.2608 26.8856 84.2354 26.883 84.2101 26.8803C83.7728 28.459 83.3368 30.0363 82.8888 31.655ZM89.4061 35.9843H86.8141C86.6328 35.339 86.4434 34.6936 86.2728 34.043C86.2221 33.8523 86.1528 33.7723 85.9408 33.775C84.8128 33.7856 83.6848 33.783 82.5568 33.7763C82.3794 33.775 82.2954 33.819 82.2474 34.007C82.0928 34.6176 81.9154 35.223 81.7341 35.8283C81.7128 35.8963 81.6181 35.9923 81.5568 35.9936C80.7474 36.0043 79.9381 36.0016 79.0928 36.0016C79.1648 35.7483 79.2261 35.5243 79.2941 35.299C80.3461 31.847 81.4034 28.395 82.4488 24.939C82.5248 24.6883 82.6221 24.595 82.8954 24.6016C83.8288 24.6216 84.7634 24.615 85.6981 24.6043C85.8834 24.6016 85.9608 24.663 86.0114 24.8323C87.1234 28.4776 88.2394 32.1216 89.3541 35.767C89.3728 35.8323 89.3861 35.8976 89.4061 35.9843Z" fill="#EC6630"/>
<path fill-rule="evenodd" clip-rule="evenodd" d="M52.5332 26.8498C52.5332 27.9991 52.5319 29.1005 52.5399 30.2005C52.5399 30.2565 52.6345 30.3605 52.6839 30.3591C53.4825 30.3525 54.2852 30.3645 55.0825 30.3005C55.6065 30.2578 55.8785 29.9018 55.8959 29.3645C55.9119 28.8378 55.9119 28.3098 55.8959 27.7831C55.8799 27.3018 55.6172 26.9898 55.1385 26.9111C54.8119 26.8565 54.4759 26.8578 54.1425 26.8525C53.6172 26.8431 53.0905 26.8498 52.5332 26.8498ZM52.5319 35.9885H50.0479V24.6098H50.3305C51.8025 24.6098 53.2745 24.5965 54.7452 24.6151C55.4105 24.6245 56.0759 24.6885 56.7132 24.9218C57.7745 25.3125 58.3132 26.1111 58.3919 27.1951C58.4532 28.0365 58.4412 28.8858 58.4039 29.7285C58.3292 31.3938 57.3652 32.0698 56.2052 32.3418C55.7572 32.4471 55.2865 32.4871 54.8252 32.5058C54.1652 32.5325 53.5039 32.5218 52.8425 32.5085C52.6079 32.5045 52.5225 32.5605 52.5265 32.8138C52.5412 33.7658 52.5319 34.7178 52.5319 35.6698V35.9885Z" fill="#EC6630"/>
<path fill-rule="evenodd" clip-rule="evenodd" d="M17.0279 26.8405C17.0279 27.9938 17.0305 29.0938 17.0265 30.1938C17.0252 30.3778 17.1345 30.3845 17.2692 30.3845C17.7612 30.3818 18.2545 30.3898 18.7479 30.3805C19.0199 30.3765 19.2932 30.3592 19.5625 30.3272C20.0279 30.2712 20.3732 29.9498 20.4052 29.5165C20.4399 29.0352 20.4652 28.5498 20.4505 28.0685C20.4239 27.1752 20.0612 26.8418 19.1679 26.8405H18.0052H17.0279ZM14.5399 30.2778C14.5399 28.4978 14.5452 26.7178 14.5332 24.9378C14.5332 24.6778 14.6145 24.6112 14.8652 24.6138C16.2932 24.6245 17.7212 24.6005 19.1479 24.6258C19.8225 24.6365 20.4985 24.6898 21.1479 24.9178C22.2759 25.3138 22.8252 26.1498 22.8919 27.3445C22.9345 28.1165 22.9079 28.8938 22.8999 29.6698C22.8865 30.9832 22.1399 31.9658 20.8559 32.2792C20.3079 32.4138 19.7319 32.4592 19.1639 32.4938C18.5759 32.5285 17.9839 32.5005 17.3932 32.5018C17.0279 32.5018 17.0279 32.5018 17.0279 32.8552C17.0279 33.8072 17.0212 34.7592 17.0319 35.7112C17.0332 35.9325 16.9585 36.0005 16.7425 35.9965C16.1159 35.9845 15.4905 35.9818 14.8652 35.9978C14.6132 36.0032 14.5332 35.9298 14.5332 35.6725C14.5452 33.8738 14.5399 32.0765 14.5399 30.2778Z" fill="#106AB4"/>
<path fill-rule="evenodd" clip-rule="evenodd" d="M69.7947 35.9827C69.7947 35.4881 69.8187 35.0041 69.788 34.5227C69.76 34.1041 69.8867 33.7721 70.128 33.4307C71.62 31.3147 73.0933 29.1854 74.5707 27.0614C74.644 26.9547 74.712 26.8467 74.8187 26.6841H74.4547H70.3827C70.0173 26.6841 70.0173 26.6841 70.0173 26.3081V24.6241C70.1253 24.6174 70.2093 24.6094 70.2947 24.6094C72.64 24.6094 74.9853 24.6134 77.3293 24.6041C77.5827 24.6014 77.6427 24.6827 77.6373 24.9174C77.6227 25.4281 77.644 25.9401 77.6253 26.4507C77.62 26.6067 77.5667 26.7827 77.48 26.9107C75.956 29.1321 74.4213 31.3467 72.8907 33.5654C72.8187 33.6694 72.7507 33.7774 72.6373 33.9494H77.6987V35.9827H69.7947Z" fill="#EC6630"/>
<path d="M15.0979 40.6727C15.1552 40.6861 15.2272 40.6901 15.3245 40.6901C15.6885 40.6901 15.9112 40.5061 15.9112 40.1994C15.9112 39.9221 15.7192 39.7567 15.3792 39.7567C15.2405 39.7567 15.1472 39.7701 15.0979 39.7834V40.6727ZM14.4219 39.3061C14.6339 39.2701 14.9272 39.2421 15.3432 39.2421C15.7645 39.2421 16.0619 39.3234 16.2645 39.4834C16.4565 39.6354 16.5859 39.8861 16.5859 40.1794C16.5859 40.4767 16.4872 40.7261 16.3085 40.8967C16.0752 41.1141 15.7325 41.2141 15.3285 41.2141C15.2405 41.2141 15.1605 41.2087 15.0979 41.1994V42.2767H14.4219V39.3061Z" fill="#19171C"/>
<path d="M17.6948 40.6007H17.9642C18.3042 40.6007 18.5028 40.4314 18.5028 40.1674C18.5028 39.8901 18.3175 39.7514 18.0042 39.7474C17.8388 39.7474 17.7455 39.7607 17.6948 39.7701V40.6007ZM17.0215 39.3061C17.2388 39.2701 17.5668 39.2421 17.9268 39.2421C18.3748 39.2421 18.6882 39.3101 18.9028 39.4781C19.0802 39.6234 19.1788 39.8327 19.1788 40.1087C19.1788 40.4941 18.9068 40.7567 18.6495 40.8514V40.8647C18.8562 40.9501 18.9735 41.1501 19.0508 41.4287C19.1442 41.7661 19.2388 42.1621 19.2962 42.2767H18.5988C18.5495 42.1927 18.4788 41.9461 18.3882 41.5754C18.3082 41.1994 18.1775 41.0967 17.9015 41.0927H17.6948V42.2767H17.0215V39.3061Z" fill="#19171C"/>
<path d="M20.2362 40.7802C20.2362 41.3695 20.5122 41.7855 20.9682 41.7855C21.4296 41.7855 21.6936 41.3468 21.6936 40.7615C21.6936 40.2202 21.4336 39.7562 20.9642 39.7562C20.5042 39.7562 20.2362 40.1948 20.2362 40.7802ZM22.4122 40.7388C22.4122 41.7282 21.8136 42.3255 20.9336 42.3255C20.0389 42.3255 19.5176 41.6522 19.5176 40.7935C19.5176 39.8895 20.0936 39.2148 20.9829 39.2148C21.9082 39.2148 22.4122 39.9082 22.4122 40.7388Z" fill="#19171C"/>
<path d="M22.8613 39.2645H24.7027V39.8245H23.5453V40.5125H24.6267V41.0658H23.5453V42.2765H22.8613V39.2645Z" fill="#19171C"/>
<path d="M27.0111 41.0039H25.9018V41.7173H27.1404V42.2773H25.2178V39.2639H27.0778V39.8239H25.9018V40.4479H27.0111V41.0039Z" fill="#19171C"/>
<path d="M27.6302 41.5758C27.8129 41.6691 28.0942 41.7625 28.3849 41.7625C28.6982 41.7625 28.8622 41.6345 28.8622 41.4371C28.8622 41.2491 28.7196 41.1425 28.3596 41.0118C27.8596 40.8385 27.5316 40.5611 27.5316 40.1225C27.5316 39.6078 27.9609 39.2145 28.6716 39.2145C29.0116 39.2145 29.2609 39.2865 29.4396 39.3665L29.2876 39.9185C29.1676 39.8598 28.9516 39.7745 28.6582 39.7745C28.3636 39.7745 28.2209 39.9091 28.2209 40.0638C28.2209 40.2571 28.3889 40.3411 28.7796 40.4905C29.3102 40.6851 29.5596 40.9625 29.5596 41.3878C29.5596 41.8918 29.1716 42.3211 28.3449 42.3211C28.0009 42.3211 27.6609 42.2318 27.4902 42.1385L27.6302 41.5758Z" fill="#19171C"/>
<path d="M30.7192 42.2768V41.0448L29.7686 39.2648H30.5459L30.8552 39.9875C30.9472 40.2075 31.0112 40.3702 31.0872 40.5662H31.0952C31.1619 40.3782 31.2339 40.2035 31.3246 39.9875L31.6272 39.2648H32.3912L31.3992 41.0208V42.2768H30.7192Z" fill="#19171C"/>
<path d="M33.0901 40.7802C33.0901 41.3695 33.3661 41.7855 33.8235 41.7855C34.2835 41.7855 34.5475 41.3468 34.5475 40.7615C34.5475 40.2202 34.2888 39.7562 33.8181 39.7562C33.3581 39.7562 33.0901 40.1948 33.0901 40.7802ZM35.2661 40.7388C35.2661 41.7282 34.6688 42.3255 33.7875 42.3255C32.8928 42.3255 32.3701 41.6522 32.3701 40.7935C32.3701 39.8895 32.9475 39.2148 33.8368 39.2148C34.7621 39.2148 35.2661 39.9082 35.2661 40.7388Z" fill="#19171C"/>
<path d="M35.7158 42.2768V39.2648H36.5118L37.1385 40.3702C37.3158 40.6862 37.4945 41.0622 37.6292 41.4008H37.6412C37.5972 41.0035 37.5838 40.5968 37.5838 40.1462V39.2648H38.2105V42.2768H37.4945L36.8505 41.1142C36.6745 40.7928 36.4758 40.4048 36.3278 40.0515L36.3158 40.0555C36.3332 40.4542 36.3425 40.8795 36.3425 41.3702V42.2768H35.7158Z" fill="#19171C"/>
<path d="M40.5941 41.0039H39.4848V41.7173H40.7234V42.2773H38.8008V39.2639H40.6621V39.8239H39.4848V40.4479H40.5941V41.0039Z" fill="#19171C"/>
<path d="M41.1895 39.2645H41.8735V41.7045H43.0721V42.2765H41.1895V39.2645Z" fill="#19171C"/>
<path d="M44.4149 38.7863C44.4149 38.613 44.5536 38.4783 44.7269 38.4783C44.8989 38.4783 45.0269 38.613 45.0269 38.7863C45.0269 38.9477 44.8989 39.0903 44.7269 39.0903C44.5496 39.0903 44.4149 38.9477 44.4149 38.7863ZM45.0629 42.277H44.3789V39.265H45.0629V42.277Z" fill="#19171C"/>
<path d="M45.6758 41.5758C45.8584 41.6691 46.1398 41.7625 46.4318 41.7625C46.7424 41.7625 46.9091 41.6345 46.9091 41.4371C46.9091 41.2491 46.7664 41.1425 46.4038 41.0118C45.9024 40.8385 45.5758 40.5611 45.5758 40.1225C45.5758 39.6078 46.0064 39.2145 46.7158 39.2145C47.0558 39.2145 47.3064 39.2865 47.4851 39.3665L47.3331 39.9185C47.2118 39.8598 46.9984 39.7745 46.7024 39.7745C46.4078 39.7745 46.2651 39.9091 46.2651 40.0638C46.2651 40.2571 46.4358 40.3411 46.8238 40.4905C47.3571 40.6851 47.6064 40.9625 47.6064 41.3878C47.6064 41.8118 47.3278 42.1825 46.7424 42.2905L46.6438 42.4745C46.8144 42.4958 46.9664 42.6171 46.9664 42.7918C46.9664 43.0825 46.7024 43.1891 46.4278 43.1891C46.2784 43.1891 46.1531 43.1531 46.0638 43.0998L46.1531 42.8451C46.2291 42.8905 46.3291 42.9198 46.3984 42.9198C46.4798 42.9198 46.5558 42.8905 46.5558 42.8051C46.5558 42.7198 46.4531 42.6625 46.2078 42.6438L46.3718 42.3211H46.3598C46.1011 42.3211 45.7384 42.2465 45.5371 42.1385L45.6758 41.5758Z" fill="#19171C"/>
<path d="M51.4887 42.1388C51.2781 42.2108 50.8807 42.3094 50.4847 42.3094C49.9341 42.3094 49.5341 42.1708 49.2581 41.9014C48.9794 41.6428 48.8301 41.2494 48.8341 40.8068C48.8381 39.8054 49.5674 39.2334 50.5541 39.2334C50.9434 39.2334 51.2434 39.3108 51.3901 39.3801L51.2474 39.9254C51.0821 39.8548 50.8767 39.7974 50.5461 39.7974C49.9781 39.7974 49.5474 40.1174 49.5474 40.7708C49.5474 41.3921 49.9381 41.7588 50.4981 41.7588C50.6527 41.7588 50.7781 41.7414 50.8314 41.7134V41.0841H50.3674V40.5521H51.4887V42.1388Z" fill="#19171C"/>
<path d="M53.4389 38.7863C53.4389 38.613 53.5682 38.4783 53.7429 38.4783C53.9122 38.4783 54.0416 38.613 54.0416 38.7863C54.0416 38.9517 53.9162 39.0903 53.7429 39.0903C53.5629 39.0903 53.4389 38.9517 53.4389 38.7863ZM52.5082 38.7863C52.5082 38.613 52.6429 38.4783 52.8176 38.4783C52.9829 38.4783 53.1122 38.613 53.1122 38.7863C53.1122 38.9517 52.9869 39.0903 52.8176 39.0903C52.6376 39.0903 52.5082 38.9517 52.5082 38.7863ZM52.7016 39.265V40.9997C52.7016 41.5183 52.8976 41.781 53.2469 41.781C53.6042 41.781 53.8002 41.5303 53.8002 40.9997V39.265H54.4789V40.9543C54.4789 41.8837 54.0109 42.3263 53.2229 42.3263C52.4642 42.3263 52.0176 41.9063 52.0176 40.9463V39.265H52.7016Z" fill="#19171C"/>
<path d="M55.7817 42.2768L54.8164 39.2648H55.5631L55.9297 40.5382C56.0324 40.8968 56.1257 41.2395 56.1991 41.6155H56.2124C56.2871 41.2528 56.3817 40.8968 56.4844 40.5515L56.8697 39.2648H57.5937L56.5777 42.2768H55.7817Z" fill="#19171C"/>
<path d="M59.7086 41.0039H58.6006V41.7173H59.8393V42.2773H57.918V39.2639H59.7766V39.8239H58.6006V40.4479H59.7086V41.0039Z" fill="#19171C"/>
<path d="M60.3057 42.2768V39.2648H61.1017L61.727 40.3702C61.9057 40.6862 62.0843 41.0622 62.219 41.4008H62.2323C62.187 41.0035 62.1737 40.5968 62.1737 40.1462V39.2648H62.8003V42.2768H62.0843L61.4417 41.1142C61.2603 40.7928 61.0657 40.4048 60.9177 40.0515L60.9043 40.0555C60.923 40.4542 60.931 40.8795 60.931 41.3702V42.2768H60.3057Z" fill="#19171C"/>
<path d="M63.3916 39.2645H64.0756V41.7045H65.2716V42.2765H63.3916V39.2645Z" fill="#19171C"/>
<path d="M65.7124 38.7863C65.7124 38.613 65.8497 38.4783 66.0244 38.4783C66.1951 38.4783 66.3244 38.613 66.3244 38.7863C66.3244 38.9477 66.1951 39.0903 66.0244 39.0903C65.8457 39.0903 65.7124 38.9477 65.7124 38.7863ZM66.3617 42.277H65.6777V39.265H66.3617V42.277Z" fill="#19171C"/>
<path d="M68.0766 38.5182C68.0913 38.6168 68.1526 38.7235 68.3406 38.7235C68.5286 38.7235 68.6006 38.6248 68.6233 38.5182H68.966C68.962 38.8448 68.77 39.0808 68.3406 39.0808C67.9033 39.0808 67.7246 38.8448 67.7153 38.5182H68.0766ZM69.4673 42.1382C69.2566 42.2115 68.8593 42.3088 68.4633 42.3088C67.9126 42.3088 67.514 42.1702 67.238 41.9008C66.9593 41.6435 66.8073 41.2488 66.8126 40.8062C66.8166 39.8048 67.546 39.2328 68.5326 39.2328C68.9233 39.2328 69.2206 39.3102 69.3673 39.3795L69.226 39.9248C69.0606 39.8555 68.8553 39.7968 68.5246 39.7968C67.9566 39.7968 67.5273 40.1182 67.5273 40.7702C67.5273 41.3915 67.918 41.7582 68.4753 41.7582C68.6313 41.7582 68.7566 41.7408 68.81 41.7128V41.0848H68.3473V40.5515H69.4673V42.1382Z" fill="#19171C"/>
<path d="M70.036 38.7863C70.036 38.613 70.1733 38.4783 70.3493 38.4783C70.5187 38.4783 70.6467 38.613 70.6467 38.7863C70.6467 38.9477 70.5187 39.0903 70.3493 39.0903C70.1693 39.0903 70.036 38.9477 70.036 38.7863ZM70.684 42.277H70V39.265H70.684V42.277Z" fill="#19171C"/>
<path d="M74.727 41.1239C74.7136 40.7626 74.7003 40.3239 74.7003 39.8866H74.687C74.5923 40.2706 74.4683 40.6999 74.3523 41.0533L73.9856 42.2279H73.4523L73.131 41.0613C73.0323 40.7079 72.9296 40.2799 72.859 39.8866H72.8496C72.8323 40.2919 72.8176 40.7573 72.795 41.1319L72.743 42.2773H72.1123L72.3043 39.2639H73.2123L73.507 40.2706C73.6003 40.6186 73.695 40.9959 73.7616 41.3466H73.775C73.8603 40.9999 73.9616 40.6013 74.0603 40.2653L74.383 39.2639H75.2723L75.4376 42.2773H74.7723L74.727 41.1239Z" fill="#19171C"/>
<path d="M77.4148 40.9954L77.2268 40.3554C77.1735 40.1754 77.1202 39.9527 77.0748 39.7754H77.0655C77.0215 39.9527 76.9762 40.1794 76.9282 40.3554L76.7482 40.9954H77.4148ZM76.6508 41.5034L76.4362 42.2767H75.7295L76.6508 39.2647H77.5442L78.4775 42.2767H77.7455L77.5135 41.5034H76.6508Z" fill="#19171C"/>
<path d="M78.8828 39.2645H79.5668V41.7045H80.7655V42.2765H78.8828V39.2645Z" fill="#19171C"/>
<path d="M80.9756 41.911L82.4116 39.8457V39.8283H81.1103V39.2643H83.2943V39.6577L81.8916 41.6963V41.7137H83.3183V42.2763H80.9756V41.911Z" fill="#19171C"/>
<path d="M85.541 41.0039H84.433V41.7173H85.6704V42.2773H83.749V39.2639H85.6077V39.8239H84.433V40.4479H85.541V41.0039Z" fill="#19171C"/>
<path d="M88.686 41.1239C88.6713 40.7626 88.658 40.3239 88.658 39.8866H88.646C88.5513 40.2706 88.426 40.6999 88.31 41.0533L87.9433 42.2279H87.41L87.0913 41.0613C86.9926 40.7079 86.8886 40.2799 86.8166 39.8866H86.8086C86.79 40.2919 86.7766 40.7573 86.7553 41.1319L86.7006 42.2773H86.0713L86.262 39.2639H87.17L87.466 40.2706C87.5606 40.6186 87.654 40.9959 87.7193 41.3466H87.7326C87.818 40.9999 87.9206 40.6013 88.0206 40.2653L88.342 39.2639H89.23L89.3966 42.2773H88.73L88.686 41.1239Z" fill="#19171C"/>
<path d="M91.7129 41.0039H90.6049V41.7173H91.8436V42.2773H89.9209V39.2639H91.7809V39.8239H90.6049V40.4479H91.7129V41.0039Z" fill="#19171C"/>
<path d="M92.3096 39.2645H92.9936V41.7045H94.1922V42.2765H92.3096V39.2645Z" fill="#19171C"/>
<path d="M96.3871 41.0039H95.2791V41.7173H96.5178V42.2773H94.5938V39.2639H96.4551V39.8239H95.2791V40.4479H96.3871V41.0039Z" fill="#19171C"/>
<path d="M97.6581 40.6007H97.9274C98.2661 40.6007 98.4661 40.4314 98.4661 40.1674C98.4661 39.8901 98.2794 39.7514 97.9661 39.7474C97.7994 39.7474 97.7061 39.7607 97.6581 39.7701V40.6007ZM96.9834 39.3061C97.2007 39.2701 97.5274 39.2421 97.8901 39.2421C98.3367 39.2421 98.6501 39.3101 98.8647 39.4781C99.0434 39.6234 99.1421 39.8327 99.1421 40.1087C99.1421 40.4941 98.8687 40.7567 98.6101 40.8514V40.8647C98.8194 40.9501 98.9354 41.1501 99.0114 41.4287C99.1061 41.7661 99.2007 42.1621 99.2581 42.2767H98.5607C98.5114 42.1927 98.4394 41.9461 98.3501 41.5754C98.2714 41.1994 98.1394 41.0967 97.8621 41.0927H97.6581V42.2767H96.9834V39.3061Z" fill="#19171C"/>
<path d="M99.6711 38.7863C99.6711 38.613 99.8098 38.4783 99.9831 38.4783C100.154 38.4783 100.283 38.613 100.283 38.7863C100.283 38.9477 100.154 39.0903 99.9831 39.0903C99.8045 39.0903 99.6711 38.9477 99.6711 38.7863ZM100.318 42.277H99.6338V39.265H100.318V42.277Z" fill="#19171C"/>
</svg>
