<svg width="115" height="67" viewBox="0 0 115 67" fill="none" xmlns="http://www.w3.org/2000/svg">
<path d="M76.487 33.2923C76.487 43.8363 67.9403 52.383 57.3963 52.383C46.851 52.383 38.3057 43.8363 38.3057 33.2923C38.3057 22.7483 46.851 14.2003 57.3963 14.2003C67.9403 14.2003 76.487 22.7483 76.487 33.2923Z" fill="white"/>
<path d="M57.397 15.5491C67.193 15.5491 75.1396 23.4958 75.1396 33.2918C75.1396 43.0891 67.193 51.0358 57.397 51.0358C47.601 51.0358 39.6543 43.0891 39.6543 33.2918C39.6543 23.4958 47.601 15.5491 57.397 15.5491Z" fill="#085494"/>
<path d="M65.7942 20.0014C68.3582 22.3041 69.9715 25.6441 69.9715 29.3601C69.9715 36.3067 64.3409 41.9401 57.3969 41.9401C50.4502 41.9401 44.8169 36.3067 44.8169 29.3601C44.8169 25.6441 46.4329 22.3041 48.9969 20.0014C44.5955 22.7881 41.6729 27.7001 41.6729 33.2921C41.6729 41.9734 48.7142 49.0161 57.3969 49.0161C66.0755 49.0161 73.1182 41.9734 73.1182 33.2921C73.1182 27.7001 70.1955 22.7881 65.7942 20.0014Z" fill="#FBDD31"/>
<path d="M66.3927 23.7514L66.2074 24.714L65.2354 24.8327L66.0927 25.3074L65.9034 26.2687L66.6207 25.6007L67.478 26.0767L67.0634 25.1874L67.778 24.5207L66.8087 24.638L66.3927 23.7514Z" fill="white"/>
<path d="M67.477 32.6471L66.6197 33.1218L65.9024 32.4538L66.0917 33.4151L65.2344 33.8911L66.2064 34.0084L66.3917 34.9711L66.8077 34.0831L67.7784 34.2018L67.0624 33.5351L67.477 32.6471Z" fill="white"/>
<path d="M47.3154 32.6471L48.1727 33.1218L48.8887 32.4538L48.6994 33.4151L49.558 33.8911L48.586 34.0084L48.398 34.9711L47.9847 34.0831L47.0127 34.2018L47.73 33.5351L47.3154 32.6471Z" fill="white"/>
<path d="M65.1427 36.5996L64.1653 36.6663L63.7987 35.7596L63.5613 36.709L62.584 36.7783L63.4133 37.2956L63.1787 38.2463L63.928 37.617L64.7573 38.137L64.3933 37.229L65.1427 36.5996Z" fill="white"/>
<path d="M55.9365 39.636H58.8552V40.872H55.9365V39.636Z" fill="white"/>
<path d="M54.5898 37.1094H60.2032V38.5694H54.5898V37.1094Z" fill="white"/>
<path d="M53.127 34.3574H61.6643V36.0441H53.127V34.3574Z" fill="white"/>
<path fill-rule="evenodd" clip-rule="evenodd" d="M57.3967 14.6499C67.69 14.6499 76.038 22.9979 76.038 33.2926C76.038 43.5872 67.69 51.9352 57.3967 51.9352C47.102 51.9352 38.754 43.5872 38.754 33.2926C38.754 22.9979 47.102 14.6499 57.3967 14.6499ZM57.3967 14.2006C67.9367 14.2006 76.4874 22.7499 76.4874 33.2926C76.4874 43.8339 67.9367 52.3832 57.3967 52.3832C46.8527 52.3832 38.3047 43.8339 38.3047 33.2926C38.3047 22.7499 46.8527 14.2006 57.3967 14.2006Z" fill="#085494"/>
<path d="M61.2352 21.0011C62.0485 24.5224 63.4365 24.4544 63.9899 27.0384C64.5245 29.5438 63.8712 32.9664 61.3819 33.2918H53.4085C51.0712 32.8478 50.6685 30.2131 50.6739 28.5144C50.9805 29.3078 51.2059 29.6224 52.2365 30.0758C52.0712 27.4784 49.7899 26.2518 52.0045 22.8944C51.2565 26.5998 54.0525 27.4411 54.2525 30.0758C56.0472 27.3318 50.2525 21.9411 56.3912 19.0211C55.5832 20.2038 55.0059 21.0491 55.1165 22.7051C55.3019 25.4611 57.3965 27.2344 57.3965 30.0758C59.0605 27.8638 57.2405 25.2878 57.1259 22.8704C57.0272 20.8491 57.6912 18.0718 59.6899 17.7411C56.8459 23.2478 61.9272 25.9571 60.3205 30.0758C61.4152 29.4504 62.1059 28.6331 62.1165 27.2504C62.1339 24.9598 60.2405 23.7744 61.2352 21.0011Z" fill="#EE323E"/>
<path fill-rule="evenodd" clip-rule="evenodd" d="M63.1724 46.0811L63.1177 46.1064L63.1044 46.0811H63.1724ZM61.4204 46.0811L61.519 46.3491L61.6244 46.3078C61.7524 46.2651 61.8284 46.2064 61.851 46.1384L61.863 46.0798L62.2884 46.0811C62.287 46.1371 62.2777 46.1891 62.2604 46.2318C62.2017 46.3758 62.0417 46.4958 61.7777 46.5918L61.423 46.7198L61.2204 46.7944L60.9604 46.0811H61.4204ZM59.715 46.0811L59.8044 47.1131L59.6297 47.1304L59.4537 47.1438L59.359 46.0811H59.715ZM58.6417 46.0811L58.8297 46.7038H58.8284L58.9044 46.0811H59.2164L59.087 47.1784L58.871 47.1958L58.6564 47.2144L58.3164 46.0811H58.6417ZM58.1857 46.0811L58.2857 47.2464L58.1124 47.2624L57.935 47.2758L57.831 46.0811H58.1857ZM57.2844 46.0811L57.243 47.2544L57.027 47.2464L56.811 47.2398L56.851 46.0811H57.2844ZM55.9204 46.0811L55.7644 47.1864L55.551 47.1558L55.3364 47.1264L55.4857 46.0811H55.9204ZM54.507 46.0811L54.2964 46.9238L54.087 46.8718L53.879 46.8184L54.0617 46.0811H54.507ZM52.5564 46.0811C52.583 46.1171 52.6244 46.1438 52.6817 46.1624C52.719 46.1784 52.783 46.1904 52.8764 46.2011L52.9204 46.0811H53.379L53.1924 46.5971C52.959 46.5704 52.7404 46.5224 52.5377 46.4491H52.539C52.3124 46.3678 52.175 46.2491 52.1284 46.0984L52.123 46.0798L52.5564 46.0811Z" fill="#085494"/>
<path fill-rule="evenodd" clip-rule="evenodd" d="M67.7988 38.5802L67.9842 38.2482L68.2922 38.4202L68.1082 38.7508L67.7988 38.5802ZM70.1015 39.8855L68.2602 38.8628L68.3642 38.6762L68.4682 38.4868L70.3108 39.5082L70.2068 39.6948L70.1015 39.8855ZM67.5108 39.7255C67.4322 39.8442 67.3442 39.9108 67.2442 39.9295C67.1428 39.9522 67.0362 39.9215 66.9228 39.8455L67.0802 39.6108C67.1482 39.6548 67.2015 39.6788 67.2415 39.6788C67.2788 39.6788 67.3135 39.6588 67.3442 39.6148C67.3735 39.5695 67.3802 39.5308 67.3642 39.4922C67.3495 39.4562 67.3095 39.4175 67.2428 39.3722L67.4015 39.1362C67.5148 39.2122 67.5815 39.3015 67.5988 39.4028C67.6188 39.5028 67.5895 39.6108 67.5108 39.7255ZM69.3948 41.0508C69.2615 41.2508 69.1148 41.3548 68.9548 41.3642C68.7975 41.3722 68.5868 41.2882 68.3215 41.1095L67.9082 40.8308C67.6695 40.6695 67.5282 40.5082 67.4828 40.3455C67.4362 40.1855 67.4842 40.0028 67.6202 39.8002C67.7415 39.6228 67.8722 39.5228 68.0162 39.4922C68.1602 39.4655 68.3162 39.5122 68.4815 39.6335L68.5362 39.6682L68.2948 40.0242L68.2442 39.9882C68.1602 39.9295 68.0882 39.9015 68.0255 39.9028C67.9615 39.9042 67.9108 39.9375 67.8682 39.9988C67.8188 40.0708 67.8135 40.1428 67.8508 40.2095C67.8895 40.2788 67.9828 40.3615 68.1295 40.4602L68.5428 40.7388C68.7322 40.8695 68.8682 40.9388 68.9482 40.9508C69.0268 40.9668 69.0962 40.9282 69.1522 40.8428C69.1762 40.8108 69.2028 40.7495 69.2362 40.6628L68.8348 40.3895L68.7215 40.5535L68.4615 40.3802L68.8148 39.8575L69.6988 40.4535C69.6162 40.6722 69.5148 40.8722 69.3948 41.0508ZM67.8415 42.8642L66.3015 41.4255L67.0188 40.6548L67.1335 40.7642L67.2482 40.8695L66.8268 41.3255L67.2335 41.7042L67.6415 41.2668L67.7562 41.3708L67.8708 41.4788L67.4615 41.9175L67.9082 42.3335L68.3388 41.8722L68.4535 41.9762L68.5682 42.0855L67.8415 42.8642ZM66.5442 44.0322L66.4068 44.1442L66.2695 44.2548L64.9442 42.6188L65.1882 42.4202L65.4362 42.2188L66.8388 43.3722L65.7188 41.9908L65.8562 41.8788L65.9948 41.7668L67.3202 43.4055L67.0762 43.6015L66.8295 43.8028L65.4162 42.6402L66.5442 44.0322ZM64.3735 44.1348L64.4722 44.0682C64.5655 44.0055 64.6162 43.9495 64.6228 43.8922C64.6308 43.8375 64.6002 43.7588 64.5322 43.6562C64.4655 43.5602 64.4068 43.5055 64.3508 43.4935C64.2935 43.4802 64.2228 43.5028 64.1335 43.5642L64.0335 43.6322L64.3735 44.1348ZM64.6762 45.3562L63.4975 43.6122L63.6775 43.4908L64.0228 43.2562C64.2108 43.1308 64.3682 43.0748 64.4962 43.0895C64.6215 43.1055 64.7415 43.1948 64.8508 43.3588C64.9735 43.5442 65.0188 43.6962 64.9828 43.8148C64.9628 43.8735 64.9188 43.9402 64.8455 44.0148L64.8655 44.0015C64.9628 43.9362 65.0575 43.9188 65.1495 43.9495C65.2428 43.9788 65.3282 44.0548 65.4028 44.1775C65.4455 44.2468 65.4908 44.3175 65.5428 44.3922C65.5948 44.4668 65.6362 44.5228 65.6655 44.5588C65.6962 44.5962 65.7215 44.6215 65.7402 44.6375L65.5615 44.7575L65.3842 44.8788C65.3642 44.8628 65.3428 44.8375 65.3122 44.7988C65.2855 44.7628 65.2442 44.7042 65.1922 44.6268L65.0482 44.4162C64.9922 44.3255 64.9335 44.2762 64.8735 44.2642C64.8162 44.2522 64.7428 44.2735 64.6588 44.3322L64.5562 44.4028L65.0348 45.1162L64.8562 45.2362L64.6762 45.3562ZM56.9295 44.5935L57.3095 44.6082L57.2948 44.9615L56.9148 44.9495L56.9295 44.5935ZM54.5455 44.2575L54.9108 44.3482L54.8255 44.6935L54.4602 44.6002L54.5455 44.2575ZM53.3655 44.3002C53.2348 44.2522 53.1482 44.1828 53.1055 44.0908C53.0602 43.9975 53.0628 43.8895 53.1095 43.7588L53.3762 43.8562C53.3482 43.9308 53.3415 43.9882 53.3482 44.0255C53.3575 44.0655 53.3855 44.0935 53.4362 44.1095C53.4855 44.1295 53.5268 44.1268 53.5575 44.1028C53.5908 44.0788 53.6188 44.0295 53.6468 43.9535L53.9122 44.0522C53.8668 44.1788 53.7975 44.2682 53.7028 44.3082C53.6135 44.3508 53.4988 44.3482 53.3655 44.3002ZM50.3788 45.4628L51.3668 43.6055L52.2948 44.0975L52.2215 44.2375L52.1495 44.3735L51.6002 44.0842L51.3388 44.5748L51.8695 44.8562L51.7962 44.9948L51.7202 45.1335L51.1922 44.8508L50.9055 45.3908L51.4655 45.6882L51.3908 45.8255L51.3175 45.9628L50.3788 45.4628ZM48.5295 44.2495L48.3562 44.1242L48.1802 43.9962L49.4202 42.2922L49.5935 42.4188L49.7682 42.5455L49.1988 43.3295L50.1415 42.8188L50.3268 42.9522L50.5135 43.0868L49.5975 43.5695L49.2815 44.7948L49.0908 44.6588L48.9015 44.5202L49.1988 43.3295L48.5295 44.2495ZM47.9108 42.1228L47.9948 42.2082C48.0735 42.2868 48.1415 42.3242 48.1975 42.3202C48.2508 42.3188 48.3242 42.2735 48.4095 42.1868C48.4908 42.1055 48.5348 42.0348 48.5362 41.9762C48.5388 41.9215 48.5002 41.8535 48.4242 41.7788L48.3402 41.6922L47.9108 42.1228ZM46.7695 42.6548L48.2575 41.1642L48.4095 41.3175L48.7055 41.6122C48.8655 41.7708 48.9495 41.9148 48.9602 42.0415C48.9695 42.1708 48.9042 42.3028 48.7642 42.4428C48.6055 42.6002 48.4655 42.6735 48.3415 42.6575C48.2802 42.6508 48.2055 42.6188 48.1188 42.5628L48.1362 42.5788C48.2202 42.6655 48.2535 42.7535 48.2415 42.8495C48.2308 42.9482 48.1695 43.0455 48.0642 43.1402C48.0042 43.1988 47.9455 43.2548 47.8828 43.3188C47.8175 43.3855 47.7722 43.4375 47.7402 43.4735C47.7108 43.5095 47.6908 43.5388 47.6788 43.5628L47.5255 43.4095L47.3748 43.2562C47.3842 43.2348 47.4068 43.2082 47.4375 43.1722C47.4695 43.1375 47.5175 43.0868 47.5815 43.0202L47.7642 42.8402C47.8388 42.7682 47.8788 42.7002 47.8788 42.6402C47.8802 42.5788 47.8428 42.5135 47.7722 42.4402L47.6842 42.3495L47.0735 42.9588L46.9215 42.8055L46.7695 42.6548ZM48.0468 40.1615L48.2495 40.4308L47.9788 40.6362L47.7748 40.3642L48.0468 40.1615ZM47.6975 39.6988L47.9015 39.9708L47.6322 40.1722L47.4268 39.9015L47.6975 39.6988ZM46.7442 41.8015C46.5802 41.9268 46.4215 41.9762 46.2735 41.9522C46.1268 41.9295 45.9882 41.8308 45.8575 41.6602C45.7282 41.4868 45.6735 41.3255 45.6895 41.1775C45.7095 41.0282 45.7988 40.8935 45.9642 40.7668L47.1762 39.8535L47.3042 40.0268L47.4335 40.1962L46.2002 41.1242C46.1162 41.1868 46.0682 41.2442 46.0535 41.2948C46.0402 41.3455 46.0575 41.4042 46.1082 41.4722C46.1588 41.5362 46.2095 41.5708 46.2615 41.5708C46.3148 41.5708 46.3815 41.5402 46.4655 41.4775L47.6975 40.5495L47.8255 40.7188L47.9562 40.8895L46.7442 41.8015ZM44.6602 39.8388L46.1815 38.8882L45.9402 38.5042L46.0748 38.4215L46.2055 38.3388L46.9148 39.4722L46.7815 39.5575L46.6495 39.6388L46.4095 39.2575L44.8882 40.2055L44.7762 40.0228L44.6602 39.8388ZM63.1042 46.0815L62.2268 44.1975L63.1802 43.7522L63.2455 43.8935L63.3135 44.0375L62.7495 44.2975L62.9868 44.8028L63.5295 44.5495L63.5935 44.6908L63.6602 44.8348L63.1175 45.0882L63.3762 45.6402L63.9495 45.3722L64.0148 45.5148L64.0815 45.6562L63.1722 46.0815H63.1042ZM60.9602 46.0815L60.5002 44.8148L60.7015 44.7402L61.0335 44.6188C61.2868 44.5282 61.4882 44.5108 61.6335 44.5722C61.7775 44.6335 61.8935 44.7828 61.9802 45.0188L62.1802 45.5735C62.2562 45.7802 62.2922 45.9482 62.2882 46.0788L61.8642 46.0815C61.8682 46.0148 61.8495 45.9268 61.8095 45.8135L61.5722 45.1602C61.5215 45.0255 61.4642 44.9428 61.3962 44.9108C61.3295 44.8788 61.2295 44.8855 61.1002 44.9335L61.0135 44.9628L61.4202 46.0815H60.9602ZM58.9042 46.0815L59.0228 45.0682L59.3202 45.0415L59.6215 45.0148L59.7148 46.0815H59.3588L59.3002 45.3828L59.2162 46.0815H58.9042ZM57.8308 46.0815L57.7508 45.1788L58.0522 45.1535L58.3535 45.1255L58.6415 46.0815H58.3175L58.1335 45.4762L58.1868 46.0815H57.8308ZM56.8522 46.0815L56.8855 45.1335L57.1002 45.1415L57.3162 45.1495L57.2842 46.0815H56.8522ZM55.4855 46.0815L55.5868 45.3495L55.1375 45.2868L55.1602 45.1308L55.1815 44.9762L56.5068 45.1615L56.4828 45.3162L56.4628 45.4722L56.0148 45.4108L55.9202 46.0815H55.4855ZM54.0628 46.0815L54.3882 44.7748L54.5962 44.8282L54.8068 44.8802L54.5068 46.0815H54.0628ZM52.9202 46.0815L53.0428 45.7442L52.8562 45.6762L52.9628 45.3828L53.5548 45.5988L53.3802 46.0815H52.9202ZM52.1228 46.0815C52.0828 45.9308 52.1148 45.7095 52.2202 45.4215L52.3922 44.9522C52.4922 44.6828 52.6122 44.5055 52.7575 44.4228C52.9055 44.3402 53.0908 44.3415 53.3202 44.4242C53.5215 44.4975 53.6548 44.6002 53.7162 44.7348C53.7775 44.8668 53.7708 45.0295 53.6935 45.2202L53.6695 45.2788L53.2695 45.1335L53.2908 45.0748C53.3255 44.9802 53.3362 44.9028 53.3188 44.8428C53.3042 44.7828 53.2602 44.7388 53.1908 44.7122C53.1068 44.6842 53.0362 44.6948 52.9788 44.7482C52.9242 44.8015 52.8655 44.9108 52.8042 45.0775L52.6335 45.5468C52.5548 45.7615 52.5188 45.9095 52.5255 45.9908C52.5282 46.0242 52.5375 46.0535 52.5575 46.0788L52.1228 46.0815Z" fill="#085494"/>
<path d="M67.9188 28.0803L67.3428 28.8723L66.4121 28.571L66.9894 29.3603L66.4121 30.1523L67.3428 29.851L67.9188 30.643V29.6656L68.8508 29.3603L67.9188 29.0603V28.0803Z" fill="white"/>
</svg>
