<svg width="72" height="72" viewBox="0 0 72 72" fill="none" xmlns="http://www.w3.org/2000/svg">
<path d="M21.752 35.6187L38.528 52.18M21.752 30.8613L37.1587 15.6307M26.376 63.4133C27.6907 57.192 33.328 52.0987 39.94 52.0987C46.7107 52.0987 52.3413 57 53.4773 63.448L26.376 63.4133ZM17 33.4387C17 34.8573 18.068 36.0173 19.3747 36.0173C20.6827 36.0173 21.752 34.8573 21.752 33.4387C21.752 32.0213 20.6827 30.8613 19.3747 30.8613C18.068 30.8613 17 32.0213 17 33.4387ZM37.6627 15.532C37.02 14.8413 36.6293 13.912 36.6293 12.892C36.6293 10.7427 38.3733 8.99999 40.5227 8.99999C41.5693 8.99999 42.5173 9.40933 43.2173 10.0813L37.6627 15.532ZM41.0427 28.34C38.9267 26.4613 37.584 23.684 37.5867 20.5853C37.5867 14.9307 42.0453 10.3467 47.5507 10.3467C50.8827 10.3467 53.8347 12.0253 55.6427 14.608L41.0427 28.34ZM53.528 21.0627C53.528 23.9573 51.1813 26.3027 48.2853 26.3027C46.9053 26.3027 45.6453 25.7707 44.7107 24.892L52.324 17.7253C53.1587 18.652 53.528 19.7187 53.528 21.0627Z" stroke="#308A91" stroke-width="1.33333" stroke-miterlimit="10"/>
</svg>
