<svg xmlns="http://www.w3.org/2000/svg" width="72" height="72" fill="none" viewBox="0 0 72 72"><path stroke="#308A91" stroke-miterlimit="10" stroke-width="1.333" d="M20.672 24.252H25.644M44.908 26.784H53.16V50H18V26.784H26.1173H26.692L29.464 23.0107H41.4053L44.656 26.784H44.908ZM42.6587 38.3907C42.6587 42.544 39.292 45.908 35.1413 45.908C30.9893 45.908 27.624 42.544 27.624 38.3907C27.624 34.2413 30.9893 30.876 35.1413 30.876C39.292 30.876 42.6587 34.2413 42.6587 38.3907ZM48.176 32.2253C48.176 32.9947 47.5493 33.6213 46.78 33.6213C46.0093 33.6213 45.3827 32.9947 45.3827 32.2253C45.3827 31.4547 46.0093 30.828 46.78 30.828C47.5493 30.828 48.176 31.4547 48.176 32.2253Z"/></svg>