<svg width="72" height="72" viewBox="0 0 72 72" fill="none" xmlns="http://www.w3.org/2000/svg">
<path d="M48.4053 25.6147C50.176 27.3867 52.0293 34.6093 48.396 38.9213M52.2787 21.444C54.3787 23.144 60.124 34.3253 52.2787 43.36M34.852 27.2587H30.4827V32.896V38.536H34.852C39.2187 38.536 44.3013 45.036 44.3013 45.036V32.896V20.7547C44.3013 20.7547 39.2187 27.2587 34.852 27.2587ZM19.8587 38.5267L23.6493 50H28.1573L24.776 38.5267H19.8587ZM27.608 37.652V38.5267H26.736H16.8747C16.3933 38.5267 16 38.1333 16 37.652V28.1853C16 27.7067 16.3933 27.3107 16.8747 27.3107H26.736H27.608V28.1853V37.652Z" stroke="#308A91" stroke-width="1.33333" stroke-miterlimit="10"/>
</svg>
