<svg width="72" height="72" viewBox="0 0 72 72" fill="none" xmlns="http://www.w3.org/2000/svg">
<path d="M45.2933 20.116C46.9373 18.2147 49.4707 17 52.3133 17C57.2733 17 61.296 20.7027 61.296 25.272C61.296 29.0867 58.492 32.2973 54.68 33.2533M17.476 33.22C13.736 32.22 11 29.0387 11 25.272C11 20.7027 15.024 17 19.9813 17C22.728 17 25.1853 18.136 26.8333 19.924M46.32 19.1147C45.876 19.3867 45.3667 19.5413 44.824 19.5413C44.4013 19.5413 43.9973 19.4493 43.6307 19.276M25.9133 19.0893C26.36 19.3627 26.8693 19.5187 27.4107 19.5187C27.8347 19.5187 28.2373 19.4227 28.604 19.252M29.9573 44.04C29.9573 44.04 30.1187 46.8747 32.8573 46.8747C35.2027 46.8747 35.6387 44.964 35.6387 44.964L35.068 44.436L32.0467 41.7813C32.0467 41.7813 33.8387 40.4013 36.0787 40.4013M42.1733 43.9947C42.1733 43.9947 42.0107 46.8267 39.2747 46.8267C36.928 46.8267 36.4893 44.9187 36.4893 44.9187L37.0907 44.436L40.112 41.7813C40.112 41.7813 38.3213 40.4013 36.0787 40.4013M54.6827 36.28C54.6827 46.5533 46.3533 54.8813 36.0787 54.8813C25.8067 54.8813 17.4787 46.5533 17.4787 36.28C17.4787 26.0053 25.8067 17.6787 36.0787 17.6787C46.3533 17.6787 54.6827 26.0053 54.6827 36.28ZM25.5507 32.7493C24.2893 35.5053 25.096 38.5787 27.356 39.6107C29.6133 40.6467 32.4667 39.2467 33.728 36.4907C34.9893 33.7347 34.1827 30.66 31.9253 29.6267C29.6667 28.5933 26.8107 29.992 25.5507 32.7493ZM46.4627 32.7493C47.724 35.5053 46.9147 38.5787 44.6573 39.6107C42.3987 40.6467 39.5467 39.2467 38.284 36.4907C37.0213 33.7347 37.8293 30.66 40.092 29.6267C42.3493 28.5933 45.2 29.992 46.4627 32.7493Z" stroke="white" stroke-width="1.33333" stroke-miterlimit="10"/>
</svg>
