<svg width="72" height="72" viewBox="0 0 72 72" fill="none" xmlns="http://www.w3.org/2000/svg">
<path d="M26.228 35.5998L37.624 46.5498M26.228 32.4543L36.6938 22.3841M29.3691 53.9771C30.2622 49.8636 34.0916 46.496 38.5832 46.496C43.1825 46.496 47.0074 49.7367 47.7791 54L29.3691 53.9771ZM23 34.1584C23 35.0964 23.7255 35.8634 24.6131 35.8634C25.5016 35.8634 26.228 35.0964 26.228 34.1584C26.228 33.2213 25.5016 32.4543 24.6131 32.4543C23.7255 32.4543 23 33.2213 23 34.1584ZM37.0362 22.3188C36.5996 21.8622 36.3342 21.2477 36.3342 20.5733C36.3342 19.1522 37.5189 18 38.979 18C39.69 18 40.3339 18.2706 40.8095 18.715L37.0362 22.3188ZM39.3322 30.7872C37.8948 29.5451 36.9827 27.7088 36.9845 25.66C36.9845 21.9212 40.0133 18.8904 43.7531 18.8904C46.0165 18.8904 48.0218 20.0003 49.25 21.7079L39.3322 30.7872ZM47.8135 25.9756C47.8135 27.8895 46.2194 29.4402 44.2522 29.4402C43.3147 29.4402 42.4588 29.0885 41.8239 28.5075L46.9956 23.769C47.5626 24.3817 47.8135 25.087 47.8135 25.9756Z" stroke="#308A91" stroke-width="1.33333" stroke-miterlimit="10"/>
</svg>
