<svg width="219" height="26" viewBox="0 0 219 26" fill="none" xmlns="http://www.w3.org/2000/svg">
<path d="M109.793 16.7444H102.621V9.25239H109.793V16.7444Z" fill="black"/>
<path d="M12.5307 10.8595C12.5467 9.2502 12.2227 7.9502 11.5533 6.9622C10.8507 5.9982 9.61067 5.50886 7.836 5.49153C6.99467 5.49153 6.18133 5.68086 5.392 6.0622C4.56 6.48086 3.944 7.1262 3.54 7.99953H3.488V0.232864H1.26V0.239531H0V2.5662H1.26V18.1929H0V20.5195H4.72933V18.1929H3.488V12.2249C3.488 10.8675 3.83333 9.75953 4.52 8.9022C5.192 8.06753 6.19467 7.64486 7.528 7.62486C9.344 7.6822 10.268 8.66486 10.304 10.5769V20.5129V20.5195H14.1787V18.1929H12.5307V10.8595Z" fill="#318A92"/>
<path d="M28.3616 5.8229H28.2909V5.82023H24.4176V8.1469H26.1322V14.1189C26.1322 15.4522 25.8082 16.5416 25.1656 17.3922C24.4922 18.2616 23.4682 18.7069 22.0949 18.7242C20.2789 18.6882 19.3536 17.7029 19.3176 15.7696V5.8229H19.3042V5.82023H15.4309V8.1469H17.0922V15.4922C17.0709 17.0842 17.4136 18.3576 18.1176 19.3202C18.8042 20.3296 20.0256 20.8416 21.7789 20.8602C23.7576 20.8602 25.2349 19.9722 26.2002 18.1989H26.2536V20.5149H26.2642V20.5202H30.1376V18.1936H28.3616V5.8229Z" fill="#318A92"/>
<path d="M77.636 3.64531V5.79597H75.708V8.12264H77.636V18.18H75.82V20.5066H77.636V20.5133H79.8627V20.5066H81.6427V18.18H79.8627V8.12264H82.7107V5.79597H79.8627V3.78531C79.8627 3.13597 80.024 2.69064 80.34 2.45331C80.632 2.23864 81.044 2.13197 81.5773 2.13197C81.9987 2.13197 82.4213 2.19864 82.8413 2.32531V0.233307C82.368 0.0773068 81.888 -2.67518e-05 81.4 -2.67518e-05C78.908 0.0159732 77.652 1.23331 77.636 3.64531Z" fill="#318A92"/>
<path d="M41.9962 18.3791H35.5082L43.8176 7.47509V5.82443H35.4789V5.81243H33.2509V5.82443H33.2482V7.95643H33.2509V9.86043H35.4789V7.95643H40.9296L32.7216 18.6698V20.5138H41.9962V20.5178H44.2242V16.4698H41.9962V18.3791Z" fill="#318A92"/>
<path d="M68.8765 8.13554H69.8645L67.1631 15.8182L66.8618 16.6662H66.8125L63.6871 8.13554H64.7485V5.80887H59.5845V8.13554H61.1845L65.6805 20.0035L64.6765 22.8529H62.2365V25.1795H63.8525L63.8471 25.1929H66.1698L71.0098 11.5742L72.2311 8.13554H74.0391V5.80887H68.8765V8.13554Z" fill="#318A92"/>
<path d="M94.4549 16.7981C94.2869 17.1208 94.0469 17.4314 93.7376 17.7261C93.4256 18.0221 93.0536 18.2674 92.6202 18.4648C92.1842 18.6581 91.6922 18.7541 91.1442 18.7541C89.7962 18.7541 88.7842 18.3368 88.1109 17.5048C87.4376 16.6714 87.1002 15.4941 87.1002 13.9754H97.2616C97.2616 12.6994 97.1376 11.5368 96.8896 10.4901C96.6402 9.44342 96.2682 8.55009 95.7709 7.80876C95.2749 7.06876 94.6549 6.49942 93.9096 6.10076C93.1642 5.70209 92.2856 5.50342 91.2762 5.50342C90.1256 5.50342 89.1269 5.71009 88.2856 6.12876C87.4429 6.54342 86.7509 7.12076 86.2096 7.85009C85.6682 8.58209 85.2656 9.43809 85.0016 10.4221C84.7336 11.4034 84.6016 12.4594 84.6016 13.5888C84.6016 14.6448 84.7442 15.6154 85.0256 16.5034C85.3096 17.3941 85.7176 18.1608 86.2509 18.8101C86.7816 19.4581 87.4349 19.9621 88.2042 20.3234C88.9776 20.6874 89.8496 20.8661 90.8242 20.8661C91.3736 20.8661 91.8536 20.8341 92.2616 20.7701C92.6696 20.7048 93.0176 20.6261 93.3096 20.5341C93.6016 20.4408 93.8509 20.3354 94.0549 20.2141C94.2589 20.0928 94.4416 19.9781 94.6016 19.8648C95.0429 19.5714 95.4149 19.2274 95.7189 18.8394C96.0189 18.4488 96.2682 18.0661 96.4616 17.6861C96.6576 17.3048 96.8042 16.9528 96.9002 16.6301C96.9989 16.3061 97.0562 16.0594 97.0749 15.8928H94.7336C94.7176 16.1714 94.6229 16.4714 94.4549 16.7981ZM87.4082 10.4061C87.6109 9.87942 87.8842 9.41542 88.2322 9.01676C88.5776 8.61942 88.9856 8.29942 89.4549 8.05942C89.9229 7.81809 90.4256 7.69676 90.9589 7.69676C91.6656 7.69676 92.2616 7.81809 92.7376 8.05942C93.2189 8.29942 93.6069 8.61942 93.9096 9.01676C94.2096 9.41542 94.4336 9.87942 94.5736 10.4061C94.7176 10.9341 94.8056 11.4754 94.8416 12.0314H87.1002C87.1002 11.4754 87.2029 10.9341 87.4082 10.4061" fill="#318A92"/>
<path d="M58.3774 10.489C58.1267 9.44368 57.756 8.54901 57.26 7.80901C56.7627 7.06768 56.1414 6.49968 55.3974 6.09834C54.652 5.70101 53.7747 5.50234 52.7654 5.50234C51.612 5.50234 50.6147 5.71301 49.7734 6.12767C48.932 6.54501 48.2387 7.11968 47.6974 7.85168C47.1574 8.57968 46.7547 9.44101 46.4894 10.4197C46.2227 11.4023 46.0894 12.4583 46.0894 13.589C46.0894 14.6437 46.2307 15.6143 46.5147 16.505C46.7987 17.393 47.2067 18.1637 47.7387 18.809C48.2694 19.457 48.924 19.9623 49.6934 20.325C50.464 20.6863 51.3387 20.8677 52.312 20.8677C52.8614 20.8677 53.3414 20.8317 53.7507 20.769C54.156 20.7023 54.5054 20.625 54.7987 20.533C55.0907 20.441 55.3387 20.3343 55.544 20.213C55.748 20.0917 55.9307 19.977 56.0894 19.8663C56.5307 19.569 56.904 19.2277 57.2054 18.837C57.508 18.449 57.756 18.065 57.9507 17.685C58.1454 17.3077 58.292 16.953 58.388 16.629C58.488 16.3063 58.5427 16.0597 58.5614 15.8943H56.2227C56.2027 16.1717 56.112 16.4717 55.944 16.797C55.776 17.1197 55.536 17.4317 55.2227 17.729C54.9147 18.0223 54.5427 18.2703 54.108 18.4637C53.672 18.6583 53.1814 18.7543 52.632 18.7543C51.2854 18.7543 50.272 18.3397 49.6 17.5063C48.9267 16.6703 48.5894 15.493 48.5894 13.977H58.748C58.748 12.6983 58.624 11.537 58.3774 10.489ZM48.5894 12.0317C48.5894 11.4757 48.692 10.9343 48.8947 10.4063C49.1 9.87834 49.3734 9.41701 49.7214 9.01701C50.0667 8.61834 50.4747 8.30101 50.944 8.05968C51.412 7.81701 51.9147 7.69968 52.444 7.69968C53.1534 7.69968 53.7507 7.81701 54.2267 8.05968C54.7067 8.30101 55.096 8.61834 55.3974 9.01701C55.6987 9.41701 55.9227 9.87834 56.0627 10.4063C56.2027 10.9343 56.2947 11.4757 56.328 12.0317H48.5894Z" fill="#318A92"/>
<path d="M142.088 0.233147H139.86V0.23848H137.844V2.56515H139.86V7.80648H139.809C139.285 6.92248 138.607 6.30781 137.772 5.96515C137.369 5.79715 136.967 5.66781 136.564 5.57448C136.159 5.51715 135.772 5.49181 135.405 5.49181C133.327 5.52648 131.773 6.27315 130.741 7.72381C129.704 9.18381 129.185 10.9891 129.185 13.1345C129.185 15.2705 129.712 17.0678 130.765 18.5305C131.816 20.0385 133.377 20.8145 135.455 20.8611C136.427 20.8611 137.295 20.6611 138.067 20.2665C138.841 19.9091 139.423 19.3345 139.809 18.5451H139.86V20.5145H139.871H142.088H143.917V18.1878H142.088V0.233147ZM138.996 16.9651C138.341 18.1211 137.267 18.7065 135.772 18.7238C134.328 18.7065 133.264 18.1385 132.577 17.0211C131.889 15.9598 131.544 14.7185 131.544 13.3078C131.528 11.8105 131.837 10.4931 132.475 9.35715C133.081 8.23848 134.136 7.66248 135.631 7.62515C137.185 7.64515 138.293 8.20248 138.957 9.30248C139.611 10.4011 139.936 11.6985 139.936 13.1971C139.936 14.6105 139.621 15.8665 138.996 16.9651" fill="black"/>
<path d="M173.27 5.49089C171.106 5.51089 169.473 6.24555 168.37 7.69889C167.228 9.14289 166.658 10.9736 166.658 13.1962C166.658 15.3669 167.228 17.1736 168.37 18.6149C169.473 20.0669 171.106 20.8122 173.27 20.8589C175.429 20.8122 177.081 20.0669 178.221 18.6122C179.328 17.1709 179.88 15.3616 179.88 13.1882C179.88 10.9709 179.328 9.14022 178.221 7.69622C177.081 6.24555 175.429 5.51089 173.27 5.49089ZM176.281 17.2842C175.489 18.2442 174.488 18.7256 173.276 18.7256C172.07 18.7256 171.074 18.2442 170.282 17.2842C169.457 16.3322 169.034 14.9696 169.018 13.1962C169.034 11.3949 169.457 10.0136 170.282 9.05355C171.074 8.10155 172.07 7.62555 173.276 7.62555C174.488 7.62555 175.489 8.10155 176.281 9.05355C177.09 10.0136 177.501 11.3949 177.52 13.1962C177.501 14.9696 177.09 16.3322 176.281 17.2842Z" fill="black"/>
<path d="M190.081 5.50319C190.039 5.50586 189.998 5.50852 189.957 5.51252C189.915 5.51519 189.873 5.51786 189.834 5.52319C187.351 5.76186 186.142 7.23652 185.69 7.96852V5.80852H181.642V8.13519H183.574V18.1872H181.642V20.5139H183.574H185.802H187.434V18.1872H185.802V13.9792C185.713 10.0752 187.354 8.09785 190.726 8.03919V5.48986C190.505 5.48319 190.29 5.48986 190.081 5.50319Z" fill="black"/>
<path d="M200.002 11.1634L203.062 8.13403H205.371V5.85403L205.399 5.82469H205.371V5.81003H198.506V8.13403H200.167L196.186 12.2474V0.231361H195.465H193.957H192.195V2.55936H193.957V18.186H192.195V20.5127H193.957H196.186H197.987V18.186H196.186V14.9514L198.294 12.8447L202.957 20.5127H203.446H205.797H206.343V18.186H204.357L200.002 11.1634Z" fill="black"/>
<path d="M160.297 8.13561H161.876L159.335 17.8503H159.28L156.9 8.13561H157.927V5.80895H152.135V8.13561H153.267L150.981 17.8503H150.928L148.355 8.13561H150.009V5.80895H144.219V8.13561H145.904L149.707 20.5143H152.203L155.033 8.81828H155.085L157.941 20.5143H160.397L164.167 8.13561H166.089V5.80895H160.297V8.13561Z" fill="black"/>
<path d="M126.013 17.4893C126.01 17.4453 126.013 17.3946 126.013 17.3453V15.74V9.51198C126.013 8.64531 125.874 7.94664 125.6 7.41864C125.3 6.89331 124.905 6.48531 124.414 6.19731C123.936 5.91198 123.39 5.71331 122.782 5.59998C122.166 5.52798 121.54 5.49064 120.905 5.49064C119.36 5.49064 118.044 5.85064 116.953 6.57464C115.862 7.32798 115.26 8.60398 115.141 10.412H117.366C117.437 9.35198 117.79 8.60931 118.426 8.19464C119.02 7.81464 119.804 7.62398 120.776 7.62398C121.534 7.60798 122.221 7.75064 122.842 8.05331C123.136 8.22131 123.377 8.45731 123.576 8.75998C123.73 9.10264 123.808 9.53864 123.808 10.0626C123.792 10.9226 123.344 11.444 122.466 11.632C122.045 11.74 121.558 11.8386 121.008 11.9226C120.449 11.9946 119.852 12.0946 119.213 12.2253C118.636 12.3173 118.082 12.4533 117.549 12.628C117.005 12.8133 116.502 13.0666 116.037 13.3906C115.598 13.696 115.257 14.12 115.005 14.664C114.729 15.192 114.594 15.8826 114.594 16.7426C114.61 18.176 115.054 19.216 115.932 19.8626C116.774 20.528 117.828 20.8586 119.1 20.8586C121.029 20.8586 122.628 20.104 123.896 18.5906V19.3986C123.893 19.684 123.893 19.9706 123.896 20.1413V20.5133H127.944V18.1866H126.013V17.4893ZM123.784 15.3986C123.784 16.1026 123.468 16.812 122.84 17.5333C122.504 17.876 122.066 18.1466 121.534 18.3506C120.99 18.6 120.348 18.7266 119.608 18.7266C118.898 18.7266 118.29 18.5613 117.784 18.24C117.232 17.8986 116.956 17.34 116.956 16.564C116.956 15.676 117.232 15.044 117.784 14.664C118.308 14.2866 118.952 14.0426 119.71 13.9293C120.486 13.8026 121.253 13.676 122.012 13.5573C122.754 13.4653 123.344 13.2546 123.784 12.932V15.3986Z" fill="black"/>
<path d="M218.133 13.6955C217.56 13.0955 216.549 12.6115 215.1 12.2435L212.769 11.6355C212.311 11.5222 211.921 11.4129 211.605 11.3022C211.287 11.1902 211.031 11.0662 210.837 10.9289C210.641 10.7902 210.495 10.6262 210.399 10.4302C210.303 10.2355 210.255 9.9902 210.255 9.69687C210.255 9.25287 210.365 8.89553 210.584 8.6182C210.804 8.3422 211.065 8.1342 211.367 7.99687C211.665 7.8582 211.972 7.76487 212.28 7.71954C212.589 7.6742 212.832 7.6502 213.009 7.6502C213.748 7.6502 214.333 7.73154 214.755 7.8982C215.181 8.06487 215.505 8.2742 215.735 8.52087C215.964 8.76887 216.116 9.03687 216.188 9.3222C216.24 9.5382 216.273 9.73153 216.287 9.9102V10.6862H218.339V10.0835H218.344C218.344 10.0515 218.341 10.0142 218.339 9.97154V5.80887H216.287V6.42487C216.208 6.37554 216.127 6.3262 216.044 6.2782C215.337 5.87287 214.483 5.5462 213.247 5.5462C212.559 5.5462 211.9 5.6382 211.273 5.82354C210.647 6.00754 210.089 6.2902 209.604 6.66753C209.117 7.04487 208.732 7.5262 208.439 8.1062C208.149 8.68887 208.003 9.3742 208.003 10.1662C208.003 11.1649 208.293 11.9342 208.875 12.4795C209.46 13.0222 210.236 13.4235 211.208 13.6822L213.909 14.3729C214.897 14.6329 215.603 14.8982 216.027 15.1755C216.453 15.4515 216.661 15.8782 216.661 16.4489C216.661 16.8555 216.575 17.2009 216.397 17.4862C216.221 17.7715 215.989 18.0089 215.697 18.1929C215.404 18.3782 215.071 18.5155 214.689 18.6075C214.312 18.6995 213.909 18.7462 213.487 18.7462C212.656 18.7462 212.001 18.6422 211.524 18.4409C211.047 18.2395 210.685 17.9875 210.44 17.6929C210.192 17.4009 210.028 17.0769 209.949 16.7249C209.868 16.3729 209.821 16.0622 209.803 15.7862H209.78H207.761V20.5129H209.78V19.8955C210.169 20.1595 210.631 20.4622 211.168 20.5995C211.811 20.7649 212.592 20.8475 213.512 20.8475C214.289 20.8475 215.012 20.7382 215.683 20.5155C216.353 20.2942 216.932 19.9809 217.419 19.5769C217.904 19.1702 218.288 18.6715 218.569 18.0809C218.855 17.4915 218.995 16.8182 218.995 16.0622C218.995 15.0822 218.707 14.2955 218.133 13.6955Z" fill="black"/>
</svg>
