<svg width="91" height="102" viewBox="0 0 91 102" fill="none" xmlns="http://www.w3.org/2000/svg">
<path d="M0.886719 95.2265L2.35472 97.9878H0.886719V95.2265Z" fill="#EC1C24"/>
<path d="M0.886719 94.8838L2.53605 97.9878H2.35472L0.886719 95.2265V94.8838Z" fill="#EC1C24"/>
<path d="M0.886719 94.5398L2.72005 97.9878H2.53605L0.886719 94.8838V94.5398Z" fill="#EC1C24"/>
<path d="M0.886719 94.1966L2.90272 97.9873H2.72005L0.886719 94.5393V94.1966Z" fill="#EC1C24"/>
<path d="M0.886719 93.8531L3.08405 97.9878H2.90272L0.886719 94.1971V93.8531Z" fill="#EC1C24"/>
<path d="M0.886719 93.51L3.26672 97.9873H3.08405L0.886719 93.8526V93.51Z" fill="#EC1C24"/>
<path d="M0.886719 93.1669L3.45072 97.9883H3.26672L0.886719 93.5096V93.1669Z" fill="#EC1C24"/>
<path d="M0.886719 92.8229L3.63339 97.9883H3.45072L0.886719 93.1669V92.8229Z" fill="#EC1D24"/>
<path d="M0.886719 92.4798L3.81472 97.9878H3.63339L0.886719 92.8225V92.4798Z" fill="#EC1D24"/>
<path d="M0.886719 92.1363L3.99739 97.9883H3.81472L0.886719 92.4803V92.1363Z" fill="#EC1D24"/>
<path d="M0.886719 91.7931L4.18139 97.9878H3.99739L0.886719 92.1358V91.7931Z" fill="#EC1D24"/>
<path d="M0.886719 91.4491L4.36272 97.9878H4.18139L0.886719 91.7931V91.4491Z" fill="#EC1D24"/>
<path d="M0.886719 91.1065L4.54539 97.9878H4.36272L0.886719 91.4491V91.1065Z" fill="#EC1E24"/>
<path d="M0.886719 90.7625L4.72805 97.9878H4.54539L0.886719 91.1065V90.7625Z" fill="#EC1E24"/>
<path d="M0.886719 90.4193L4.91205 97.9873H4.72805L0.886719 90.762V90.4193Z" fill="#EC1E24"/>
<path d="M0.886719 90.0758L5.09339 97.9878H4.91205L0.886719 90.4198V90.0758Z" fill="#EC1F24"/>
<path d="M0.886719 89.7326L5.27605 97.9873H5.09339L0.886719 90.0753V89.7326Z" fill="#EC1F24"/>
<path d="M0.886719 89.3891L5.45872 97.9878H5.27605L0.886719 89.7331V89.3891Z" fill="#EC1F24"/>
<path d="M0.886719 89.0456L5.64139 97.9883H5.45872L0.886719 89.3883V89.0456Z" fill="#EC2024"/>
<path d="M0.886719 88.7025L5.82405 97.9878H5.64139L0.886719 89.0451V88.7025Z" fill="#EC2024"/>
<path d="M0.886719 88.3589L6.00672 97.9883H5.82405L0.886719 88.7029V88.3589Z" fill="#EC2024"/>
<path d="M0.886719 88.0158L6.18939 97.9878H6.00672L0.886719 88.3585V88.0158Z" fill="#ED2124"/>
<path d="M0.886719 87.6718L6.37205 97.9878H6.18939L0.886719 88.0158V87.6718Z" fill="#ED2124"/>
<path d="M0.886719 87.3291L6.55472 97.9878H6.37205L0.886719 87.6718V87.3291Z" fill="#ED2124"/>
<path d="M0.886719 87.254L0.997385 87.1953L6.73739 97.9873H6.55472L0.886719 87.3286V87.254Z" fill="#ED2224"/>
<path d="M0.99707 87.1949L1.13974 87.1189L6.9184 97.9883H6.73707L0.99707 87.1949Z" fill="#ED2224"/>
<path d="M1.14062 87.1193L1.28196 87.0433L7.10329 97.9873H6.91929L1.14062 87.1193Z" fill="#ED2324"/>
<path d="M1.28223 87.0433L1.42356 86.9673L7.28489 97.9873H7.10223L1.28223 87.0433Z" fill="#ED2324"/>
<path d="M1.42383 86.9678L1.56649 86.8918L7.46649 97.9878H7.28516L1.42383 86.9678Z" fill="#ED2424"/>
<path d="M1.56738 86.8918L1.70872 86.8158L7.65005 97.9878H7.46738L1.56738 86.8918Z" fill="#ED2424"/>
<path d="M1.70898 86.8166L1.85032 86.7406L7.83165 97.9873H7.64898L1.70898 86.8166Z" fill="#ED2524"/>
<path d="M1.85156 86.7403L1.99423 86.6643L8.01556 97.9883H7.83156L1.85156 86.7403Z" fill="#ED2524"/>
<path d="M1.99414 86.6651L2.13547 86.5891L8.19681 97.9878H8.01547L1.99414 86.6651Z" fill="#ED2624"/>
<path d="M2.13672 86.5891L2.27805 86.5131L8.38072 97.9878H8.19805L2.13672 86.5891Z" fill="#ED2624"/>
<path d="M2.27832 86.5131L2.42099 86.4371L8.56232 97.9878H8.37965L2.27832 86.5131Z" fill="#ED2724"/>
<path d="M2.42188 86.4376L2.56321 86.3616L8.74587 97.9883H8.56187L2.42188 86.4376Z" fill="#ED2724"/>
<path d="M2.56348 86.3625L2.70481 86.2865L8.92748 97.9878H8.74614L2.56348 86.3625Z" fill="#ED2824"/>
<path d="M2.70508 86.2865L2.84774 86.2105L9.11041 97.9878H8.92774L2.70508 86.2865Z" fill="#ED2824"/>
<path d="M2.84863 86.2105L2.98997 86.1345L9.29263 97.9878H9.10997L2.84863 86.2105Z" fill="#ED2924"/>
<path d="M2.99023 86.1349L3.13157 86.0589L9.47557 97.9883H9.2929L2.99023 86.1349Z" fill="#ED2A24"/>
<path d="M3.13281 86.0593L3.27548 85.9833L9.65948 97.9873H9.47681L3.13281 86.0593Z" fill="#EE2A24"/>
<path d="M3.27539 85.9838L3.41672 85.9078L9.84072 97.9878H9.65806L3.27539 85.9838Z" fill="#EE2B24"/>
<path d="M3.41797 85.9078L3.5593 85.8318L10.0233 97.9878H9.84064L3.41797 85.9078Z" fill="#EE2B24"/>
<path d="M3.55957 85.8323L3.70224 85.7563L10.2062 97.9883H10.0236L3.55957 85.8323Z" fill="#EE2C24"/>
<path d="M3.70312 85.7566L3.84446 85.6806L10.3898 97.9873H10.2071L3.70312 85.7566Z" fill="#EE2D24"/>
<path d="M3.84473 85.6806L3.98606 85.6046L10.5714 97.9873H10.3887L3.84473 85.6806Z" fill="#EE2D24"/>
<path d="M3.98633 85.6051L4.12899 85.5291L10.753 97.9878H10.5703L3.98633 85.6051Z" fill="#EE2E24"/>
<path d="M4.12988 85.5296L4.27122 85.4536L10.9365 97.9883H10.7539L4.12988 85.5296Z" fill="#EE2F24"/>
<path d="M4.27148 85.454L4.41282 85.378L11.1195 97.9873H10.9368L4.27148 85.454Z" fill="#EE2F24"/>
<path d="M4.41406 85.3776L4.55673 85.3016L11.3021 97.9883H11.1194L4.41406 85.3776Z" fill="#EE3024"/>
<path d="M4.55664 85.3025L4.69797 85.2265L11.4833 97.9878H11.302L4.55664 85.3025Z" fill="#EE3124"/>
<path d="M4.69922 85.2265L4.84055 85.1505L11.6686 97.9878H11.4846L4.69922 85.2265Z" fill="#EE3224"/>
<path d="M4.84082 85.1513L4.98349 85.0753L11.8502 97.9873H11.6675L4.84082 85.1513Z" fill="#EE3225"/>
<path d="M4.98438 85.0749L5.12571 84.9989L12.0324 97.9883H11.8497L4.98438 85.0749Z" fill="#EF3325"/>
<path d="M5.12598 84.9998L5.26731 84.9238L12.214 97.9878H12.0326L5.12598 84.9998Z" fill="#EF3425"/>
<path d="M5.26758 84.9238L5.41024 84.8478L12.3982 97.9878H12.2142L5.26758 84.9238Z" fill="#EF3525"/>
<path d="M5.41113 84.8478L5.55247 84.7718L12.5805 97.9878H12.3978L5.41113 84.8478Z" fill="#EF3525"/>
<path d="M5.55273 84.7723L5.69407 84.6963L12.7621 97.9883H12.5807L5.55273 84.7723Z" fill="#EF3625"/>
<path d="M5.69531 84.6966L5.83798 84.6206L12.9446 97.9873H12.7633L5.69531 84.6966Z" fill="#EF3725"/>
<path d="M5.83789 84.6211L5.97922 84.5451L13.1272 97.9878H12.9446L5.83789 84.6211Z" fill="#EF3825"/>
<path d="M5.98047 84.5451L6.1218 84.4691L13.3111 97.9878H13.1271L5.98047 84.5451Z" fill="#EF3925"/>
<path d="M6.12207 84.4696L6.2634 84.3936L13.4927 97.9883H13.3114L6.12207 84.4696Z" fill="#EF3925"/>
<path d="M6.26367 84.394L6.40634 84.318L13.6757 97.9873H13.493L6.26367 84.394Z" fill="#EF3A25"/>
<path d="M6.40723 84.3185L6.54856 84.2425L13.8579 97.9878H13.6752L6.40723 84.3185Z" fill="#EF3B25"/>
<path d="M6.54883 84.2425L6.69016 84.1665L14.0408 97.9878H13.8568L6.54883 84.2425Z" fill="#EF3C25"/>
<path d="M6.69141 84.1669L6.83407 84.0909L14.2234 97.9883H14.0421L6.69141 84.1669Z" fill="#F03D25"/>
<path d="M6.83398 84.0913L6.97532 84.0153L14.406 97.9873H14.2233L6.83398 84.0913Z" fill="#F03E25"/>
<path d="M6.97656 84.0153L7.1179 83.9393L14.5886 97.9873H14.4059L6.97656 84.0153Z" fill="#F03E25"/>
<path d="M7.11816 83.9398L7.26083 83.8638L14.7715 97.9878H14.5888L7.11816 83.9398Z" fill="#F03F25"/>
<path d="M7.26172 83.8638L7.40305 83.7878L14.9551 97.9878H14.7724L7.26172 83.8638Z" fill="#F04025"/>
<path d="M7.40332 83.7886L7.54465 83.7126L15.1367 97.9873H14.954L7.40332 83.7886Z" fill="#F04125"/>
<path d="M7.54492 83.7123L7.68759 83.6363L15.3183 97.9883H15.1356L7.54492 83.7123Z" fill="#F04225"/>
<path d="M7.68848 83.6371L7.82981 83.5611L15.5018 97.9878H15.3191L7.68848 83.6371Z" fill="#F04325"/>
<path d="M7.83008 83.5611L7.97141 83.4851L15.6847 97.9878H15.5021L7.83008 83.5611Z" fill="#F04425"/>
<path d="M7.97266 83.486L8.11532 83.41L15.8673 97.9873H15.6847L7.97266 83.486Z" fill="#F04525"/>
<path d="M8.11523 83.4096L8.25657 83.3336L16.0486 97.9883H15.8659L8.11523 83.4096Z" fill="#F14625"/>
<path d="M8.25781 83.3345L8.39915 83.2585L16.2325 97.9878H16.0498L8.25781 83.3345Z" fill="#F14725"/>
<path d="M8.39941 83.2585L8.54208 83.1825L16.4154 97.9878H16.2327L8.39941 83.2585Z" fill="#F14825"/>
<path d="M8.54297 83.1825L8.6843 83.1065L16.5976 97.9878H16.415L8.54297 83.1825Z" fill="#F14925"/>
<path d="M8.68457 83.1069L8.8259 83.0309L16.7792 97.9883H16.5979L8.68457 83.1069Z" fill="#F14A25"/>
<path d="M8.82617 83.0313L8.96884 82.9553L16.9635 97.9873H16.7795L8.82617 83.0313Z" fill="#F14B25"/>
<path d="M8.96973 82.9558L9.11106 82.8798L17.1457 97.9878H16.9631L8.96973 82.9558Z" fill="#F14C25"/>
<path d="M9.11133 82.8798L9.25266 82.8038L17.3273 97.9878H17.1447L9.11133 82.8798Z" fill="#F14D25"/>
<path d="M9.25391 82.8043L9.39657 82.7283L17.5099 97.9883H17.3286L9.25391 82.8043Z" fill="#F14E25"/>
<path d="M9.39648 82.7286L9.53782 82.6526L17.6938 97.9873H17.5098L9.39648 82.7286Z" fill="#F24F25"/>
<path d="M9.53906 82.6531L9.6804 82.5771L17.8764 97.9878H17.6937L9.53906 82.6531Z" fill="#F25025"/>
<path d="M9.68066 82.5771L9.82333 82.5011L18.058 97.9878H17.8753L9.68066 82.5771Z" fill="#F25125"/>
<path d="M9.82422 82.5016L9.96555 82.4256L18.2402 97.9883H18.0589L9.82422 82.5016Z" fill="#F25225"/>
<path d="M9.96582 82.426L10.1072 82.35L18.3832 97.914L18.2458 97.9873H18.2405L9.96582 82.426Z" fill="#F25325"/>
<path d="M10.1074 82.3496L10.2501 82.2736L18.5261 97.8376L18.3834 97.9136L10.1074 82.3496Z" fill="#F25425"/>
<path d="M10.251 82.2739L10.3923 82.1979L18.6683 97.7619L18.527 97.8379L10.251 82.2739Z" fill="#F25525"/>
<path d="M10.3926 82.1986L10.5339 82.1226L18.8099 97.6866L18.6686 97.7612L10.3926 82.1986Z" fill="#F25625"/>
<path d="M10.5352 82.1229L10.6778 82.0469L18.9538 97.6109L18.8112 97.6855L10.5352 82.1229Z" fill="#F25725"/>
<path d="M10.6777 82.0468L10.8191 81.9708L19.0951 97.5348L18.9537 97.6108L10.6777 82.0468Z" fill="#F35825"/>
<path d="M10.8203 81.9712L10.9616 81.8952L19.2376 97.4592L19.0963 97.5352L10.8203 81.9712Z" fill="#F35925"/>
<path d="M10.9619 81.8958L11.1046 81.8198L19.3806 97.3838L19.2379 97.4585L10.9619 81.8958Z" fill="#F35A25"/>
<path d="M11.1055 81.8201L11.2468 81.7441L19.5228 97.3081L19.3815 97.3828L11.1055 81.8201Z" fill="#F35C25"/>
<path d="M11.2471 81.7441L11.3884 81.6681L19.6644 97.2321L19.5231 97.3081L11.2471 81.7441Z" fill="#F35D25"/>
<path d="M11.3887 81.6684L11.5313 81.5924L19.8073 97.1564L19.6647 97.2324L11.3887 81.6684Z" fill="#F35E26"/>
<path d="M11.5322 81.5931L11.6736 81.5171L19.9496 97.0811L19.8082 97.1558L11.5322 81.5931Z" fill="#F35F26"/>
<path d="M11.6738 81.5174L11.8152 81.4414L20.0912 97.0054L19.9498 97.0801L11.6738 81.5174Z" fill="#F36026"/>
<path d="M11.8164 81.4414L11.9591 81.3654L20.2351 96.9294L20.0924 97.0054L11.8164 81.4414Z" fill="#F46126"/>
<path d="M11.959 81.366L12.1003 81.29L20.3763 96.854L20.235 96.9287L11.959 81.366Z" fill="#F46226"/>
<path d="M12.1016 81.2904L12.2429 81.2144L20.5189 96.7784L20.3776 96.853L12.1016 81.2904Z" fill="#F46426"/>
<path d="M12.2432 81.2143L12.3858 81.1383L20.6618 96.7023L20.5192 96.7783L12.2432 81.2143Z" fill="#F46526"/>
<path d="M12.3867 81.1386L12.5281 81.0626L20.8041 96.6266L20.6627 96.7026L12.3867 81.1386Z" fill="#F46626"/>
<path d="M12.5283 81.0633L12.6697 80.9873L20.9457 96.5513L20.8043 96.626L12.5283 81.0633Z" fill="#F46726"/>
<path d="M12.6699 80.9876L12.8126 80.9116L21.0886 96.4756L20.9459 96.5503L12.6699 80.9876Z" fill="#F46826"/>
<path d="M12.8135 80.9116L12.9548 80.8356L21.2308 96.3996L21.0895 96.4756L12.8135 80.9116Z" fill="#F46A26"/>
<path d="M12.9551 80.8359L13.0964 80.7599L21.3724 96.3239L21.2311 96.3999L12.9551 80.8359Z" fill="#F56B26"/>
<path d="M13.0977 80.7606L13.2403 80.6846L21.5163 96.2486L21.3737 96.3232L13.0977 80.7606Z" fill="#F56C26"/>
<path d="M13.2402 80.6849L13.3816 80.6089L21.6576 96.1729L21.5162 96.2476L13.2402 80.6849Z" fill="#F56D26"/>
<path d="M13.3828 80.6089L13.5241 80.5329L21.8001 96.0969L21.6588 96.1729L13.3828 80.6089Z" fill="#F56F26"/>
<path d="M13.5244 80.533L13.6671 80.457L21.9431 96.021L21.8004 96.0957L13.5244 80.533Z" fill="#F57026"/>
<path d="M13.668 80.4578L13.8093 80.3818L22.0853 95.9458L21.944 96.0205L13.668 80.4578Z" fill="#F57126"/>
<path d="M13.8096 80.3813L13.9509 80.3053L22.2269 95.8693L22.0856 95.9453L13.8096 80.3813Z" fill="#F57226"/>
<path d="M13.9512 80.3061L14.0938 80.2301L22.3685 95.7941L22.2272 95.8701L13.9512 80.3061Z" fill="#F67426"/>
<path d="M14.0947 80.2303L14.2361 80.1543L22.5121 95.7183L22.3694 95.793L14.0947 80.2303Z" fill="#F67526"/>
<path d="M14.2363 80.1551L14.3777 80.0791L22.6537 95.6431L22.5123 95.7178L14.2363 80.1551Z" fill="#F67626"/>
<path d="M14.3789 80.0786L14.5202 80.0026L22.7962 95.5666L22.6549 95.6426L14.3789 80.0786Z" fill="#F67726"/>
<path d="M14.5205 80.0034L14.6632 79.9274L22.9392 95.4914L22.7965 95.5674L14.5205 80.0034Z" fill="#F67926"/>
<path d="M14.6641 79.9276L14.8054 79.8516L23.0814 95.4156L22.9401 95.4902L14.6641 79.9276Z" fill="#F67A26"/>
<path d="M14.8057 79.8524L14.947 79.7764L23.223 95.3404L23.0817 95.415L14.8057 79.8524Z" fill="#F67B26"/>
<path d="M14.9473 79.7758L15.0899 79.6998L23.3659 95.2638L23.2233 95.3398L14.9473 79.7758Z" fill="#F77D26"/>
<path d="M15.0908 79.7005L15.2322 79.6245L23.5082 95.1885L23.3668 95.2632L15.0908 79.7005Z" fill="#F77E26"/>
<path d="M15.2324 79.6248L15.3738 79.5488L23.6498 95.1128L23.5084 95.1875L15.2324 79.6248Z" fill="#F77F26"/>
<path d="M15.375 79.5488L15.5177 79.4728L23.7937 95.0368L23.651 95.1128L15.375 79.5488Z" fill="#F78126"/>
<path d="M15.5176 79.4731L15.6589 79.3971L23.9349 94.9611L23.7936 95.0371L15.5176 79.4731Z" fill="#F78226"/>
<path d="M15.6602 79.3978L15.8015 79.3218L24.0775 94.8858L23.9362 94.9604L15.6602 79.3978Z" fill="#F78426"/>
<path d="M15.8018 79.3221L15.9444 79.2461L24.2204 94.8101L24.0778 94.8848L15.8018 79.3221Z" fill="#F78526"/>
<path d="M15.9453 79.2461L16.0866 79.1701L24.3626 94.7341L24.2213 94.8101L15.9453 79.2461Z" fill="#F88626"/>
<path d="M16.0869 79.1704L16.2282 79.0944L24.5042 94.6584L24.3629 94.7344L16.0869 79.1704Z" fill="#F88826"/>
<path d="M16.2285 79.095L16.3712 79.019L24.6472 94.583L24.5045 94.6577L16.2285 79.095Z" fill="#F88927"/>
<path d="M16.3721 79.0194L16.5134 78.9434L24.7894 94.5074L24.6481 94.582L16.3721 79.0194Z" fill="#F88A27"/>
<path d="M16.5137 78.9433L16.655 78.8673L24.931 94.4313L24.7897 94.5073L16.5137 78.9433Z" fill="#F88C27"/>
<path d="M16.6562 78.868L16.7989 78.792L25.0749 94.356L24.9322 94.4307L16.6562 78.868Z" fill="#F88D27"/>
<path d="M16.7988 78.7923L16.9402 78.7163L25.2162 94.2803L25.0748 94.355L16.7988 78.7923Z" fill="#F98F27"/>
<path d="M16.9414 78.7163L17.0827 78.6403L25.3587 94.2043L25.2174 94.2803L16.9414 78.7163Z" fill="#F99027"/>
<path d="M17.083 78.6406L17.2257 78.5646L25.5017 94.1286L25.359 94.2046L17.083 78.6406Z" fill="#F99227"/>
<path d="M17.2266 78.5653L17.3679 78.4893L25.6439 94.0533L25.5026 94.1279L17.2266 78.5653Z" fill="#F99327"/>
<path d="M17.3682 78.4896L17.5095 78.4136L25.7855 93.9776L25.6442 94.0522L17.3682 78.4896Z" fill="#F99427"/>
<path d="M17.5098 78.4135L17.6524 78.3375L25.9284 93.9015L25.7858 93.9775L17.5098 78.4135Z" fill="#F99627"/>
<path d="M17.6533 78.3379L17.7947 78.2619L26.0707 93.8259L25.9293 93.9019L17.6533 78.3379Z" fill="#F99727"/>
<path d="M17.7949 78.2625L17.9363 78.1865L26.2123 93.7505L26.0709 93.8252L17.7949 78.2625Z" fill="#FA9927"/>
<path d="M17.9375 78.1868L18.0802 78.1108L26.3562 93.6748L26.2135 93.7495L17.9375 78.1868Z" fill="#FA9A27"/>
<path d="M18.0801 78.1108L18.2214 78.0348L26.4974 93.5988L26.3561 93.6748L18.0801 78.1108Z" fill="#FA9C27"/>
<path d="M18.2227 78.035L18.364 77.959L26.64 93.523L26.4987 93.5977L18.2227 78.035Z" fill="#FA9D27"/>
<path d="M18.3643 77.9598L18.5069 77.8838L26.7829 93.4478L26.6403 93.5225L18.3643 77.9598Z" fill="#FA9F27"/>
<path d="M18.5078 77.8833L18.6491 77.8073L26.9251 93.3713L26.7838 93.4473L18.5078 77.8833Z" fill="#FAA027"/>
<path d="M18.6494 77.8081L18.7907 77.7321L27.0667 93.2961L26.9254 93.3721L18.6494 77.8081Z" fill="#FBA227"/>
<path d="M18.791 77.7323L18.9337 77.6563L27.2097 93.2203L27.067 93.2949L18.791 77.7323Z" fill="#FBA327"/>
<path d="M18.9346 77.6571L19.0292 77.6064H19.0892L27.3519 93.1451L27.2106 93.2197L18.9346 77.6571Z" fill="#FBA527"/>
<path d="M19.2725 77.6059L27.4952 93.0685L27.3538 93.1445L19.0898 77.6059H19.2725Z" fill="#FBA627"/>
<path d="M19.4555 77.6067L27.6382 92.9933L27.4942 93.0693L19.2715 77.6067H19.4555Z" fill="#FBA827"/>
<path d="M19.6377 77.6065L27.7791 92.9172L27.6377 92.9932L19.4551 77.6065H19.6377Z" fill="#FBAA27"/>
<path d="M19.8204 77.6063L27.9217 92.8423L27.7804 92.917L19.6377 77.6063H19.8204Z" fill="#FCAB27"/>
<path d="M20.003 77.6058L28.0656 92.7658L27.9216 92.8418L19.8203 77.6058H20.003Z" fill="#FCAD27"/>
<path d="M20.186 77.6066L28.2073 92.6906L28.0646 92.7666L20.002 77.6066H20.186Z" fill="#FCAE27"/>
<path d="M20.3682 77.6064L28.3482 92.6144L28.2069 92.6904L20.1855 77.6064H20.3682Z" fill="#FCB027"/>
<path d="M20.5508 77.6063L28.4922 92.5396L28.3495 92.6143L20.3682 77.6063H20.5508Z" fill="#FCB127"/>
<path d="M20.7334 77.6067L28.5628 92.3294V92.5014L28.4921 92.54L20.5508 77.6067H20.7334Z" fill="#FCB327"/>
<path d="M20.9164 77.6064L28.5618 91.9864V92.3291L20.7324 77.6064H20.9164Z" fill="#FDB528"/>
<path d="M21.0987 77.6063L28.5627 91.6423V91.9863L20.916 77.6063H21.0987Z" fill="#FDB628"/>
<path d="M21.2813 77.6061L28.5626 91.2994V91.6421L21.0986 77.6061H21.2813Z" fill="#FDB828"/>
<path d="M21.4639 77.6065L28.5626 90.9571V91.2998L21.2812 77.6065H21.4639Z" fill="#FDB928"/>
<path d="M21.6469 77.6064L28.5629 90.613V90.957L21.4629 77.6064H21.6469Z" fill="#FDBB28"/>
<path d="M21.8292 77.6061L28.5625 90.2701V90.6128L21.6465 77.6061H21.8292Z" fill="#FEBD28"/>
<path d="M22.0118 77.6065L28.5624 89.9265V90.2705L21.8291 77.6065H22.0118Z" fill="#FEBE28"/>
<path d="M22.1944 77.6068L28.5624 89.5828V89.9268L22.0117 77.6068H22.1944Z" fill="#FEC028"/>
<path d="M22.376 77.606L28.5627 89.2394V89.582L22.1934 77.606H22.376Z" fill="#FEC228"/>
<path d="M22.56 77.6064L28.5626 88.8957V89.2397L22.376 77.6064H22.56Z" fill="#FEC328"/>
<path d="M22.7422 77.6062L28.5622 88.5515V88.8955L22.5596 77.6062H22.7422Z" fill="#FEC528"/>
<path d="M22.9249 77.6064L28.5635 88.2091V88.5518L22.7422 77.6064H22.9249Z" fill="#FFC728"/>
<path d="M23.1065 77.6063L28.5625 87.865V88.209L22.9238 77.6063H23.1065Z" fill="#FFC828"/>
<path d="M23.2904 77.6061L28.5624 87.5221V87.8647L23.1064 77.6061H23.2904Z" fill="#FFCA28"/>
<path d="M28.563 87.5225L23.291 77.6065H28.563V87.5225Z" fill="#FFCA28"/>
<g opacity="0.5">
<path d="M5.82805 93.7852C10.7654 89.5026 10.0254 84.4986 15.4427 82.1466C22.2227 79.2052 26.772 85.8439 26.772 85.8439C26.772 85.8439 26.9307 86.5612 26.9667 87.6426C27.148 85.7252 26.8201 84.2452 26.8201 84.2452C26.8201 84.2452 22.2707 77.6052 15.4921 80.5479C8.71205 83.4892 11.5774 90.5866 0.886719 95.2266C2.73205 94.4252 4.36005 93.9839 5.82805 93.7852Z" fill="white"/>
</g>
<g opacity="0.300003">
<path d="M26.6947 89.2445C25.9041 90.5005 24.6974 91.6485 22.8721 92.4405C17.2654 94.8752 13.9507 90.2339 6.92405 91.1805C5.56539 92.6179 3.69339 94.0072 0.886719 95.2245C11.5761 90.5859 15.0027 97.9859 21.7827 95.0432C24.8361 93.7179 26.1614 91.3965 26.6947 89.2445Z" fill="#132A3E"/>
</g>
<path d="M9.35156 91.7152C15.5756 89.0139 19.7862 93.3205 23.7342 91.6072C27.6809 89.8952 26.2542 84.3712 26.2542 84.3712C26.2542 84.3712 23.1942 79.5565 19.2476 81.2699C15.2996 82.9819 15.5756 89.0139 9.35156 91.7152Z" fill="#FFD553"/>
<path d="M7.59467 93.2129C9.99867 93.2129 11.992 93.7889 13.8507 94.3262C16.4733 95.0836 18.7387 95.7396 21.5547 94.5182C27.4067 91.9769 26.4467 85.4036 26.28 84.4796C25.696 83.6822 21.6267 78.5156 15.7227 81.0782C12.9 82.3036 11.796 84.3316 10.5187 86.6796C9.33333 88.8609 8.03333 91.2489 5.20533 93.4022C6.048 93.2689 6.84267 93.2129 7.59467 93.2129ZM18.3733 96.3516C16.704 96.3516 15.144 95.9009 13.5307 95.4342C10.2667 94.4902 6.56667 93.4222 0.806667 95.9222C0.513333 96.0489 0.174667 95.9156 0.0480003 95.6236C0.014667 95.5476 0 95.4702 0 95.3942C0 95.1702 0.129334 94.9582 0.346667 94.8636C6.11733 92.3609 7.916 89.0489 9.50667 86.1289C10.828 83.6982 12.0747 81.4036 15.2627 80.0196C18.2213 78.7369 21.2467 79.0102 24.0133 80.8116C26.0707 82.1502 27.248 83.8489 27.2973 83.9209C27.34 83.9822 27.368 84.0489 27.3853 84.1222C27.4027 84.2062 27.8413 86.2262 27.4133 88.6436C26.84 91.8942 24.972 94.2916 22.0133 95.5756C20.7147 96.1396 19.5173 96.3516 18.3733 96.3516Z" fill="#132A3E"/>
<path d="M61.7461 49.6216C61.7461 49.6216 69.2408 52.7709 70.5101 54.7176C71.7808 56.6643 67.1234 56.7109 67.1234 56.7109" fill="white"/>
<path d="M63.851 51.2962L67.447 56.0389C68.6924 55.9789 69.891 55.6762 70.0604 55.3589C70.0777 55.3282 70.0457 55.2216 69.9537 55.0829C69.319 54.1082 66.4404 52.5256 63.851 51.2962ZM67.1244 57.3789C66.9164 57.3789 66.719 57.2816 66.595 57.1149L61.2164 50.0242C61.035 49.7856 61.0377 49.4522 61.2217 49.2149C61.4057 48.9776 61.727 48.8922 62.0044 49.0096C62.791 49.3402 69.7257 52.2962 71.0684 54.3549C71.5404 55.0776 71.419 55.6416 71.2337 55.9869C70.5604 57.2456 67.9244 57.3709 67.131 57.3789H67.1244Z" fill="#132A3E"/>
<path d="M30.2879 33.109C27.3759 35.2904 24.7092 45.6797 25.3826 51.8717C26.0572 58.065 37.0039 58.529 43.2639 58.3277C49.5252 58.1277 49.5026 43.9717 49.4212 40.181C49.2932 34.2597 34.6012 29.8757 30.2879 33.109Z" fill="white"/>
<g opacity="0.25">
<path d="M43.2637 58.3277C37.0037 58.5291 26.0584 58.0637 25.3824 51.8718C25.2944 51.0611 25.2624 50.1784 25.2837 49.2518C27.0131 50.6104 29.4211 49.4011 29.7117 47.7398C31.5051 37.4798 35.3251 33.5424 37.1744 32.1944C42.8051 32.9837 49.3357 36.2411 49.4197 40.1811C49.5037 43.9718 49.5237 58.1277 43.2637 58.3277Z" fill="#132A3E"/>
</g>
<path d="M30.2883 33.1113H30.2896H30.2883ZM34.7296 32.6713C33.007 32.6713 31.563 32.9873 30.687 33.6433C27.999 35.6579 25.3963 45.8406 26.0443 51.8032C26.6496 57.3632 37.0803 57.8619 43.2443 57.6659C48.7056 57.4899 48.8443 44.2499 48.7563 40.1966C48.7163 38.3499 46.879 36.4073 43.7176 34.8686C40.7803 33.4393 37.4176 32.6713 34.7296 32.6713ZM41.083 59.0312C33.5176 59.0312 25.347 57.6793 24.7216 51.9459C24.0696 45.9553 26.5523 35.0806 29.8883 32.5793C32.8483 30.3606 39.6736 31.4193 44.3003 33.6713C47.9803 35.4633 50.035 37.7699 50.087 40.1686C50.2363 47.1126 49.5523 58.7939 43.2856 58.9952C42.563 59.0179 41.8256 59.0312 41.083 59.0312Z" fill="#132A3E"/>
<path d="M30.9012 43.4998L28.1225 42.3918C27.4945 42.1412 26.7879 42.4972 26.6185 43.1518C26.0359 45.4025 25.1359 50.0692 27.4012 51.0252C30.1479 52.1825 31.1199 49.0158 31.6025 44.6638C31.6585 44.1625 31.3705 43.6865 30.9012 43.4998Z" fill="white"/>
<g opacity="0.25">
<path d="M31.5988 44.6567C31.1268 49.0087 30.1602 52.1793 27.4108 51.0273C26.2828 50.5553 25.9362 49.1593 25.9455 47.6007C26.1748 48.0473 26.5028 48.3927 26.9615 48.5847C29.4215 49.6153 30.4562 47.182 30.9815 43.5353C31.4015 43.7393 31.6508 44.1873 31.5988 44.6567Z" fill="#132A3E"/>
</g>
<path d="M27.6987 42.9295C27.62 42.9295 27.5414 42.9481 27.468 42.9855C27.392 43.0241 27.2574 43.1188 27.208 43.3108C26.4267 46.3508 26.1334 49.8255 27.6507 50.4615C28.2267 50.7041 28.6894 50.7135 29.0627 50.4935C30.436 49.6841 30.852 45.8521 30.9894 44.5921C31.012 44.3681 30.8827 44.1521 30.6694 44.0681L27.8894 42.9668C27.8267 42.9415 27.7627 42.9295 27.6987 42.9295ZM28.472 51.8828C28.064 51.8828 27.632 51.7881 27.1747 51.5961C24.664 50.5441 25.16 46.3441 26.016 43.0041C26.14 42.5228 26.4654 42.1161 26.9094 41.8908C27.3547 41.6641 27.8774 41.6388 28.34 41.8228L31.1214 42.9241C31.8467 43.2108 32.2947 43.9521 32.212 44.7255C31.7774 48.7241 31.0227 50.7655 29.688 51.5535C29.3147 51.7735 28.908 51.8828 28.472 51.8828Z" fill="#132A3E"/>
<path d="M29.8793 33.122L33.1526 34.634C34.2419 35.146 35.3286 35.6513 36.4099 36.202C36.5739 36.286 36.6393 36.486 36.5566 36.65C36.4779 36.8046 36.2953 36.8713 36.1379 36.8086L36.1326 36.8073C35.0299 36.3686 33.8979 35.9633 32.7726 35.5566L29.3846 34.3566L29.3779 34.3553C29.0313 34.2326 28.8499 33.8513 28.9713 33.5046C29.0953 33.158 29.4753 32.9766 29.8219 33.098C29.8419 33.106 29.8606 33.114 29.8793 33.122Z" fill="#132A3E"/>
<path d="M80.1717 31.1197C79.0917 34.8023 70.8944 41.621 59.1344 41.9623C57.9957 41.997 56.825 41.969 55.6237 41.8717L54.5744 37.3903L53.7344 33.8023C53.7344 33.8023 55.561 33.4703 58.057 32.8063C60.0304 32.2837 62.421 31.5557 64.6597 30.6237C66.773 29.7463 68.7544 28.6863 70.121 27.4477C70.121 27.4477 70.1957 23.7583 71.2424 23.3823C72.5197 22.9237 73.4664 25.5183 73.4664 25.5183C73.4664 25.5183 76.369 22.529 78.065 22.8183C80.585 23.2477 81.3584 27.081 80.1717 31.1197Z" fill="white"/>
<g opacity="0.350006">
<path d="M80.701 28.1091C80.6517 29.0638 80.4757 30.0851 80.173 31.1198C78.989 35.1584 69.2424 42.9704 55.6237 41.8718L53.7344 33.8024C53.7344 33.8024 54.3024 33.6984 55.2344 33.4931L57.4437 37.7704C68.6917 41.1598 78.853 32.2638 80.701 28.1091Z" fill="#132A3E"/>
</g>
<path d="M58.2081 42.6445C57.3468 42.6445 56.4681 42.6112 55.5721 42.5379C55.2068 42.5085 54.9334 42.1885 54.9628 41.8219C54.9921 41.4552 55.3148 41.1832 55.6801 41.2125C69.1108 42.2939 78.4894 34.4979 79.5348 30.9339C80.2814 28.3899 80.2081 25.8565 79.3481 24.4792C78.9934 23.9112 78.5241 23.5725 77.9548 23.4765C77.0254 23.3179 75.0508 24.8472 73.9441 25.9845L73.2054 26.7445L72.8428 25.7485C72.5494 24.9512 71.8774 23.8859 71.4788 24.0072C71.1481 24.2419 70.8201 25.8805 70.7868 27.4619L70.7814 27.7485L70.5681 27.9419C65.8294 32.2339 54.3428 34.3699 53.8548 34.4592C53.4948 34.5245 53.1481 34.2859 53.0814 33.9245C53.0148 33.5632 53.2548 33.2165 53.6174 33.1499C53.7308 33.1299 64.8681 31.0579 69.4641 27.1405C69.5161 25.7752 69.7814 23.2032 71.0174 22.7579C72.2734 22.3059 73.1854 23.4859 73.6801 24.3925C74.7441 23.4259 76.6894 21.9112 78.1788 22.1645C79.1254 22.3259 79.9201 22.8832 80.4774 23.7752C81.5454 25.4845 81.6748 28.3712 80.8121 31.3085C79.6041 35.4219 70.7054 42.6445 58.2081 42.6445Z" fill="#132A3E"/>
<path d="M67.962 57.8172C67.962 57.8172 51.4927 64.1865 45.7154 63.7305C39.9394 63.2745 33.7167 62.3599 33.3767 51.4012C33.1647 44.5879 36.5354 37.8852 39.1154 33.7892C40.6874 31.2945 41.9674 29.7665 41.9674 29.7665L57.8674 30.5785C57.8674 30.5785 57.93 31.4172 58.0567 32.8065C58.1367 33.6759 58.2434 34.7585 58.3794 35.9852C58.5714 37.7492 58.8207 39.8092 59.134 41.9625C59.6114 45.2625 60.2394 48.7799 61.03 51.7692C61.3714 53.0639 66.7994 53.4185 67.962 57.8172Z" fill="white"/>
<path d="M58.7797 37.5271C59.3744 39.4671 59.7144 41.4271 60.0597 43.3871C60.409 45.3444 60.721 47.3058 61.1264 49.2444C61.229 49.7284 61.3384 50.2111 61.4517 50.6924L61.629 51.4111L61.6744 51.5898L61.677 51.6018V51.5991L61.6784 51.5938C61.6784 51.5911 61.677 51.5884 61.6757 51.5858C61.6744 51.5844 61.6704 51.5818 61.669 51.5804C61.6717 51.5818 61.673 51.5831 61.6744 51.5831C61.677 51.5858 61.6757 51.5884 61.6797 51.5938C61.689 51.6018 61.697 51.6098 61.7037 51.6191C61.7117 51.6351 61.753 51.6618 61.777 51.6844C61.901 51.7858 62.0984 51.8964 62.3024 52.0004C62.5064 52.1044 62.7264 52.2058 62.9517 52.3084C63.4024 52.5124 63.869 52.7218 64.333 52.9564C65.2584 53.4231 66.1864 53.9938 66.9624 54.7818C67.349 55.1738 67.6944 55.6191 67.9744 56.1044C68.253 56.5884 68.4664 57.1124 68.609 57.6484L68.7637 58.2258L68.2064 58.4391C65.5877 59.4364 62.9597 60.3604 60.3024 61.2284C57.6437 62.0924 54.9637 62.8978 52.2264 63.5444C50.8557 63.8618 49.473 64.1498 48.045 64.3098C47.3317 64.3911 46.609 64.4458 45.8517 64.4031C45.6557 64.3978 45.4904 64.3791 45.313 64.3658L44.789 64.3204C44.4384 64.2884 44.0864 64.2538 43.7344 64.2124C42.3264 64.0471 40.897 63.7978 39.513 63.2884C38.8224 63.0324 38.1464 62.7111 37.5157 62.3071C36.8837 61.9044 36.2984 61.4204 35.785 60.8684C35.273 60.3164 34.8397 59.6978 34.4784 59.0484C34.1197 58.3978 33.8224 57.7178 33.601 57.0218L33.513 56.7618L33.4397 56.4991L33.2944 55.9724L33.1757 55.4431L33.117 55.1778L33.0704 54.9111L32.9757 54.3791C32.949 54.2004 32.929 54.0231 32.905 53.8444C32.8544 53.4884 32.8237 53.1324 32.7944 52.7764C32.6757 51.3604 32.6797 49.9084 32.8317 48.4871C32.9797 47.0618 33.2557 45.6591 33.629 44.2858C34.3717 41.5378 35.4944 38.9204 36.8157 36.4284C37.477 35.1818 38.1397 33.9311 38.941 32.7671C39.7437 31.6071 40.6317 30.4991 41.801 29.6258C41.901 29.5511 42.0437 29.5711 42.1197 29.6724C42.1704 29.7418 42.177 29.8298 42.1437 29.9018L42.141 29.9111C41.5557 31.1991 40.8437 32.3711 40.1184 33.5351C39.4064 34.7071 38.6384 35.8444 37.993 37.0564C36.7037 39.4738 35.6237 42.0071 34.913 44.6338C34.557 45.9458 34.2944 47.2804 34.1544 48.6244C34.0117 49.9711 34.0077 51.3124 34.1197 52.6684C34.1477 53.0058 34.177 53.3431 34.225 53.6751C34.2477 53.8418 34.265 54.0098 34.2917 54.1751L34.3784 54.6711L34.421 54.9178L34.4757 55.1631L34.585 55.6511L34.7184 56.1298L34.785 56.3698L34.8637 56.6044C35.0637 57.2338 35.329 57.8338 35.641 58.4004C35.9557 58.9671 36.3264 59.4964 36.761 59.9644C37.6304 60.9031 38.7437 61.5898 39.9744 62.0404C41.205 62.4938 42.5357 62.7324 43.8877 62.8898C44.2264 62.9311 44.5677 62.9644 44.9104 62.9951L45.4237 63.0391C45.593 63.0524 45.7744 63.0711 45.9264 63.0738C46.0877 63.0778 46.2437 63.0951 46.409 63.0871L46.8997 63.0751C47.2317 63.0498 47.5624 63.0324 47.897 62.9884C49.237 62.8378 50.585 62.5604 51.9224 62.2498C54.601 61.6164 57.2557 60.8204 59.889 59.9644C62.5224 59.1044 65.1437 58.1818 67.7264 57.1978L67.3224 57.9884C67.0944 57.1284 66.6464 56.3538 66.0144 55.7178C65.385 55.0751 64.589 54.5751 63.7344 54.1444C63.3064 53.9271 62.861 53.7284 62.401 53.5204C62.1704 53.4151 61.937 53.3084 61.697 53.1858C61.4557 53.0604 61.2104 52.9324 60.9437 52.7218C60.8744 52.6604 60.8104 52.6164 60.7397 52.5351L60.6384 52.4218C60.6037 52.3778 60.5704 52.3271 60.5384 52.2778C60.4744 52.1938 60.4184 52.0271 60.3877 51.9298L60.3397 51.7471L60.1477 51.0111C60.0264 50.5218 59.9077 50.0298 59.797 49.5378C59.5717 48.5551 59.357 47.5698 59.1677 46.5804C58.9757 45.5924 58.8184 44.5991 58.6784 43.6031C58.4037 41.6124 58.2144 39.6098 58.3384 37.5791C58.3464 37.4551 58.453 37.3604 58.5784 37.3684C58.6744 37.3738 58.7517 37.4404 58.7797 37.5271Z" fill="#132A3E"/>
<path d="M34.9763 91.2992L32.1256 91.7432C30.8376 91.9432 29.5416 91.4192 28.7536 90.3805C26.4069 87.2818 24.9536 83.6032 24.5509 79.7378C24.4136 78.4405 25.0029 77.1725 26.0803 76.4378L28.4629 74.8138" fill="#308A91"/>
<g opacity="0.600006">
<path d="M28.9667 76.4514L26.6067 78.0594C26.012 78.4647 25.5507 79.018 25.2587 79.65C24.9653 80.2807 24.84 80.99 24.916 81.7087C24.9733 82.262 25.0507 82.8127 25.148 83.3594C24.864 82.2914 24.6613 81.1994 24.5467 80.0914C24.4787 79.4447 24.592 78.802 24.8573 78.23C25.12 77.6594 25.5373 77.1607 26.0773 76.7927L28.46 75.1687L28.9667 76.4514Z" fill="white"/>
</g>
<g opacity="0.350006">
<path d="M31.8357 84.9857L27.9531 75.1604L28.1144 75.0511L32.0277 84.9564L31.8357 84.9857ZM26.3438 85.6671H26.3451C26.9251 86.8257 27.6131 87.9337 28.4011 88.9751C29.1891 90.0137 30.4837 90.5377 31.7731 90.3364L34.4304 89.9231L28.4624 74.8137L27.9531 75.1604L32.3784 86.3617L29.5291 86.8057C28.3371 86.9911 27.1411 86.5564 26.3438 85.6671Z" fill="#132A3E"/>
</g>
<path d="M35.4786 70.4365C33.9972 67.5338 28.9199 63.6925 18.9346 70.0298C18.8039 70.1125 18.8426 70.3152 18.9959 70.3418C20.6572 70.6378 28.4746 71.9698 29.9052 76.0352" fill="#308A91"/>
<g opacity="0.600006">
<path d="M20.6163 70.4779C19.8989 70.3245 19.3243 70.2245 18.9949 70.1659C18.8429 70.1379 18.8043 69.9365 18.9336 69.8539C28.9203 63.5165 33.9963 67.3579 35.4776 70.2605L34.8736 70.8672C32.9589 68.3939 28.4576 66.1379 20.6163 70.4779Z" fill="white"/>
</g>
<path d="M29.9027 76.7031C29.628 76.7031 29.372 76.5325 29.2747 76.2591C28.7974 74.8991 26.8187 72.4111 18.9547 71.0125L18.876 70.9991C18.5347 70.9378 18.2694 70.6778 18.204 70.3378C18.136 69.9965 18.2814 69.6565 18.5747 69.4698C23.4307 66.3898 27.6614 65.3111 31.1534 66.2658C34.236 67.1085 35.6174 69.2538 36.068 70.1365C36.2347 70.4631 36.104 70.8645 35.7774 71.0311C35.4507 71.1978 35.0494 71.0685 34.8827 70.7405C34.512 70.0151 33.3747 68.2525 30.804 67.5498C27.984 66.7791 24.3974 67.6018 20.3774 69.9311C27.5427 71.4138 29.864 73.9245 30.5307 75.8165C30.652 76.1631 30.4707 76.5431 30.124 76.6645C30.0494 76.6911 29.976 76.7031 29.9027 76.7031Z" fill="#132A3E"/>
<path d="M42.9632 89.3838C43.8645 92.5158 42.8512 98.9572 31.2299 101.157C31.0779 101.185 30.9685 101.01 31.0619 100.886C32.0725 99.5345 36.7979 93.0398 35.0632 89.0945" fill="#D25658"/>
<path d="M31.2293 101.157C31.0773 101.185 30.9693 101.012 31.0613 100.886C31.5786 100.194 33.0706 98.1531 34.1693 95.7958C35.2093 93.5678 35.8973 91.0571 35.0813 89.1371C35.076 89.1238 35.068 89.1091 35.0626 89.0958L35.1106 89.0971L42.9613 89.3838C43.2146 90.2625 43.316 91.4025 43.0746 92.6371C42.46 95.7971 39.5893 99.5745 31.2293 101.157Z" fill="#308A91"/>
<g opacity="0.350006">
<path d="M34.1719 95.7969C35.2119 93.5689 35.8999 91.0582 35.0839 89.1395C35.0919 89.1262 35.1025 89.1115 35.1132 89.0982L42.9639 89.3849C43.2172 90.2649 43.3185 91.4049 43.0772 92.6382C41.2039 94.2275 38.3652 95.4769 34.1719 95.7969Z" fill="#132A3E"/>
</g>
<path d="M31.1939 101.828C30.9099 101.828 30.6433 101.683 30.4873 101.435C30.3033 101.14 30.3193 100.769 30.5259 100.491C31.8286 98.7495 35.9619 92.7975 34.4539 89.3655C34.3046 89.0295 34.4579 88.6361 34.7953 88.4881C35.1313 88.3401 35.5233 88.4935 35.6713 88.8308C37.2059 92.3228 34.2993 97.4161 32.3419 100.245C36.8073 99.2081 39.9593 97.3588 41.4966 94.8588C42.9806 92.4468 42.5033 90.2015 42.3219 89.5708C42.2193 89.2175 42.4233 88.8495 42.7766 88.7481C43.1299 88.6455 43.4979 88.8495 43.6006 89.2028C43.8819 90.1801 44.3526 92.7575 42.6299 95.5561C40.7246 98.6521 36.9299 100.757 31.3526 101.812C31.2993 101.823 31.2459 101.828 31.1939 101.828Z" fill="#132A3E"/>
<path d="M89.9043 59.9932C89.9043 59.9932 87.2936 76.6039 65.779 86.8639C47.4496 95.6052 34.7776 91.2985 34.7776 91.2985C32.203 88.4279 30.3336 85.0305 29.2723 81.3799C28.6563 79.2585 28.315 77.0532 28.2656 74.8132C28.2656 74.8132 31.0803 69.5439 38.7203 64.2145C38.9843 64.0319 39.2536 63.8465 39.5283 63.6639C42.5123 61.6705 46.179 59.6932 50.6376 58.0065C51.6883 57.6079 52.7843 57.2265 53.9256 56.8639C53.971 56.8492 54.015 56.8359 54.059 56.8225C58.663 55.3705 62.8763 54.6425 66.667 54.3999C66.7883 54.3905 66.9083 54.3839 67.0283 54.3785C81.6576 53.5599 89.9043 59.9932 89.9043 59.9932Z" fill="white"/>
<path d="M78.9363 78.2305C77.5083 69.6825 74.2869 61.5305 69.4883 54.3118C82.7003 54.2238 90.0989 59.9958 90.0989 59.9958C90.0989 59.9958 88.6416 69.2638 78.9363 78.2305Z" fill="#308A91"/>
<g opacity="0.600006">
<path d="M89.8256 61.0273C90.0296 60.2553 90.0989 59.8207 90.0989 59.8207C90.0989 59.8207 82.7003 54.0487 69.4883 54.1367C69.7976 54.6033 70.1003 55.0727 70.3976 55.5473C81.5976 55.7007 88.4149 60.0393 89.8256 61.0273Z" fill="white"/>
</g>
<path d="M70.718 54.9867C74.9993 61.7067 77.9073 69.0667 79.374 76.896C86.1233 70.3 88.4593 63.7054 89.162 61.1014C89.2953 60.6094 89.0927 60.0974 88.6593 59.8294C86.366 58.408 80.1527 55.1894 70.718 54.9867ZM78.482 79.5547L78.278 78.34C76.8553 69.828 73.71 61.868 68.9313 54.6814L68.25 53.6547L69.4807 53.6467C79.9553 53.5747 86.8713 57.156 89.3593 58.6974C90.298 59.2787 90.734 60.384 90.446 61.448C89.6833 64.2747 87.078 71.6147 79.386 78.7187L78.482 79.5547Z" fill="#132A3E"/>
<path d="M35.3437 90.7207C36.0477 90.9287 39.0331 91.7233 43.6664 91.6967C48.5651 91.674 56.3611 90.714 65.6837 86.2687C70.4637 83.9887 74.6797 81.2033 78.2171 77.986C76.7877 69.726 73.7317 61.99 69.1304 54.9807C64.3491 55.0513 59.3677 55.8993 54.3184 57.502C36.5957 63.13 29.9277 73.6287 29.1277 74.9847C29.2104 77.8753 29.7917 80.7047 30.8544 83.398C31.9184 86.0887 33.4277 88.5527 35.3437 90.7207ZM43.4784 93.0273C38.0451 93.0273 34.8891 91.9767 34.7571 91.9313L34.5917 91.8753L34.4757 91.746C32.3957 89.426 30.7611 86.782 29.6171 83.886C28.4731 80.99 27.8597 77.9433 27.7931 74.8313L27.7891 74.6567L27.8717 74.502C27.9371 74.378 29.5464 71.4113 33.5784 67.6593C37.2731 64.2207 43.8024 59.4447 53.9171 56.234C59.2184 54.55 64.4557 53.6793 69.4811 53.646L69.8397 53.6447L70.0384 53.9433C74.9104 61.2713 78.1211 69.3847 79.5797 78.058L79.7117 78.4167L79.3864 78.7207C75.6957 82.1313 71.2771 85.074 66.2571 87.4687C56.6771 92.0367 48.6491 93.0127 43.5984 93.0273H43.4784Z" fill="#132A3E"/>
<path d="M31.573 92.4531C30.2677 92.4531 29.0237 91.8465 28.2183 90.7851C25.7997 87.5905 24.2997 83.7958 23.8823 79.8105C23.721 78.2665 24.4183 76.7651 25.701 75.8918L28.085 74.2678C28.3877 74.0611 28.8023 74.1385 29.009 74.4425C29.2157 74.7465 29.137 75.1598 28.833 75.3678L26.4503 76.9905C25.573 77.5891 25.097 78.6158 25.2077 79.6718C25.5983 83.4158 27.0063 86.9811 29.2797 89.9811C29.921 90.8278 30.9703 91.2518 32.0197 91.0878L34.869 90.6451C35.2317 90.5905 35.5717 90.8371 35.629 91.1998C35.685 91.5638 35.4357 91.9025 35.073 91.9598L32.2237 92.4025C32.0063 92.4371 31.789 92.4531 31.573 92.4531Z" fill="#132A3E"/>
<g opacity="0.350006">
<path d="M66.4846 80.2128C61.7846 82.0701 56.4686 79.7648 54.6113 75.0634C52.7539 70.3634 55.0606 65.0461 59.7606 63.1901C64.4606 61.3328 69.7779 63.6381 71.6339 68.3394C73.4913 73.0394 71.1859 78.3554 66.4846 80.2128Z" fill="#132A3E"/>
</g>
<path d="M66.3499 78.2271C62.1219 79.8964 57.3419 77.8244 55.6712 73.5964C54.0019 69.3697 56.0752 64.5884 60.3019 62.9191C64.5299 61.2497 69.3099 63.3217 70.9805 67.5497C72.6499 71.7764 70.5765 76.5577 66.3499 78.2271Z" fill="#308A91"/>
<g opacity="0.600006">
<path d="M71.4193 69.254C71.3633 69.0753 71.3007 68.898 71.23 68.7233C69.562 64.4953 64.7807 62.4233 60.554 64.0927C56.8273 65.5633 54.7753 69.4527 55.486 73.25C54.174 69.158 56.2473 64.6953 60.3007 63.0927C64.5287 61.4233 69.3087 63.4967 70.9793 67.7247C71.178 68.2287 71.3247 68.7407 71.4193 69.254Z" fill="white"/>
</g>
<g opacity="0.350006">
<path d="M66.3482 78.2269C62.1216 79.8962 57.3416 77.8256 55.6709 73.5976C55.1469 72.2682 54.9909 70.8842 55.1576 69.5589C55.2509 70.1602 55.4096 70.7589 55.6429 71.3496C57.3136 75.5776 62.0936 77.6509 66.3202 75.9802C69.2189 74.8362 71.1029 72.2269 71.4629 69.3389C72.0296 73.0482 69.9869 76.7896 66.3482 78.2269Z" fill="#132A3E"/>
</g>
<path d="M63.3232 63.0047C62.3832 63.0047 61.4432 63.182 60.5419 63.538C58.6632 64.2807 57.1845 65.71 56.3819 67.5633C55.5765 69.418 55.5432 71.474 56.2859 73.3527C57.0285 75.2313 58.4592 76.7087 60.3112 77.5127C62.1659 78.3167 64.2219 78.35 66.1005 77.6087C67.9792 76.866 69.4579 75.4367 70.2605 73.5833C71.0659 71.7287 71.0992 69.6727 70.3565 67.794C69.6139 65.9153 68.1845 64.4367 66.3312 63.634C65.3645 63.214 64.3459 63.0047 63.3232 63.0047ZM63.3192 79.4727C62.1179 79.4727 60.9179 79.226 59.7832 78.734C57.6032 77.7887 55.9205 76.0513 55.0485 73.8407C54.1765 71.6313 54.2152 69.214 55.1605 67.034C56.1059 64.8553 57.8432 63.1727 60.0539 62.3007C62.2632 61.4273 64.6805 61.4673 66.8592 62.4127C69.0392 63.358 70.7219 65.0953 71.5939 67.306C72.4659 69.5153 72.4272 71.9327 71.4819 74.1127C70.5365 76.2913 68.7992 77.9727 66.5885 78.846C65.5299 79.2647 64.4245 79.4727 63.3192 79.4727" fill="#132A3E"/>
<path d="M65.3016 75.3158C62.6122 76.3785 59.5709 75.0598 58.5082 72.3705C57.4456 69.6812 58.7656 66.6398 61.4536 65.5772C64.1442 64.5145 67.1856 65.8345 68.2469 68.5225C69.3096 71.2118 67.9922 74.2545 65.3016 75.3158Z" fill="#6BD6F0"/>
<g opacity="0.300003">
<path d="M65.3019 75.316C62.6125 76.3787 59.5712 75.0587 58.5085 72.3693C58.2779 71.788 58.1605 71.1867 58.1445 70.5947C58.1632 70.6507 58.1845 70.7053 58.2059 70.76C59.2685 73.4493 62.3085 74.7693 64.9979 73.7067C67.1072 72.8747 68.3712 70.828 68.3099 68.688C69.2565 71.3347 67.9365 74.2747 65.3019 75.316Z" fill="white"/>
</g>
<g opacity="0.350006">
<path d="M68.6703 70.7132C68.6409 70.6292 68.6116 70.5439 68.5783 70.4599C67.5156 67.7693 64.4743 66.4506 61.7849 67.5132C59.7596 68.3119 58.5116 70.2332 58.4743 72.2812C57.5876 69.6559 58.9089 66.7706 61.5129 65.7412C64.2009 64.6812 67.2423 65.9972 68.3049 68.6866C68.5676 69.3532 68.6863 70.0399 68.6703 70.7132Z" fill="#132A3E"/>
</g>
<path d="M63.3724 65.873C62.8138 65.873 62.2471 65.9757 61.6978 66.193C59.3538 67.1197 58.2004 69.7783 59.1258 72.1223C59.5751 73.2583 60.4391 74.1503 61.5591 74.637C62.6791 75.1223 63.9218 75.1423 65.0564 74.6943C67.4004 73.7677 68.5538 71.1077 67.6271 68.7637C66.9191 66.9703 65.1938 65.873 63.3724 65.873ZM63.3764 76.3477C62.5791 76.3477 61.7831 76.1837 61.0298 75.857C59.5831 75.2303 58.4684 74.077 57.8898 72.6117C56.6938 69.585 58.1831 66.1503 61.2098 64.9557C64.2351 63.7597 67.6711 65.249 68.8658 68.2757C70.0618 71.301 68.5711 74.7357 65.5458 75.9317C64.8444 76.209 64.1098 76.3477 63.3764 76.3477Z" fill="#132A3E"/>
<g opacity="0.199997">
<path d="M80.4635 59.2211C80.4248 57.9718 77.8261 56.9918 76.3581 57.0038C74.8355 57.0158 73.9208 57.2771 73.9141 58.0145C73.9048 59.0425 75.0901 59.4051 76.4981 59.4585C77.4941 59.4971 80.5128 60.7638 80.4635 59.2211Z" fill="white"/>
</g>
<g opacity="0.199997">
<path d="M84.2782 60.7985C84.1955 59.7158 82.8862 58.7052 82.1742 58.6238C81.4355 58.5398 81.0048 58.7092 81.0368 59.3452C81.0835 60.2345 81.6782 60.6212 82.3648 60.7558C82.8515 60.8505 84.3782 62.1345 84.2782 60.7985Z" fill="white"/>
</g>
<g opacity="0.350006">
<path d="M34.6223 90.0723C34.6223 90.0723 47.2943 94.3776 65.6223 85.639C84.2356 76.763 88.6996 63.135 89.5649 59.619C89.6516 59.679 89.7289 59.731 89.7969 59.7776C89.5263 59.5896 89.0783 59.2936 88.4556 58.931C85.9276 64.675 79.9129 73.915 66.0569 80.523C57.4023 84.6496 50.0089 85.867 44.6169 86.0043C37.7276 86.1776 31.5356 81.7576 29.5849 75.1496C29.5729 75.1123 29.5623 75.0763 29.5516 75.039C29.4769 74.7776 29.4049 74.5136 29.3369 74.2483C29.3023 74.1376 29.2649 74.0296 29.2329 73.919C29.2223 73.8816 29.2103 73.8456 29.2009 73.8096C29.1903 73.7696 29.1796 73.731 29.1676 73.6923C29.1769 73.6803 29.1849 73.6683 29.1929 73.6563C28.6903 74.3896 28.4609 74.8176 28.4609 74.8176C28.5036 76.795 28.7756 78.747 29.2636 80.6363C30.3449 84.103 32.1596 87.3283 34.6223 90.0723Z" fill="#132A3E"/>
</g>
<path d="M33.7227 85.5526C29.9507 87.042 25.0547 85.5233 25.0547 85.5233C25.0547 85.5233 25.0654 85.506 25.084 85.4766C25.3667 84.994 27.8187 80.978 31.3614 79.578C34.76 78.234 38.464 79.6126 39.124 79.882C39.192 79.91 39.2267 79.9246 39.2267 79.9246C39.2267 79.9246 37.472 84.074 33.7227 85.5526Z" fill="#308A91"/>
<g opacity="0.600006">
<path d="M39.4025 80.1015C39.4025 80.1015 39.2958 80.3535 39.0798 80.7561C37.8185 80.3188 34.6958 79.4815 31.7918 80.6295C28.9425 81.7561 26.7998 84.5735 25.9211 85.8828C25.4851 85.7788 25.2305 85.7001 25.2305 85.7001C25.2305 85.7001 25.2411 85.6841 25.2598 85.6535C25.5425 85.1708 27.9945 81.1561 31.5385 79.7548C34.9371 78.4095 38.6398 79.7895 39.2985 80.0588C39.3678 80.0868 39.4025 80.1015 39.4025 80.1015Z" fill="white"/>
</g>
<g opacity="0.350006">
<path d="M33.7227 85.5526C29.9507 87.042 25.0547 85.5233 25.0547 85.5233C25.0547 85.5233 25.0654 85.506 25.084 85.4766L39.124 79.882C39.192 79.91 39.2267 79.9246 39.2267 79.9246C39.2267 79.9246 37.472 84.074 33.7227 85.5526Z" fill="#132A3E"/>
</g>
<path d="M25.057 85.523H25.0583H25.057ZM26.1116 85.1057C27.6316 85.4457 30.8783 85.9617 33.4796 84.935C36.085 83.907 37.6743 81.4497 38.305 80.291C37.0503 79.8763 34.2023 79.1697 31.609 80.1963C29.001 81.227 26.9863 83.8203 26.1116 85.1057ZM29.841 86.875C27.213 86.875 24.9983 86.2017 24.861 86.159L24.0703 85.9137L24.4783 85.1937C24.5863 85.0043 27.1756 80.519 31.1196 78.959C35.0823 77.3923 39.3196 79.2377 39.4983 79.3163L40.0956 79.5817L39.841 80.1843C39.765 80.3643 37.9316 84.607 33.9703 86.1723C32.6343 86.699 31.1836 86.875 29.841 86.875Z" fill="#132A3E"/>
<g opacity="0.25">
<path d="M52.472 71.9785C52.9973 72.7305 56.6147 78.8372 53.704 81.2625C51.1533 83.3892 46.448 83.0385 43.968 79.6985C42.3307 77.4879 41.9973 74.9399 42.0907 72.9905C42.2 70.7132 42.608 68.5412 41.472 66.8359C40.8667 65.9239 39.868 65.1145 38.7227 64.2145C38.9867 64.0319 39.256 63.8465 39.5307 63.6639C42.5147 61.6719 46.1813 59.6945 50.64 58.0065C51.5093 58.4265 52.3427 58.9652 53.0427 59.6572C55.804 62.3959 55.8813 67.8945 54.0053 70.1239C53.268 71.0025 52.472 71.9785 52.472 71.9785Z" fill="#132A3E"/>
</g>
<path d="M54.1354 70.319C54.6594 71.0697 58.2781 77.1764 55.3661 79.603C52.8167 81.7284 48.1101 81.379 45.6301 78.0377C43.9927 75.827 43.6607 73.279 43.7527 71.3297C43.8634 69.0524 44.2714 66.8804 43.1341 65.1764C41.8421 63.2337 36.7994 62.5084 34.2901 59.6324C32.8127 57.939 32.0207 54.8644 32.1554 51.0964C32.1967 49.9524 32.3234 48.743 32.5434 47.4884C33.4741 42.163 36.0781 36.0377 40.8754 30.6137C40.8754 30.6137 42.7807 38.2377 44.7781 45.0124C46.1714 49.735 47.6074 54.043 48.4714 55.063C48.5861 55.2004 48.6914 55.2764 48.7834 55.2897C49.9207 55.447 51.0354 55.7644 52.0914 56.247C53.0354 56.6804 53.9487 57.2484 54.7061 57.9977C57.4661 60.7364 57.5434 66.235 55.6674 68.4644C54.9301 69.343 54.1354 70.319 54.1354 70.319Z" fill="white"/>
<g opacity="0.25">
<path d="M56.2954 78.211C56.1234 78.7444 55.8274 79.219 55.3661 79.603C52.8167 81.7284 48.1101 81.379 45.6301 78.0377C43.9914 75.8284 43.6594 73.279 43.7527 71.3297C43.8634 69.0524 44.2674 66.8804 43.1341 65.1777C41.8421 63.235 36.7994 62.5084 34.2887 59.6337C32.8127 57.9404 32.0207 54.8617 32.1554 51.0964C32.1554 51.0804 32.1567 51.0617 32.1567 51.0444C32.1607 50.919 32.1674 50.7924 32.1741 50.6644C32.1821 50.547 32.1887 50.4297 32.1967 50.3097C32.2007 50.2564 32.2034 50.2017 32.2087 50.147C32.2301 49.8657 32.2554 49.5817 32.2861 49.2937C32.3021 49.1564 32.3181 49.019 32.3341 48.879C32.3461 48.783 32.3594 48.6844 32.3727 48.587C32.3821 48.5057 32.3941 48.4244 32.4061 48.3417C32.4247 48.2137 32.4434 48.0857 32.4647 47.9564C32.4887 47.8097 32.5127 47.6617 32.5381 47.5137C32.5394 47.5057 32.5407 47.4977 32.5434 47.4884C32.6901 47.3217 32.7954 47.2297 32.7954 47.2297C32.7954 47.2297 33.2981 47.4577 34.3714 47.735C36.0754 48.1777 39.2194 48.7497 44.0794 48.743L44.0021 46.223C43.9861 45.6857 44.3074 45.211 44.7781 45.0124C44.8901 44.9644 45.0114 44.9324 45.1407 44.919L48.1581 44.5964L52.5234 55.163L48.4714 55.063L45.4247 54.9884C44.7687 54.947 44.2514 54.4124 44.2314 53.7564L44.1941 52.4897C41.5274 53.087 37.1141 53.243 34.2594 52.3017C34.4714 54.9337 35.2061 57.059 36.3434 58.363C38.8514 61.239 42.6114 59.695 45.1567 62.663C46.7474 64.519 45.9154 67.7844 45.8061 70.0617C45.7127 72.011 44.9581 74.8697 46.5954 77.0777C48.7607 79.999 53.4447 79.739 56.2954 78.211Z" fill="#132A3E"/>
</g>
<g opacity="0.25">
<path d="M64.6616 30.6264C63.027 32.873 60.8723 34.7197 58.3803 35.9877C57.1843 36.5944 55.911 37.0704 54.5763 37.3917C53.2003 37.7264 51.763 37.8984 50.2856 37.8877C47.6563 37.8704 45.167 37.277 42.935 36.229C40.7083 35.1824 38.0456 36.181 37.031 38.421C35.5723 41.645 34.7163 44.8384 34.371 47.7344C33.299 47.457 32.7963 47.229 32.7963 47.229C32.7963 47.229 32.6896 47.321 32.543 47.4877C33.4736 42.1624 36.079 36.037 40.875 30.613L40.9256 31.1237C41.563 30.253 41.9683 29.7677 41.9683 29.7677L57.8683 30.5797C57.8683 30.5797 57.931 31.4184 58.059 32.8077C60.031 32.2864 62.4216 31.557 64.6616 30.6264Z" fill="#132A3E"/>
</g>
<path d="M49.1016 55.111C49.9656 55.1004 50.8336 55.2404 51.6709 55.4937C52.5069 55.7484 53.3216 56.107 54.0723 56.607C54.4456 56.8564 54.8043 57.1364 55.1389 57.4484C55.4749 57.7684 55.7789 58.1257 56.0443 58.5004C56.5749 59.255 56.9456 60.0964 57.2003 60.9564C57.4483 61.819 57.5869 62.7044 57.6163 63.5937C57.6509 64.483 57.5829 65.3777 57.3816 66.259C57.1789 67.1364 56.8576 68.0217 56.2469 68.8004L54.6483 70.7364L54.6789 69.935C54.8123 70.1324 54.9163 70.3044 55.0243 70.4857C55.1296 70.6657 55.2323 70.8457 55.3309 71.027C55.5269 71.391 55.7136 71.759 55.8883 72.135C56.2376 72.8844 56.5389 73.6604 56.7736 74.4697C57.0016 75.2817 57.1683 76.131 57.1469 77.0297C57.1349 77.479 57.0803 77.9404 56.9323 78.395C56.7883 78.8484 56.5536 79.291 56.2349 79.6657L56.1149 79.8057C56.0736 79.851 56.0269 79.891 55.9829 79.9337C55.8949 80.0137 55.8043 80.1097 55.7136 80.1697C55.5309 80.3017 55.3549 80.443 55.1656 80.563C54.9709 80.6724 54.7789 80.7884 54.5803 80.891L53.9683 81.1537C53.1349 81.4577 52.2563 81.595 51.3843 81.5897C50.5123 81.583 49.6443 81.435 48.8189 81.1537C47.9923 80.879 47.2216 80.439 46.5349 79.9017C46.3629 79.767 46.1883 79.635 46.0376 79.4764C45.8843 79.3217 45.7189 79.1764 45.5749 79.0124L45.1589 78.507C45.0216 78.339 44.9083 78.159 44.7843 77.9844C44.3136 77.2657 43.9416 76.487 43.6656 75.6804C43.3989 74.871 43.2176 74.0364 43.1376 73.1964C43.0923 72.7764 43.0749 72.355 43.0736 71.9337C43.0723 71.723 43.0803 71.5137 43.0869 71.3044L43.1229 70.695C43.1749 69.887 43.2443 69.1017 43.2456 68.3444C43.2443 67.5897 43.1789 66.8604 42.9283 66.2297C42.9003 66.1497 42.8696 66.071 42.8296 65.9964C42.7923 65.9217 42.7616 65.843 42.7176 65.7724L42.5883 65.5564C42.5429 65.495 42.5083 65.4404 42.4563 65.383C42.2603 65.1564 41.9896 64.9404 41.6869 64.7444C41.0763 64.3524 40.3643 64.0244 39.6443 63.6977C38.2016 63.043 36.6816 62.399 35.2949 61.4137C34.6056 60.9164 33.9523 60.3377 33.4243 59.607C32.9056 58.8884 32.5429 58.0977 32.2696 57.2977C31.9976 56.495 31.8136 55.675 31.6843 54.8537C31.5669 54.031 31.5003 53.2057 31.4803 52.3817C31.4509 50.735 31.5976 49.0977 31.8669 47.4857C32.4269 44.2657 33.4896 41.1524 34.9363 38.239C35.6736 36.7897 36.4269 35.3404 37.3563 34.0004C38.2936 32.6724 39.3536 31.415 40.7083 30.4644C40.8109 30.391 40.9536 30.4164 41.0256 30.519C41.0763 30.591 41.0789 30.683 41.0416 30.7564L41.0403 30.7577C40.2843 32.2044 39.3856 33.4777 38.5336 34.7964C37.6763 36.1044 36.8136 37.419 36.1283 38.831C34.7349 41.6364 33.7136 44.6337 33.1789 47.7097C32.9216 49.2484 32.7829 50.8057 32.8109 52.3537C32.8296 53.127 32.8923 53.8964 33.0003 54.655C33.1203 55.411 33.2883 56.155 33.5283 56.8644C33.7683 57.5737 34.0843 58.251 34.5029 58.8284C34.9109 59.3977 35.4643 59.8964 36.0696 60.3324C37.2923 61.2044 38.7323 61.8257 40.1936 62.4857C40.9269 62.8204 41.6736 63.1577 42.4096 63.627C42.7763 63.8657 43.1443 64.143 43.4709 64.5217C43.5523 64.6124 43.6296 64.7257 43.6989 64.8257L43.8789 65.1244C43.9403 65.223 43.9829 65.331 44.0349 65.4337C44.0883 65.5377 44.1309 65.6444 44.1709 65.751C44.3376 66.1804 44.4429 66.6244 44.4989 67.059C44.5563 67.495 44.5803 67.9257 44.5763 68.3457C44.5736 69.1857 44.5003 69.9937 44.4509 70.779L44.4163 71.3657C44.4096 71.555 44.4029 71.7444 44.4056 71.9337C44.4069 72.311 44.4203 72.6884 44.4616 73.063C44.5323 73.8124 44.6936 74.5484 44.9256 75.255C45.4096 76.6564 46.2136 77.979 47.3589 78.8564C47.9269 79.3004 48.5643 79.6684 49.2549 79.8964C49.9416 80.1297 50.6669 80.2537 51.3909 80.259C52.1149 80.2644 52.8389 80.1497 53.5083 79.9057L53.9949 79.695C54.1509 79.6137 54.3003 79.523 54.4549 79.4377C54.6029 79.3444 54.7363 79.2337 54.8789 79.1337C54.9576 79.083 55.0003 79.027 55.0603 78.975C55.0869 78.9484 55.1189 78.9244 55.1443 78.895L55.2176 78.807C55.6189 78.343 55.8056 77.699 55.8163 76.9977C55.8349 76.2964 55.6976 75.5577 55.4936 74.835C55.2856 74.111 55.0069 73.3937 54.6816 72.695C54.5176 72.3457 54.3456 72.0004 54.1616 71.663C54.0709 71.4937 53.9736 71.327 53.8789 71.1617C53.7829 71.0004 53.6789 70.831 53.5869 70.6964L53.3016 70.2777L53.6176 69.895L55.2069 67.9697C55.6323 67.431 55.9176 66.7124 56.0789 65.9684C56.4029 64.4684 56.2963 62.8377 55.8389 61.367C55.6069 60.6324 55.2909 59.9284 54.8696 59.3097C54.6616 58.9977 54.4256 58.7137 54.1683 58.4457C53.9056 58.1764 53.6163 57.927 53.3056 57.6977C52.6869 57.239 52.0043 56.8337 51.2856 56.4804C50.5683 56.1284 49.8149 55.8297 49.0309 55.5497L49.0283 55.5484C48.9123 55.507 48.8523 55.3777 48.8936 55.2604C48.9256 55.1697 49.0109 55.1124 49.1016 55.111Z" fill="#132A3E"/>
<path d="M43.8101 67.457C43.5647 67.457 43.3501 67.2757 43.3167 67.025C42.5407 61.2837 45.9407 58.569 47.4394 57.669C49.9221 56.1757 52.9141 56.0357 54.7167 57.329C54.9407 57.4904 54.9914 57.8024 54.8314 58.0264C54.6701 58.249 54.3581 58.301 54.1341 58.1397C52.6714 57.089 50.0701 57.2504 47.9527 58.5237C46.6234 59.3224 43.6101 61.737 44.3061 66.8917C44.3421 67.1637 44.1514 67.4157 43.8781 67.453C43.8554 67.4557 43.8341 67.457 43.8101 67.457Z" fill="#132A3E"/>
<path d="M55.0514 70.2344C54.9807 70.301 54.9327 70.341 54.874 70.3904C54.8194 70.4384 54.762 70.481 54.7047 70.525C54.5914 70.613 54.474 70.6904 54.3554 70.7677C54.118 70.9224 53.8647 71.053 53.6074 71.173C53.0887 71.4064 52.5314 71.5717 51.9567 71.637C51.382 71.6997 50.7847 71.6757 50.2367 71.485C49.69 71.3024 49.2007 70.9784 48.8594 70.5464C49.406 70.641 49.8927 70.7144 50.3687 70.6917C50.6047 70.689 50.8367 70.665 51.0634 70.6304C51.2914 70.5984 51.5154 70.553 51.734 70.4837C52.174 70.353 52.5994 70.169 53.01 69.9477C53.2167 69.8424 53.4167 69.7197 53.6167 69.5984L53.9114 69.4104L54.1807 69.229L54.2207 69.201C54.5247 68.9957 54.9394 69.0757 55.1434 69.381C55.3287 69.6544 55.282 70.0144 55.0514 70.2344Z" fill="#132A3E"/>
<path d="M67.7829 22.7064C67.5869 22.7184 67.4162 22.569 67.4029 22.3717L66.7429 12.0557C66.7309 11.8584 66.8802 11.6877 67.0789 11.6744C69.1522 11.5424 70.9429 13.117 71.0762 15.1917L71.3002 18.709C71.4322 20.7837 69.8589 22.573 67.7829 22.7064Z" fill="white"/>
<path d="M67.3235 11.7373C67.2435 11.7373 67.1635 11.74 67.0822 11.7453C67.0062 11.7493 66.9369 11.784 66.8862 11.8427C66.8355 11.9 66.8089 11.9733 66.8142 12.0507L67.4729 22.3653C67.4835 22.524 67.6222 22.6467 67.7795 22.6333C68.7635 22.5707 69.6649 22.128 70.3169 21.388C70.9675 20.648 71.2929 19.6973 71.2302 18.712L71.0049 15.1947C70.9422 14.2107 70.4995 13.3093 69.7582 12.6573C69.0782 12.06 68.2222 11.7373 67.3235 11.7373ZM67.7835 22.7053H67.7862H67.7835ZM67.7609 22.7773C67.5355 22.7773 67.3462 22.6013 67.3315 22.3747L66.6729 12.06C66.6569 11.8227 66.8382 11.6173 67.0742 11.6027C69.1849 11.4693 71.0129 13.0747 71.1462 15.1853L71.3715 18.704C71.4369 19.7267 71.1009 20.712 70.4235 21.4827C69.7462 22.252 68.8102 22.7107 67.7889 22.776C67.7795 22.7773 67.7702 22.7773 67.7609 22.7773Z" fill="#132A3E"/>
<g opacity="0.350006">
<path d="M71.1959 17.0596L71.3026 18.7089C71.4346 20.7836 69.8599 22.5729 67.7839 22.7062C67.5866 22.7196 67.4159 22.5675 67.4039 22.3702L67.2266 19.6289C67.2906 19.7502 67.4212 19.8289 67.5666 19.8196L67.8119 19.8036C69.4506 19.6996 70.7799 18.5596 71.1959 17.0596Z" fill="#132A3E"/>
</g>
<path d="M67.4282 12.3324L68.0469 22.0058C69.5989 21.7524 70.7389 20.3524 70.6362 18.7498L70.4122 15.2324C70.3589 14.4058 69.9882 13.6498 69.3669 13.1031C68.8229 12.6244 68.1429 12.3564 67.4282 12.3324ZM67.7842 22.7044H67.7869H67.7842ZM67.7602 23.3711C67.2256 23.3711 66.7749 22.9538 66.7389 22.4124L66.0802 12.0964C66.0442 11.5324 66.4736 11.0458 67.0362 11.0098C68.2162 10.9338 69.3562 11.3231 70.2456 12.1044C71.1336 12.8858 71.6656 13.9671 71.7402 15.1471L71.9642 18.6658C72.0402 19.8458 71.6522 20.9858 70.8696 21.8738C70.0882 22.7618 69.0082 23.2938 67.8269 23.3684C67.8042 23.3698 67.7829 23.3711 67.7602 23.3711" fill="#132A3E"/>
<path d="M33.0329 13.8521C33.2302 13.8387 33.4009 13.9894 33.4129 14.1867L34.0729 24.5027C34.0862 24.7001 33.9355 24.8707 33.7369 24.8827C31.6635 25.0161 29.8729 23.4414 29.7409 21.3667L29.5155 17.8494C29.3835 15.7734 30.9569 13.9841 33.0329 13.8521Z" fill="white"/>
<path d="M33.0375 13.9209C32.0535 13.9836 31.1522 14.4263 30.5015 15.1676C29.8482 15.9076 29.5242 16.8583 29.5882 17.8423L29.8122 21.3596C29.8762 22.3436 30.3175 23.2449 31.0588 23.8969C31.7988 24.5489 32.7495 24.8743 33.7335 24.8103C33.8108 24.8049 33.8815 24.7703 33.9322 24.7129C33.9828 24.6556 34.0082 24.5809 34.0028 24.5049L33.3428 14.1889C33.3335 14.0316 33.1962 13.9103 33.0375 13.9209ZM33.4935 24.9609C32.5615 24.9609 31.6708 24.6249 30.9642 24.0036C30.1948 23.3276 29.7348 22.3916 29.6708 21.3689L29.4455 17.8516C29.3802 16.8289 29.7175 15.8423 30.3935 15.0729C31.0695 14.3036 32.0068 13.8436 33.0282 13.7783C33.2682 13.7663 33.4695 13.9436 33.4855 14.1796L34.1455 24.4956C34.1522 24.6103 34.1148 24.7209 34.0388 24.8076C33.9628 24.8929 33.8575 24.9449 33.7428 24.9516C33.6602 24.9569 33.5762 24.9609 33.4935 24.9609Z" fill="#132A3E"/>
<g opacity="0.350006">
<path d="M33.8899 21.6402L34.0725 24.5015C34.0845 24.6989 33.9339 24.8695 33.7365 24.8829C32.6472 24.9522 31.6365 24.5522 30.9019 23.8549C30.2392 23.2242 29.8032 22.3522 29.7405 21.3669L29.6445 19.8842C30.3165 21.1469 31.6885 21.9695 33.2085 21.8722L33.5845 21.8482C33.7232 21.8389 33.8352 21.7562 33.8899 21.6402Z" fill="#132A3E"/>
</g>
<path d="M32.7704 14.548C31.2184 14.8014 30.0771 16.2027 30.1811 17.804L30.4051 21.3227C30.4584 22.148 30.8291 22.904 31.4518 23.4507C31.9944 23.9307 32.6744 24.1987 33.3891 24.2214L32.7704 14.548ZM33.4958 25.5547C31.1811 25.5547 29.2278 23.7494 29.0771 21.4067L28.8531 17.8894C28.7771 16.7094 29.1664 15.5694 29.9478 14.6814C30.7291 13.792 31.8091 13.2614 32.9904 13.1867C33.5558 13.1494 34.0424 13.5787 34.0771 14.1427L34.7384 24.4574C34.7544 24.7307 34.6651 24.9934 34.4838 25.2C34.3038 25.4054 34.0544 25.528 33.7811 25.5454C33.6851 25.5507 33.5891 25.5547 33.4958 25.5547Z" fill="#132A3E"/>
<path d="M68.024 18.4022C67.9533 28.1302 60.012 35.9595 50.284 35.8902C40.556 35.8195 32.7267 27.8782 32.7973 18.1502C32.8667 8.4235 40.8093 0.594169 50.536 0.663503C60.264 0.732836 68.0933 8.6755 68.024 18.4022Z" fill="white"/>
<path d="M50.4083 0.734273C45.7697 0.734273 41.403 2.52361 38.0963 5.78361C34.7603 9.07294 32.903 13.4649 32.8697 18.1516C32.8363 22.8369 34.6297 27.2556 37.919 30.5916C41.2097 33.9289 45.6017 35.7849 50.2857 35.8183C54.9684 35.8503 59.3897 34.0596 62.727 30.7689C66.0644 27.4796 67.9204 23.0876 67.9537 18.4023C67.9884 13.7156 66.195 9.29827 62.9044 5.96094C59.615 2.62361 55.223 0.767606 50.5377 0.734273H50.4083ZM50.4137 35.9609H50.2857C40.535 35.8916 32.6577 27.9009 32.727 18.1503C32.7964 8.44227 40.7177 0.591606 50.4097 0.591606C50.4537 0.591606 50.495 0.591606 50.539 0.591606C55.263 0.624939 59.6897 2.49694 63.0057 5.86094C66.323 9.22494 68.131 13.6783 68.0977 18.4023C68.027 28.1116 60.1057 35.9609 50.4137 35.9609Z" fill="#132A3E"/>
<g opacity="0.350006">
<path d="M67.8746 15.9635C67.98 16.7608 68.032 17.5742 68.0253 18.4035C67.956 28.1302 60.0133 35.9595 50.2866 35.8902C40.5586 35.8195 32.7293 27.8782 32.7973 18.1515C32.8 17.8715 32.808 17.5915 32.824 17.3155C33.9506 25.8982 41.26 32.5515 50.16 32.6155C59.608 32.6835 67.3693 25.2995 67.8746 15.9635Z" fill="#132A3E"/>
</g>
<path d="M50.408 1.3306C45.928 1.3306 41.708 3.05993 38.5133 6.20926C35.2893 9.3866 33.4946 13.6306 33.464 18.1586C33.432 22.6853 35.1626 26.9533 38.3413 30.1773C41.52 33.4013 45.764 35.1946 50.2906 35.2266C54.824 35.2533 59.0866 33.5266 62.3106 30.3493C65.5346 27.1706 67.3266 22.9279 67.36 18.3999C67.392 13.8733 65.6586 9.60526 62.4813 6.38126C59.304 3.15726 55.06 1.3626 50.5333 1.3306C50.4906 1.3306 50.4493 1.3306 50.408 1.3306ZM50.416 36.5586C50.3706 36.5586 50.3253 36.5586 50.28 36.5573C45.3986 36.5226 40.8226 34.5893 37.3933 31.1119C33.9666 27.6346 32.0986 23.0306 32.1333 18.1479C32.168 13.2666 34.1026 8.68926 37.5786 5.26126C41.056 1.83326 45.6626 -0.036069 50.5426 -6.90286e-05C55.4253 0.0345976 60.0013 1.96926 63.4293 5.4466C66.8573 8.92393 68.7253 13.5266 68.6906 18.4106C68.656 23.2919 66.7213 27.8693 63.244 31.2973C59.7986 34.6919 55.248 36.5586 50.416 36.5586" fill="#132A3E"/>
<path d="M67.9616 18.855C67.9896 22.3017 66.8963 25.5097 65.003 28.1724C63.5856 30.1697 57.715 33.6897 50.4336 33.8137C43.683 33.9284 37.511 30.3764 36.0603 28.403C34.1256 25.771 32.9816 22.5804 32.9536 19.1324C32.8803 10.0124 40.6883 6.16837 50.355 6.09237C60.023 6.01503 67.8883 9.7337 67.9616 18.855Z" fill="#308A91"/>
<path d="M50.6218 6.48951C50.5338 6.48951 50.4458 6.48951 50.3618 6.49084C45.2178 6.53218 33.2631 7.84551 33.3538 19.1322C33.3791 22.3828 34.4271 25.5082 36.3818 28.1695C37.7511 30.0308 43.6324 33.4202 50.1164 33.4215C50.2204 33.4215 50.3244 33.4202 50.4298 33.4175C57.7524 33.2948 63.4111 29.7335 64.6831 27.9442C66.5951 25.2522 67.5938 22.1108 67.5671 18.8602C67.4804 7.76018 55.8964 6.48951 50.6218 6.48951ZM50.1098 34.2148C43.2711 34.2148 37.2351 30.6708 35.7431 28.6402C33.6884 25.8428 32.5871 22.5575 32.5591 19.1375C32.5244 14.6855 34.2818 11.2388 37.7844 8.89351C40.8444 6.84284 45.1911 5.73751 50.3551 5.69618C55.5204 5.65485 59.8818 6.69218 62.9751 8.69218C66.5138 10.9828 68.3258 14.4015 68.3618 18.8535C68.3884 22.2722 67.3404 25.5748 65.3298 28.4055C63.9351 30.3655 58.1391 34.0815 50.4431 34.2122C50.3324 34.2135 50.2204 34.2148 50.1098 34.2148" fill="#132A3E"/>
<g opacity="0.699997">
<path d="M60.0396 17.2776C59.7462 18.9736 60.5049 20.5216 61.7342 20.7336C62.9636 20.9456 64.1969 19.7442 64.4916 18.0469C64.7849 16.3509 64.0262 14.8042 62.7969 14.5909C61.5676 14.3789 60.3342 15.5816 60.0396 17.2776Z" fill="white"/>
</g>
<g opacity="0.699997">
<path d="M58.3762 23.4853C58.1348 24.2373 58.4628 25.0146 59.1095 25.2226C59.7548 25.4293 60.4735 24.9866 60.7148 24.2346C60.9562 23.4813 60.6268 22.704 59.9815 22.4973C59.3362 22.2906 58.6175 22.7333 58.3762 23.4853Z" fill="white"/>
</g>
<g opacity="0.350006">
<path d="M64.4911 10.3723C66.6458 12.3977 67.9325 15.191 67.9631 18.8537C67.9898 22.3017 66.8965 25.5097 65.0058 28.1723C63.5858 30.1697 57.7151 33.6897 50.4338 33.8137C47.8631 33.8577 45.3778 33.3697 43.2031 32.639C52.1498 32.295 59.2991 27.975 61.0591 25.499C63.4618 22.119 64.8485 18.0457 64.8125 13.6723C64.8045 12.5043 64.6925 11.4043 64.4911 10.3723Z" fill="#111A28"/>
</g>
<path d="M34.2147 11.3485H34.2174H34.2147ZM34.7414 11.7578L33.6947 10.9325L34.1867 11.3258L33.6641 10.9765C36.7561 6.34715 42.7974 3.65648 50.2427 3.59781C57.6374 3.54181 63.7081 6.04315 66.9241 10.4671C67.1107 10.7111 67.1094 11.0618 66.9014 11.3031C66.6627 11.5831 66.2427 11.6165 65.9641 11.3765C65.9241 11.3431 65.8867 11.3018 65.8561 11.2605C62.8987 7.18181 57.2081 4.86981 50.2521 4.92848C43.2561 4.98448 37.6147 7.45781 34.7707 11.7151C34.7614 11.7298 34.7507 11.7431 34.7414 11.7578Z" fill="#132A3E"/>
<g opacity="0.699997">
<path d="M36.9291 24.5312C36.9291 24.5312 34.0331 15.5566 38.8531 11.9312C43.6744 8.30725 50.6518 8.26592 50.4918 8.71525C50.4918 8.71525 42.7838 10.6459 39.8091 16.7766C37.5158 21.5033 36.9291 24.5312 36.9291 24.5312Z" fill="white"/>
</g>
<path d="M61.5248 44.0915L61.9995 47.7688L62.3728 50.6301C62.4728 51.4075 61.9568 52.1301 61.1875 52.2861C60.6928 52.3875 60.0782 52.5061 59.3715 52.6275C56.8528 53.0635 53.1488 53.5488 49.4262 53.4915C48.6248 53.4795 47.9795 52.8355 47.9568 52.0341L47.7662 44.4395C47.7435 43.5848 48.4422 42.8861 49.2968 42.9075C51.8848 42.9741 57.0382 43.0595 59.9088 42.7941C60.7088 42.7208 61.4222 43.2955 61.5248 44.0915Z" fill="white"/>
<path d="M49.184 42.9099L46.164 43.2326C45.5027 43.3019 45.0067 43.8712 45.028 44.5366L45.2573 52.0699C45.276 52.7272 45.7933 53.2606 46.4493 53.3019L49.2387 53.4766" fill="white"/>
<g opacity="0.25">
<path d="M49.184 42.9099L46.164 43.2326C45.5027 43.3019 45.0067 43.8712 45.028 44.5366L45.2573 52.0699C45.276 52.7272 45.7933 53.2606 46.4493 53.3019L49.2387 53.4766" fill="#132A3E"/>
</g>
<path d="M49.2616 43.4966C49.0189 43.4966 48.7923 43.5899 48.6216 43.7619C48.4443 43.9393 48.3483 44.1753 48.3549 44.4273L48.5483 52.0219C48.5603 52.5099 48.9509 52.8993 49.4363 52.9073C54.1056 52.9766 58.7323 52.1899 61.0736 51.7139C61.5376 51.6193 61.8523 51.1766 61.7909 50.7073L60.9443 44.1686C60.8816 43.6833 60.4536 43.3366 59.9656 43.3819C57.0989 43.6459 52.0429 43.5673 49.2856 43.4966H49.2616ZM50.0416 54.0859C49.8336 54.0859 49.6256 54.0846 49.4176 54.0806C48.2989 54.0633 47.4016 53.1726 47.3736 52.0513L47.1803 44.4566C47.1669 43.8806 47.3829 43.3379 47.7896 42.9313C48.1976 42.5246 48.7389 42.3086 49.3149 42.3219C52.0483 42.3913 57.0509 42.4699 59.8576 42.2126C60.9749 42.1086 61.9643 42.9019 62.1096 44.0179L62.9563 50.5566C63.0963 51.6339 62.3723 52.6473 61.3083 52.8646C59.0229 53.3299 54.6056 54.0859 50.0416 54.0859Z" fill="#132A3E"/>
<path d="M49.2384 54.0664C49.225 54.0664 49.213 54.0664 49.201 54.0651L46.4117 53.8904C45.4464 53.8304 44.6984 53.0557 44.6677 52.0904L44.4384 44.5571C44.409 43.5904 45.1397 42.7531 46.0997 42.6504L49.1197 42.3277C49.4424 42.2917 49.7317 42.5277 49.7664 42.8491C49.801 43.1731 49.5664 43.4611 49.2437 43.4957L46.225 43.8184C45.8717 43.8557 45.601 44.1651 45.6117 44.5211L45.8424 52.0544C45.853 52.4104 46.129 52.6957 46.485 52.7184L49.2744 52.8931C49.5984 52.9131 49.8437 53.1917 49.8237 53.5157C49.805 53.8264 49.545 54.0664 49.2384 54.0664Z" fill="#132A3E"/>
<path d="M55.607 53.8047C55.299 53.8047 55.039 53.5634 55.0217 53.2514L54.7963 49.4047L52.8483 48.09C52.6977 47.9887 52.603 47.8234 52.5897 47.6434L52.271 43.0087C52.2483 42.686 52.4937 42.4047 52.8163 42.3834C53.139 42.3607 53.4203 42.6047 53.443 42.9287L53.743 47.2767L55.6937 48.5927C55.8457 48.6954 55.9417 48.862 55.9523 49.046L56.1923 53.1834C56.2123 53.5074 55.9657 53.7847 55.6403 53.8047C55.6297 53.8047 55.619 53.8047 55.607 53.8047Z" fill="#132A3E"/>
<path d="M61.0822 47.6059C61.1075 47.8379 60.9755 49.7539 60.9755 49.7539C60.9755 49.7539 60.3795 49.8152 59.6475 49.8912C58.7328 49.9872 57.8928 49.1179 57.7728 47.9499C57.6502 46.7819 58.2928 45.7592 59.2075 45.6632C59.8248 45.5992 60.5355 45.5245 60.5355 45.5245C60.5355 45.5245 61.0435 47.2259 61.0822 47.6059" fill="#22A7F0"/>
<path d="M61.0851 47.6058C61.1105 47.8378 60.9785 49.7538 60.9785 49.7538C60.9785 49.7538 60.9625 49.7551 60.9345 49.7578C60.9691 49.2058 61.0025 48.5498 60.9905 48.4191C60.9505 48.0391 60.4438 46.3391 60.4438 46.3391C60.4438 46.3391 59.7318 46.4125 59.1145 46.4765C58.4771 46.5431 57.9691 47.0645 57.7638 47.7698C57.7211 46.6778 58.3425 45.7538 59.2105 45.6631C59.8278 45.5991 60.5385 45.5258 60.5385 45.5258C60.5385 45.5258 61.0465 47.2258 61.0851 47.6058" fill="white"/>
<path d="M60.1762 46.0651L59.2615 46.1598C58.6335 46.2251 58.1802 47.0211 58.2709 47.8984C58.3629 48.7758 58.9709 49.4584 59.5975 49.3958L60.5082 49.3011C60.5762 48.2384 60.5935 47.7504 60.5895 47.6544C60.5749 47.5238 60.4589 47.0398 60.1762 46.0651ZM59.5149 50.3984C58.4042 50.3984 57.4215 49.3651 57.2789 48.0024C57.1295 46.5624 57.9722 45.2904 59.1575 45.1678L60.0855 45.0704C60.5602 45.0211 60.9989 45.3171 61.1309 45.7744C61.5455 47.2064 61.5735 47.4678 61.5815 47.5544C61.5895 47.6238 61.6055 47.7851 61.5029 49.3798C61.4722 49.8584 61.1015 50.2424 60.6242 50.2918L59.7029 50.3891C59.6402 50.3958 59.5775 50.3984 59.5149 50.3984Z" fill="#132A3E"/>
<path d="M62.4113 47.468C62.5326 48.636 61.89 49.66 60.9766 49.7547C60.0606 49.8493 59.222 48.98 59.1006 47.812C58.9793 46.6453 59.622 45.6213 60.5366 45.5253C61.45 45.4307 62.29 46.3013 62.4113 47.468Z" fill="#308A91"/>
<path d="M62.4113 47.4692C62.426 47.6092 62.43 47.7492 62.422 47.8852C62.1686 46.9319 61.426 46.2732 60.6233 46.3559C59.8193 46.4412 59.2246 47.2412 59.1766 48.2266C59.142 48.0946 59.114 47.9546 59.1006 47.8119C58.9793 46.6452 59.622 45.6212 60.5366 45.5266C61.45 45.4319 62.2886 46.3012 62.4113 47.4692Z" fill="white"/>
<path d="M60.6715 46.0191C60.6435 46.0191 60.6155 46.0204 60.5875 46.0231C60.3022 46.0524 60.0395 46.2351 59.8528 46.5337C59.6408 46.8711 59.5488 47.3071 59.5968 47.7617C59.6435 48.2164 59.8222 48.6244 60.0995 48.9111C60.3448 49.1657 60.6382 49.2897 60.9235 49.2591C61.2102 49.2297 61.4715 49.0484 61.6582 48.7497C61.8702 48.4111 61.9622 47.9751 61.9155 47.5204C61.8662 47.0671 61.6888 46.6577 61.4128 46.3711C61.1915 46.1417 60.9302 46.0191 60.6715 46.0191ZM60.8355 50.2617C60.3062 50.2617 59.7955 50.0324 59.3808 49.6044C58.9502 49.1577 58.6742 48.5404 58.6035 47.8644C58.5328 47.1897 58.6768 46.5284 59.0075 46.0031C59.3622 45.4377 59.8862 45.0937 60.4835 45.0311C61.0822 44.9684 61.6662 45.1991 62.1302 45.6777C62.5608 46.1244 62.8368 46.7417 62.9075 47.4177C62.9768 48.0924 62.8342 48.7537 62.5048 49.2804C62.1488 49.8444 61.6248 50.1897 61.0275 50.2524C60.9635 50.2591 60.8995 50.2617 60.8355 50.2617Z" fill="#132A3E"/>
<path d="M32.7958 45.5638C32.7958 45.5638 36.7678 47.3625 46.2131 47.0371C46.2131 47.0371 47.9438 48.6958 46.2131 50.0651C44.4838 51.4358 34.7424 52.2251 32.1411 49.4171C30.4931 47.6398 32.7958 45.5638 32.7958 45.5638Z" fill="white"/>
<g opacity="0.25">
<path d="M46.2145 50.067C44.4838 51.4363 34.7438 52.2243 32.1412 49.4163C31.3572 48.5723 31.4665 47.6603 31.7998 46.935C31.8865 47.0923 31.9998 47.2457 32.1412 47.399C34.7438 50.207 44.4838 49.419 46.2145 48.0497C46.3972 47.903 46.5425 47.755 46.6532 47.6057C47.0158 48.2097 47.3132 49.1963 46.2145 50.067Z" fill="#132A3E"/>
</g>
<path d="M32.9479 46.2532C32.6439 46.5972 32.1652 47.2452 32.1372 47.9292C32.1199 48.3265 32.2625 48.6825 32.5732 49.0172C34.9559 51.5879 44.3892 50.7612 45.8505 49.6052C46.2012 49.3265 46.3799 49.0359 46.3959 48.7172C46.4159 48.3039 46.1559 47.8785 45.9612 47.6319C38.1999 47.8692 34.1585 46.6892 32.9479 46.2532ZM39.3572 51.8945C37.1505 51.8945 33.3759 51.6132 31.7105 49.8145C31.1825 49.2452 30.9305 48.5919 30.9639 47.8732C31.0305 46.3812 32.3479 45.1772 32.4039 45.1265L32.6892 44.8692L33.0372 45.0279C33.0972 45.0545 37.0652 46.7639 46.1945 46.4492L46.4412 46.4412L46.6212 46.6132C46.7239 46.7105 47.6239 47.6092 47.5692 48.7719C47.5465 49.2319 47.3585 49.9092 46.5799 50.5252C45.4185 51.4452 42.0999 51.8799 39.5079 51.8945C39.4585 51.8945 39.4092 51.8945 39.3572 51.8945" fill="#132A3E"/>
<g opacity="0.25">
<path d="M66.8025 59.514C65.3812 61.2327 60.8198 62.89 58.3652 61.3513C56.3145 60.0687 56.2492 58.2287 54.7958 57.17C54.7105 57.1087 54.4545 56.9967 54.0625 56.826C58.6665 55.374 62.8812 54.646 66.6705 54.4033C68.3038 56.414 67.9798 58.09 66.8025 59.514Z" fill="#132A3E"/>
</g>
<path d="M46.9829 37.7711C52.1269 44.1885 60.6149 48.1231 65.6829 52.6978C68.4616 55.2045 68.0242 56.4111 66.6389 58.0871C65.2189 59.8058 61.8802 61.4645 59.4256 59.9258C57.3749 58.6418 57.2469 57.4205 55.7936 56.3618C55.2202 55.9445 45.9989 53.4965 40.8789 45.5178" fill="white"/>
<g opacity="0.25">
<path d="M66.6389 58.0882C65.2189 59.8069 61.8802 61.4642 59.4256 59.9256C57.3749 58.6429 57.2456 57.4216 55.7922 56.3616C55.2216 55.9442 45.9976 53.4976 40.8789 45.5176L40.9829 45.3842C46.6922 51.3869 52.6442 51.7469 56.5976 54.7882C58.0216 55.8856 58.1456 56.2482 60.1962 57.5322C62.6522 59.0709 65.9909 57.4136 67.4096 55.6949C67.5016 55.5856 67.5882 55.4776 67.6696 55.3696C67.9042 56.3402 67.4242 57.1389 66.6389 58.0882Z" fill="#132A3E"/>
</g>
<path d="M47.154 37.6328C48.246 38.4034 49.1474 39.2794 50.1114 40.1194C51.058 40.9688 52.03 41.7981 53.0114 42.6221C54.01 43.4288 55.0434 44.1941 56.1034 44.9328C57.1567 45.6781 58.2327 46.4021 59.3047 47.1328C60.3794 47.8661 61.4594 48.5928 62.5234 49.3608C62.7914 49.5488 63.0554 49.7434 63.318 49.9408C63.5807 50.1381 63.8474 50.3314 64.1074 50.5328C64.6247 50.9448 65.1474 51.3461 65.6447 51.7888C66.15 52.2128 66.65 52.6754 67.118 53.1888C67.2327 53.3234 67.3487 53.4554 67.4594 53.5928C67.5674 53.7408 67.6767 53.8821 67.778 54.0368L67.9234 54.2781L67.9967 54.3994C68.018 54.4421 68.038 54.4888 68.0594 54.5328L68.182 54.8008C68.218 54.8954 68.2447 54.9954 68.2767 55.0941C68.3887 55.4874 68.4327 55.9434 68.3407 56.3634C68.2554 56.7794 68.0914 57.1568 67.9007 57.4754C67.7074 57.7941 67.498 58.0834 67.2834 58.3461C67.182 58.4781 67.0594 58.6154 66.9354 58.7514C66.8167 58.8914 66.682 59.0074 66.554 59.1328C66.0274 59.6181 65.4447 60.0194 64.8194 60.3474C64.194 60.6741 63.5247 60.9274 62.818 61.0714C62.1127 61.2154 61.3607 61.2461 60.622 61.0981L60.346 61.0341C60.2527 61.0141 60.162 60.9914 60.0727 60.9554C59.898 60.8861 59.714 60.8314 59.5447 60.7448C59.378 60.6568 59.2047 60.5674 59.046 60.4741C58.9007 60.3768 58.7514 60.2848 58.61 60.1808C58.3247 59.9741 58.046 59.7514 57.7887 59.5048C57.53 59.2594 57.2874 58.9981 57.07 58.7314C56.63 58.1954 56.282 57.6834 55.8714 57.2968C55.822 57.2448 55.766 57.2008 55.714 57.1541C55.662 57.1061 55.6087 57.0594 55.5514 57.0181L55.466 56.9528L55.4247 56.9194L55.4034 56.9034C55.3954 56.8954 55.4034 56.9061 55.4034 56.9048C55.406 56.9088 55.41 56.9114 55.414 56.9114L55.3807 56.8968C55.3514 56.8834 55.3314 56.8728 55.2927 56.8581C55.0194 56.7461 54.706 56.6301 54.4034 56.5114C53.7927 56.2754 53.1807 56.0274 52.574 55.7621C50.154 54.7021 47.8274 53.3821 45.7314 51.7381C45.2034 51.3314 44.698 50.8954 44.202 50.4514C43.714 49.9968 43.2114 49.5554 42.7487 49.0701C42.514 48.8314 42.2914 48.5808 42.0847 48.3168C41.978 48.1874 41.874 48.0568 41.7807 47.9168C41.682 47.7808 41.586 47.6434 41.4954 47.5021C41.3087 47.2234 41.1567 46.9194 41.0127 46.6154C40.8794 46.3021 40.7634 45.9808 40.6887 45.6381C40.662 45.5101 40.742 45.3834 40.87 45.3568C40.9354 45.3421 41.0007 45.3568 41.0514 45.3914L41.0634 45.3981C41.3527 45.5928 41.5914 45.8168 41.8327 46.0341C42.0767 46.2488 42.2914 46.4821 42.5154 46.7088C42.626 46.8221 42.7327 46.9381 42.8367 47.0554C42.9407 47.1741 43.0527 47.2848 43.1567 47.4021C43.2647 47.5181 43.37 47.6341 43.4714 47.7541C43.578 47.8701 43.6847 47.9861 43.7887 48.1034C44.202 48.5768 44.6367 49.0368 45.1007 49.4674C45.57 49.8901 46.05 50.3021 46.55 50.6901C48.5447 52.2541 50.7727 53.5208 53.1087 54.5434C53.6927 54.7994 54.2847 55.0394 54.8834 55.2714C55.186 55.3888 55.482 55.4968 55.81 55.6328C55.8487 55.6474 55.9007 55.6714 55.946 55.6914C55.9714 55.7048 55.9874 55.7101 56.0207 55.7274C56.0607 55.7488 56.1007 55.7714 56.138 55.7968C56.1554 55.8061 56.182 55.8234 56.1887 55.8288L56.2167 55.8501L56.2714 55.8914L56.3794 55.9768C56.5234 56.0874 56.6607 56.2128 56.7927 56.3368C57.3274 56.8474 57.71 57.4194 58.0967 57.8848C58.4807 58.3554 58.8994 58.7514 59.3847 59.0994C59.5034 59.1874 59.6327 59.2648 59.7554 59.3488L60.114 59.5434C60.2327 59.6048 60.3647 59.6394 60.4887 59.6914C60.5514 59.7181 60.618 59.7341 60.6834 59.7474L60.882 59.7941C61.4167 59.9008 61.9887 59.8821 62.554 59.7674C63.682 59.5341 64.7887 58.9448 65.65 58.1568C65.7527 58.0541 65.866 57.9594 65.9567 57.8501C66.0514 57.7448 66.1474 57.6408 66.2434 57.5154C66.4394 57.2754 66.61 57.0368 66.754 56.7994C66.898 56.5621 66.9874 56.3314 67.0327 56.1128C67.0847 55.8954 67.058 55.6848 66.9967 55.4581C66.866 55.0048 66.5287 54.5194 66.126 54.0768C65.7194 53.6301 65.2647 53.2061 64.7754 52.7954C64.302 52.3741 63.794 51.9848 63.2954 51.5874C63.042 51.3914 62.782 51.2034 62.526 51.0101C62.27 50.8168 62.0114 50.6274 61.7474 50.4421C60.7047 49.6888 59.6287 48.9661 58.5594 48.2341C57.4847 47.5021 56.4047 46.7754 55.338 46.0208C54.2647 45.2741 53.218 44.4848 52.1607 43.7034C51.1207 42.8981 50.0807 42.0781 49.1594 41.1208C48.2127 40.1981 47.3834 39.1301 46.8087 37.9101C46.754 37.7968 46.8034 37.6608 46.9167 37.6061C46.994 37.5701 47.0807 37.5808 47.146 37.6261L47.154 37.6328Z" fill="#132A3E"/>
<path d="M47.3802 52.7188C47.3349 52.7188 47.2882 52.7134 47.2416 52.7014C46.9256 52.6254 46.7336 52.3067 46.8096 51.9921C46.8896 51.6641 48.8202 44.0067 54.1536 44.0067C54.1829 44.0067 54.2109 44.0067 54.2402 44.0081C54.5642 44.0134 54.8229 44.2801 54.8176 44.6041C54.8122 44.9281 54.5456 45.1947 54.2216 45.1827C54.2002 45.1827 54.1789 45.1814 54.1562 45.1814C49.7309 45.1814 47.9682 52.1987 47.9509 52.2707C47.8856 52.5388 47.6442 52.7188 47.3802 52.7188Z" fill="#132A3E"/>
<path d="M69.1311 40.582C69.0351 40.582 68.9364 40.558 68.8444 40.5074C65.8831 38.8434 65.6658 30.838 65.6524 29.9314C65.6471 29.6074 65.9044 29.3394 66.2298 29.334H66.2391C66.5591 29.334 66.8218 29.59 66.8258 29.9114C66.8644 32.19 67.4044 38.3514 69.4204 39.482C69.7031 39.642 69.8031 39.9994 69.6444 40.282C69.5364 40.474 69.3364 40.582 69.1311 40.582Z" fill="#132A3E"/>
<path d="M73.9959 25.5563C74.0012 25.5923 74.0039 25.6617 74.0079 25.7177L74.0199 25.8977C74.0292 26.019 74.0332 26.1417 74.0452 26.2643C74.0626 26.5097 74.0932 26.7563 74.1292 27.003C74.1626 27.2523 74.2146 27.5003 74.2626 27.7577C74.3012 28.023 74.3679 28.2817 74.4012 28.5977C74.1186 28.4683 73.8812 28.2697 73.6906 28.039C73.5892 27.9243 73.5119 27.7977 73.4319 27.6697C73.3612 27.5377 73.2892 27.4057 73.2346 27.267C73.1146 26.991 73.0279 26.7017 72.9746 26.4057C72.9532 26.2577 72.9306 26.1083 72.9252 25.9563C72.9226 25.8803 72.9199 25.8043 72.9239 25.727C72.9252 25.647 72.9306 25.579 72.9439 25.479C72.9812 25.1923 73.2452 24.9897 73.5319 25.0283C73.7666 25.059 73.9452 25.2417 73.9799 25.4643L73.9959 25.5563Z" fill="#132A3E"/>
</svg>
