<svg width="55" height="46" viewBox="0 0 55 46" fill="none" xmlns="http://www.w3.org/2000/svg">
<g clip-path="url(#clip0_401_2)">
<path d="M50.4167 0H4.58333C2.05203 0 0 2.05949 0 4.6C0 7.14051 2.05203 9.2 4.58333 9.2H50.4167C52.948 9.2 55 7.14051 55 4.6C55 2.05949 52.948 0 50.4167 0Z" fill="#318A92"/>
<path d="M50.4167 18.3999H4.58333C2.05203 18.3999 0 20.4594 0 22.9999C0 25.5404 2.05203 27.5999 4.58333 27.5999H50.4167C52.948 27.5999 55 25.5404 55 22.9999C55 20.4594 52.948 18.3999 50.4167 18.3999Z" fill="#318A92"/>
<path d="M50.4167 36.7998H4.58333C2.05203 36.7998 0 38.8593 0 41.3998C0 43.9403 2.05203 45.9998 4.58333 45.9998H50.4167C52.948 45.9998 55 43.9403 55 41.3998C55 38.8593 52.948 36.7998 50.4167 36.7998Z" fill="#318A92"/>
</g>
<defs>
<clipPath id="clip0_401_2">
<rect width="55" height="46" fill="white"/>
</clipPath>
</defs>
</svg>
