<svg xmlns="http://www.w3.org/2000/svg" width="41" height="57" fill="none" viewBox="0 0 41 57"><path stroke="#308A91" stroke-miterlimit="10" stroke-width="1.333" d="M5.54106 27.952L22.3171 44.5134M5.54106 23.1947L20.9477 7.96403M10.1651 55.7467C11.4797 49.5254 17.1171 44.432 23.7291 44.432C30.4997 44.432 36.1304 49.3334 37.2664 55.7814L10.1651 55.7467ZM0.789062 25.772C0.789062 27.1907 1.85706 28.3507 3.16373 28.3507C4.47173 28.3507 5.54106 27.1907 5.54106 25.772C5.54106 24.3547 4.47173 23.1947 3.16373 23.1947C1.85706 23.1947 0.789062 24.3547 0.789062 25.772ZM21.4517 7.86537C20.8091 7.1747 20.4184 6.24537 20.4184 5.22537C20.4184 3.07604 22.1624 1.33337 24.3117 1.33337C25.3584 1.33337 26.3064 1.7427 27.0064 2.4147L21.4517 7.86537ZM24.8317 20.6734C22.7157 18.7947 21.3731 16.0174 21.3757 12.9187C21.3757 7.26404 25.8344 2.68004 31.3397 2.68004C34.6717 2.68004 37.6237 4.3587 39.4317 6.94137L24.8317 20.6734ZM37.3171 13.396C37.3171 16.2907 34.9704 18.636 32.0744 18.636C30.6944 18.636 29.4344 18.104 28.4997 17.2254L36.1131 10.0587C36.9477 10.9854 37.3171 12.052 37.3171 13.396Z"/></svg>